Bali Sunaren.glyphspackage
{
glyphname = ampersand;
kernLeft = ampersand;
kernRight = ampersand;
layers = (
{
background = {
shapes = (
{
pos = (556,0);
ref = S;
scale = (-1,1);
}
);
};
layerId = m002;
shapes = (
{
closed = 1;
nodes = (
(626,0,l),
(302,391,l),
(291,404,l),
(226,481,o),
(202,522,o),
(202,561,cs),
(202,611,o),
(236,637,o),
(285,637,cs),
(333,637,o),
(369,613,o),
(369,556,cs),
(369,521,o),
(355,472,o),
(261,413,c),
(302,365,l),
(406,425,o),
(447,494,o),
(447,561,cs),
(447,637,o),
(395,710,o),
(288,710,cs),
(184,710,o),
(121,640,o),
(121,557,cs),
(121,487,o),
(167,437,o),
(224,367,c),
(238,352,l),
(446,106,l),
(457,83,l),
(525,0,l)
);
},
{
closed = 1;
nodes = (
(505,120,l),
(563,199,o),
(592,330,o),
(555,453,c),
(581,435,l),
(480,416,l),
(485,455,l),
(518,337,o),
(502,237,o),
(453,172,c)
);
},
{
closed = 1;
nodes = (
(432,143,l),
(395,90,o),
(330,64,o),
(270,64,cs),
(257,64,ls),
(170,64,o),
(125,112,o),
(125,174,cs),
(125,243,o),
(182,297,o),
(272,348,c),
(228,396,l),
(90,319,o),
(43,243,o),
(43,165,cs),
(43,66,o),
(117,-10,o),
(255,-10,cs),
(269,-10,ls),
(344,-10,o),
(422,23,o),
(473,79,c)
);
}
);
width = 645;
},
{
associatedMasterId = m002;
background = {
shapes = (
{
pos = (526,0);
ref = S;
scale = (-1,1);
}
);
};
layerId = "78D1108F-4A4F-442A-BDD0-970C855DA974";
name = "19 Jun 23 15.14";
shapes = (
{
closed = 1;
nodes = (
(593,0,l),
(350,295,ls),
(220,453,o),
(170,503,o),
(170,558,cs),
(170,608,o),
(211,645,o),
(260,645,cs),
(306,645,o),
(339,612,o),
(339,564,cs),
(339,512,o),
(298,473,o),
(231,413,c),
(272,364,l),
(367,445,o),
(416,494,o),
(416,565,cs),
(416,644,o),
(353,710,o),
(259,710,cs),
(164,710,o),
(91,645,o),
(91,561,cs),
(91,501,o),
(127,446,o),
(287,252,cs),
(494,0,l)
);
},
{
closed = 1;
nodes = (
(425,-10,o),
(529,119,o),
(529,352,c),
(461,352,l),
(461,158,o),
(390,62,o),
(270,62,cs),
(179,62,o),
(119,114,o),
(119,181,cs),
(119,242,o),
(167,291,o),
(252,348,c),
(208,398,l),
(84,308,o),
(33,249,o),
(33,175,cs),
(33,78,o),
(125,-10,o),
(263,-10,cs)
);
}
);
width = 598;
},
{
associatedMasterId = m002;
background = {
shapes = (
{
pos = (526,0);
ref = S;
scale = (-1,1);
}
);
};
layerId = "A8E5A881-8E7B-4B5D-9C25-89C47A98D38F";
name = "19 Jun 23 15.22";
shapes = (
{
closed = 1;
nodes = (
(183,430,o),
(127,455,o),
(127,527,cs),
(127,621,o),
(195,632,o),
(247,632,cs),
(316,632,o),
(379,609,o),
(379,522,cs),
(379,448,ls),
(379,435,o),
(374,430,o),
(361,430,cs),
(212,430,ls)
);
},
{
closed = 1;
nodes = (
(378,23,o),
(453,-10,o),
(526,-10,cs),
(565,-10,o),
(603,-3,o),
(639,16,c),
(627,-7,l),
(597,89,l),
(624,87,l),
(595,73,o),
(565,65,o),
(539,65,cs),
(500,65,o),
(463,78,o),
(463,146,cs),
(463,369,l),
(451,355,l),
(613,355,l),
(613,430,l),
(454,430,l),
(454,532,ls),
(454,660,o),
(333,710,o),
(250,710,cs),
(151,710,o),
(46,659,o),
(46,533,cs),
(46,456,o),
(86,409,o),
(139,384,c),
(139,382,l),
(65,347,o),
(20,284,o),
(20,195,cs),
(20,79,o),
(98,-10,o),
(242,-10,cs),
(281,-10,o),
(358,-3,o),
(413,62,c),
(398,133,l),
(350,73,o),
(281,65,o),
(244,65,cs),
(153,65,o),
(106,117,o),
(106,204,cs),
(106,314,o),
(170,355,o),
(219,355,cs),
(387,355,l),
(378,380,l),
(378,144,ls)
);
}
);
width = 598;
},
{
associatedMasterId = m002;
background = {
shapes = (
{
pos = (526,0);
ref = S;
scale = (-1,1);
}
);
};
layerId = "8AD524F8-310E-4419-9F90-A51EED600214";
name = "19 Jun 23 15.25";
shapes = (
{
closed = 1;
nodes = (
(200,430,o),
(137,465,o),
(137,537,cs),
(137,611,o),
(195,632,o),
(247,632,cs),
(316,632,o),
(368,589,o),
(368,502,cs),
(368,448,ls),
(368,435,o),
(363,430,o),
(350,430,cs),
(262,430,ls)
);
},
{
closed = 1;
nodes = (
(452,0,l),
(452,369,l),
(440,355,l),
(602,355,l),
(602,430,l),
(443,430,l),
(443,512,ls),
(443,640,o),
(333,710,o),
(250,710,cs),
(151,710,o),
(56,649,o),
(56,543,cs),
(56,486,o),
(86,419,o),
(179,394,c),
(179,392,l),
(65,357,o),
(9,284,o),
(9,195,cs),
(9,79,o),
(87,-10,o),
(231,-10,cs),
(270,-10,o),
(308,-3,o),
(344,16,c),
(332,-7,l),
(302,89,l),
(329,87,l),
(300,73,o),
(270,65,o),
(233,65,cs),
(142,65,o),
(95,117,o),
(95,204,cs),
(95,314,o),
(220,355,o),
(269,355,cs),
(376,355,l),
(367,380,l),
(367,0,l)
);
}
);
width = 598;
}
);
unicode = 38;
}
{
glyphname = quotesingle;
kernLeft = asterisk;
kernRight = asterisk;
layers = (
{
anchors = (
{
name = _quotesingle;
pos = (61,700);
},
{
name = quotesingle;
pos = (202,700);
}
);
layerId = m002;
shapes = (
{
closed = 1;
nodes = (
(116,446,l),
(146,700,l),
(61,700,l),
(51,446,l)
);
}
);
width = 197;
},
{
anchors = (
{
name = _quotesingle;
pos = (69,700);
},
{
name = quotesingle;
pos = (210,700);
}
);
associatedMasterId = m002;
layerId = "DC896D8E-19FA-4951-B6A7-9E22C728A43A";
name = "14 Jul 23 09.00";
shapes = (
{
closed = 1;
nodes = (
(144,446,l),
(144,700,l),
(69,700,l),
(69,446,l)
);
}
);
width = 213;
}
);
metricLeft = quoteleft;
metricRight = "=|";
unicode = 39;
}
{
glyphname = parenleft;
layers = (
{
layerId = m002;
shapes = (
{
closed = 1;
nodes = (
(220,-230,l),
(301,-182,l),
(295,-208,l),
(191,-37,o),
(149,84,o),
(149,239,cs),
(149,372,o),
(183,510,o),
(298,709,c),
(304,678,l),
(219,724,l),
(243,730,l),
(121,545,o),
(71,390,o),
(71,234,cs),
(71,88,o),
(120,-64,o),
(241,-231,c)
);
}
);
width = 315;
}
);
unicode = 40;
}
{
glyphname = parenright;
kernLeft = parenright;
kernRight = parenright;
layers = (
{
layerId = m002;
shapes = (
{
closed = 1;
nodes = (
(195,-64,o),
(244,88,o),
(244,234,cs),
(244,390,o),
(194,545,o),
(72,730,c),
(96,724,l),
(11,678,l),
(17,709,l),
(132,510,o),
(166,372,o),
(166,239,cs),
(166,84,o),
(124,-37,o),
(20,-208,c),
(14,-182,l),
(95,-230,l),
(74,-231,l)
);
}
);
width = 315;
}
);
metricLeft = "=|parenleft";
metricRight = "=|parenleft";
unicode = 41;
}
{
glyphname = period;
kernLeft = period;
kernRight = period;
layers = (
{
anchors = (
{
name = _colon;
pos = (72,91);
},
{
name = colon;
pos = (72,491);
}
);
layerId = m002;
shapes = (
{
closed = 1;
nodes = (
(170,0,l),
(170,91,l),
(72,91,l),
(72,0,l)
);
}
);
width = 242;
}
);
metricRight = "=|";
unicode = 46;
}
{
glyphname = less;
layers = (
{
layerId = m002;
shapes = (
{
closed = 1;
nodes = (
(490,189,l),
(496,155,l),
(192,318,ls),
(164,333,o),
(131,350,o),
(102,353,c),
(102,350,l),
(131,354,o),
(154,361,o),
(199,383,cs),
(510,536,l),
(483,500,l),
(443,588,l),
(468,586,l),
(34,373,l),
(50,392,l),
(50,303,l),
(36,328,l),
(472,97,l),
(438,92,l)
);
}
);
width = 548;
}
);
unicode = 60;
}
{
glyphname = A;
kernLeft = A;
kernRight = A;
layers = (
{
anchors = (
{
name = bottom;
pos = (304,0);
},
{
name = ogonek;
pos = (594,0);
},
{
name = top;
pos = (304,700);
}
);
background = {
shapes = (
{
angle = 180;
pos = (610,700);
ref = V;
}
);
};
layerId = m002;
shapes = (
{
closed = 1;
nodes = (
(106,0,l),
(169,205,l),
(179,245,l),
(282,584,ls),
(292,616,o),
(297,634,o),
(301,661,c),
(296,661,l),
(298,633,o),
(303,616,o),
(314,584,cs),
(425,245,l),
(434,205,l),
(502,0,l),
(594,0,l),
(356,700,l),
(242,700,l),
(14,0,l)
);
},
{
closed = 1;
nodes = (
(462,187,l),
(443,262,l),
(168,262,l),
(148,187,l)
);
}
);
width = 608;
},
{
anchors = (
{
name = bottom;
pos = (302,0);
},
{
name = ogonek;
pos = (592,0);
},
{
name = top;
pos = (302,700);
}
);
associatedMasterId = m002;
background = {
shapes = (
{
angle = 180;
pos = (608,700);
ref = V;
}
);
};
layerId = "1CD7B8E7-ECC3-4728-B226-075A53A68CFA";
name = "4 Jul 23 05.40";
shapes = (
{
closed = 1;
nodes = (
(104,0,l),
(167,205,l),
(177,245,l),
(309,675,l),
(283,675,l),
(423,245,l),
(432,205,l),
(500,0,l),
(592,0,l),
(354,700,l),
(241,700,l),
(12,0,l)
);
},
{
closed = 1;
nodes = (
(460,187,l),
(441,262,l),
(166,262,l),
(146,187,l)
);
}
);
width = 604;
}
);
metricRight = "=|";
unicode = 65;
}
{
glyphname = B;
kernLeft = H;
kernRight = B;
layers = (
{
anchors = (
{
name = bar_ver;
pos = (286,359);
},
{
name = bottom;
pos = (303,0);
},
{
name = center;
pos = (303,350);
},
{
name = top;
pos = (303,700);
}
);
background = {
shapes = (
{
pos = (17,0);
ref = E;
},
{
closed = 1;
nodes = (
(325,326,l),
(378,326,ls),
(451,326,o),
(492,287,o),
(492,201,cs),
(492,116,o),
(451,76,o),
(378,76,cs),
(325,76,l)
);
},
{
pos = (17,0);
ref = H;
}
);
};
layerId = m002;
shapes = (
{
closed = 1;
nodes = (
(350,0,ls),
(508,0,o),
(572,92,o),
(572,200,cs),
(572,298,o),
(519,354,o),
(446,373,c),
(446,376,l),
(497,399,o),
(533,448,o),
(533,522,cs),
(533,636,o),
(450,700,o),
(330,700,cs),
(92,700,l),
(92,0,l)
);
},
{
closed = 1;
nodes = (
(179,346,l),
(158,328,l),
(337,328,ls),
(438,328,o),
(485,288,o),
(485,203,cs),
(485,120,o),
(441,76,o),
(327,76,cs),
(141,76,l),
(179,38,l)
);
},
{
closed = 1;
nodes = (
(179,662,l),
(141,624,l),
(320,624,ls),
(404,624,o),
(447,591,o),
(447,517,cs),
(447,442,o),
(402,400,o),
(314,400,cs),
(154,400,l),
(179,378,l)
);
}
);
width = 618;
},
{
anchors = (
{
name = bottom;
pos = (353,0);
},
{
name = top;
pos = (353,700);
}
);
associatedMasterId = m002;
background = {
shapes = (
{
closed = 0;
nodes = (
(621,312,l),
(645,281,o),
(657,243,o),
(657,198,c),
(657,157,o),
(647,121,o),
(626,91,c),
(605,61,o),
(576,38,o),
(539,23,c),
(502,8,o),
(460,0,o),
(413,0,c),
(185,0,l),
(185,118,l),
(381,118,l),
(420,118,o),
(450,126,o),
(469,142,c),
(488,158,o),
(498,180,o),
(498,209,c),
(498,239,o),
(487,261,o),
(466,276,c),
(445,291,o),
(415,298,o),
(377,298,c),
(185,298,l),
(185,407,l),
(368,407,l),
(387,407,o),
(403,411,o),
(418,418,c),
(432,425,o),
(443,436,o),
(451,449,c),
(459,462,o),
(463,477,o),
(463,494,c),
(463,522,o),
(454,544,o),
(435,559,c),
(416,574,o),
(391,582,o),
(360,582,c),
(185,582,l),
(185,700,l),
(378,700,l),
(426,700,o),
(467,692,o),
(501,675,c),
(535,658,o),
(561,636,o),
(578,608,c),
(595,579,o),
(604,547,o),
(604,510,c),
(604,483,o),
(599,458,o),
(590,437,c),
(581,416,o),
(569,398,o),
(554,383,c),
(538,369,o),
(523,357,o),
(506,349,c)
);
},
{
closed = 1;
nodes = (
(57,0,l),
(209,0,l),
(209,700,l),
(57,700,l)
);
}
);
};
layerId = "C06F09AC-CF20-4D4F-BC6C-7CFF0A670773";
name = "28 Oct 22 11.55";
shapes = (
{
closed = 1;
nodes = (
(414,0,ls),
(557,0,o),
(657,80,o),
(657,197,cs),
(657,281,o),
(605,349,o),
(517,374,c),
(516,368,l),
(575,402,o),
(604,452,o),
(604,514,cs),
(604,625,o),
(512,700,o),
(377,700,cs),
(183,700,l),
(183,585,l),
(360,585,ls),
(426,585,o),
(463,554,o),
(463,500,cs),
(463,444,o),
(423,407,o),
(361,407,cs),
(183,407,l),
(183,298,l),
(392,298,ls),
(462,298,o),
(502,266,o),
(502,209,cs),
(502,148,o),
(456,115,o),
(377,115,cs),
(183,115,l),
(183,0,l)
);
},
{
closed = 1;
nodes = (
(218,0,l),
(218,700,l),
(68,700,l),
(68,0,l)
);
}
);
width = 687;
}
);
metricLeft = H;
unicode = 66;
}
{
glyphname = D;
kernLeft = H;
kernRight = O;
layers = (
{
anchors = (
{
name = bottom;
pos = (302,0);
},
{
name = center;
pos = (92,350);
},
{
name = top;
pos = (288,700);
}
);
background = {
shapes = (
{
pos = (-71,0);
ref = O;
}
);
};
layerId = m002;
shapes = (
{
closed = 1;
nodes = (
(295,0,ls),
(512,0,o),
(626,128,o),
(626,350,cs),
(626,572,o),
(512,700,o),
(295,700,cs),
(92,700,l),
(92,0,l)
);
},
{
closed = 1;
nodes = (
(179,668,l),
(141,622,l),
(295,622,ls),
(450,622,o),
(539,536,o),
(539,350,cs),
(539,165,o),
(450,78,o),
(295,78,cs),
(141,78,l),
(179,40,l)
);
}
);
width = 681;
}
);
metricLeft = H;
metricRight = O;
unicode = 68;
}
{
glyphname = I;
kernLeft = H;
kernRight = H;
layers = (
{
anchors = (
{
name = bottom;
pos = (136,0);
},
{
name = ogonek;
pos = (179,0);
},
{
name = top;
pos = (136,700);
},
{
name = topleft;
pos = (20,700);
}
);
layerId = m002;
shapes = (
{
closed = 1;
nodes = (
(179,0,l),
(179,700,l),
(92,700,l),
(92,0,l)
);
}
);
width = 271;
}
);
metricLeft = H;
metricRight = H;
unicode = 73;
}
{
glyphname = L;
kernLeft = H;
kernRight = L;
layers = (
{
anchors = (
{
name = bottom;
pos = (319,0);
},
{
name = center;
pos = (92,350);
},
{
name = top;
pos = (143,700);
},
{
name = topright;
pos = (310,700);
}
);
background = {
shapes = (
{
ref = E;
}
);
};
layerId = m002;
shapes = (
{
closed = 1;
nodes = (
(485,0,l),
(485,78,l),
(134,78,l),
(179,33,l),
(179,700,l),
(92,700,l),
(92,0,l)
);
}
);
width = 514;
}
);
metricLeft = H;
unicode = 76;
}
{
glyphname = R;
kernLeft = H;
kernRight = R;
layers = (
{
anchors = (
{
name = bottom;
pos = (324,0);
},
{
name = top;
pos = (285,700);
}
);
background = {
shapes = (
{
pos = (-6,0);
ref = P;
}
);
};
layerId = m002;
shapes = (
{
closed = 1;
nodes = (
(420,308,l),
(413,299,l),
(508,320,o),
(562,394,o),
(562,498,cs),
(562,633,o),
(472,700,o),
(351,700,cs),
(92,700,l),
(92,0,l),
(179,0,l),
(179,317,l),
(164,294,l),
(317,294,ls),
(327,294,o),
(335,293,o),
(340,283,cs),
(496,-17,l),
(463,0,l),
(628,0,l),
(604,-40,l)
);
},
{
closed = 1;
nodes = (
(179,640,l),
(160,622,l),
(349,622,ls),
(443,622,o),
(476,571,o),
(476,498,cs),
(476,414,o),
(430,370,o),
(343,370,cs),
(162,370,l),
(179,360,l)
);
}
);
width = 619;
},
{
associatedMasterId = m002;
background = {
shapes = (
{
ref = P;
}
);
};
layerId = "EB91F34D-98DC-4E5E-BBE4-0C65C092C386";
name = "26 Apr 23 14.01";
shapes = (
{
closed = 1;
nodes = (
(169,0,l),
(169,317,l),
(154,294,l),
(331,294,ls),
(461,294,o),
(530,387,o),
(530,503,cs),
(530,634,o),
(440,700,o),
(319,700,cs),
(82,700,l),
(82,0,l)
);
},
{
closed = 1;
nodes = (
(169,640,l),
(150,622,l),
(317,622,ls),
(411,622,o),
(444,571,o),
(444,500,cs),
(444,414,o),
(401,372,o),
(311,372,cs),
(152,372,l),
(169,360,l)
);
},
{
closed = 1;
nodes = (
(551,0,l),
(370,336,l),
(284,330,l),
(455,0,l)
);
}
);
width = 568;
},
{
anchors = (
{
name = bottom;
pos = (335,0);
},
{
name = top;
pos = (285,700);
}
);
associatedMasterId = m002;
background = {
shapes = (
{
pos = (10,0);
ref = P;
}
);
};
layerId = "2AF3E879-3379-485B-A1AB-76FC1CF0265E";
name = "9 Aug 23 14.23";
shapes = (
{
closed = 1;
nodes = (
(399,308,l),
(391,299,l),
(489,320,o),
(540,403,o),
(540,503,cs),
(540,634,o),
(450,700,o),
(329,700,cs),
(92,700,l),
(92,0,l),
(179,0,l),
(179,317,l),
(164,294,l),
(295,294,ls),
(305,294,o),
(313,293,o),
(318,283,cs),
(474,-17,l),
(441,0,l),
(606,0,l),
(582,-40,l)
);
},
{
closed = 1;
nodes = (
(179,640,l),
(160,622,l),
(327,622,ls),
(421,622,o),
(454,571,o),
(454,498,cs),
(454,414,o),
(410,370,o),
(321,370,cs),
(162,370,l),
(179,360,l)
);
}
);
width = 597;
},
{
anchors = (
{
name = bottom;
pos = (335,0);
},
{
name = top;
pos = (285,700);
}
);
associatedMasterId = m002;
background = {
shapes = (
{
pos = (-6,0);
ref = P;
}
);
};
layerId = "543E67A6-B9D4-4215-9B42-2D0DF96F1500";
name = "9 Aug 23 14.36";
shapes = (
{
closed = 1;
nodes = (
(415,329,l),
(395,297,l),
(513,319,o),
(562,385,o),
(562,496,cs),
(562,645,o),
(463,700,o),
(342,700,cs),
(92,700,l),
(92,0,l),
(179,0,l),
(179,317,l),
(162,294,l),
(321,294,ls),
(332,294,o),
(341,293,o),
(346,283,cs),
(497,-17,l),
(462,0,l),
(628,0,l),
(605,-40,l)
);
},
{
closed = 1;
nodes = (
(179,640,l),
(158,622,l),
(330,622,ls),
(432,622,o),
(476,583,o),
(476,497,cs),
(476,408,o),
(428,370,o),
(320,370,cs),
(160,370,l),
(179,360,l)
);
}
);
width = 619;
}
);
metricLeft = H;
unicode = 82;
}
{
glyphname = T;
kernLeft = T;
kernRight = T;
layers = (
{
anchors = (
{
name = bottom;
pos = (316,0);
},
{
name = center;
pos = (283,350);
},
{
name = top;
pos = (283,700);
}
);
background = {
shapes = (
{
pos = (-11,0);
ref = E;
}
);
};
layerId = m002;
shapes = (
{
closed = 1;
nodes = (
(331,0,l),
(331,638,l),
(319,622,l),
(548,622,l),
(548,700,l),
(17,700,l),
(17,622,l),
(254,622,l),
(244,635,l),
(244,0,l)
);
}
);
width = 565;
}
);
metricRight = "=|";
unicode = 84;
}
{
glyphname = U;
kernLeft = U;
kernRight = U;
layers = (
{
anchors = (
{
name = bottom;
pos = (327,0);
},
{
name = ogonek;
pos = (370,0);
},
{
name = top;
pos = (327,700);
},
{
name = topright;
pos = (636,700);
}
);
background = {
shapes = (
{
pos = (-10,0);
ref = H;
}
);
};
layerId = m002;
shapes = (
{
closed = 1;
nodes = (
(483,-10,o),
(583,71,o),
(583,225,cs),
(583,700,l),
(496,700,l),
(496,222,ls),
(496,109,o),
(425,68,o),
(330,68,cs),
(219,68,o),
(159,123,o),
(159,220,cs),
(159,700,l),
(72,700,l),
(72,210,ls),
(72,77,o),
(167,-10,o),
(326,-10,cs)
);
}
);
width = 655;
}
);
metricRight = "=|";
unicode = 85;
}
{
glyphname = V;
kernLeft = V;
kernRight = V;
layers = (
{
background = {
shapes = (
{
pos = (-90,0);
ref = O;
},
{
pos = (-38,0);
ref = H;
}
);
};
layerId = m002;
shapes = (
{
closed = 1;
nodes = (
(355,0,l),
(579,700,l),
(484,700,l),
(312,122,ls),
(308,108,o),
(300,82,o),
(296,52,c),
(301,52,l),
(298,81,o),
(293,99,o),
(286,122,cs),
(111,700,l),
(17,700,l),
(241,0,l)
);
}
);
width = 596;
},
{
associatedMasterId = m002;
background = {
shapes = (
{
pos = (-73,0);
ref = O;
}
);
};
layerId = "371CB019-1D8D-45E6-B957-7DB7C732E968";
name = "18 Apr 23 15.57";
shapes = (
{
closed = 1;
nodes = (
(360,0,l),
(603,700,l),
(508,700,l),
(341,202,ls),
(323,147,o),
(315,112,o),
(311,86,c),
(304,86,l),
(303,104,o),
(294,148,o),
(279,194,cs),
(110,700,l),
(14,700,l),
(257,0,l)
);
}
);
width = 620;
},
{
associatedMasterId = m002;
background = {
shapes = (
{
pos = (-92,0);
ref = O;
},
{
pos = (-40,0);
ref = H;
}
);
};
layerId = "2E9B7FBA-F4B7-47B9-A1A3-401E0A445999";
name = "1 Jul 23 09.02";
shapes = (
{
closed = 1;
nodes = (
(353,0,l),
(577,700,l),
(482,700,l),
(294,69,l),
(300,69,l),
(109,700,l),
(15,700,l),
(239,0,l)
);
}
);
width = 592;
}
);
metricRight = "=|";
unicode = 86;
}
{
glyphname = W;
kernLeft = W;
kernRight = W;
layers = (
{
anchors = (
{
name = bottom;
pos = (454,0);
},
{
name = top;
pos = (454,700);
}
);
layerId = m002;
shapes = (
{
closed = 1;
nodes = (
(306,0,l),
(437,534,ls),
(448,581,o),
(453,594,o),
(453,625,c),
(452,625,l),
(452,594,o),
(459,581,o),
(470,537,cs),
(606,0,l),
(718,0,l),
(882,700,l),
(790,700,l),
(670,153,ls),
(661,117,o),
(658,100,o),
(658,66,c),
(660,66,l),
(660,100,o),
(657,116,o),
(646,160,cs),
(509,700,l),
(398,700,l),
(264,150,ls),
(255,111,o),
(254,90,o),
(252,67,c),
(254,67,l),
(256,89,o),
(255,111,o),
(245,149,cs),
(119,700,l),
(25,700,l),
(196,0,l)
);
}
);
width = 907;
},
{
associatedMasterId = m002;
layerId = "F634847C-F29A-440B-92A6-4001F746CB80";
name = "18 Apr 23 16.07";
shapes = (
{
closed = 1;
nodes = (
(327,0,l),
(436,493,ls),
(445,536,o),
(450,581,o),
(452,611,c),
(458,611,l),
(460,574,o),
(463,544,o),
(475,494,cs),
(598,0,l),
(721,0,l),
(886,700,l),
(796,700,l),
(678,184,ls),
(665,126,o),
(661,99,o),
(660,80,c),
(653,80,l),
(653,104,o),
(647,139,o),
(636,185,cs),
(510,700,l),
(398,700,l),
(284,184,ls),
(272,126,o),
(266,99,o),
(265,80,c),
(258,80,l),
(258,104,o),
(253,139,o),
(242,185,cs),
(121,700,l),
(30,700,l),
(201,0,l)
);
}
);
width = 917;
}
);
metricRight = "=|";
unicode = 87;
}
{
glyphname = X;
kernLeft = X;
kernRight = X;
layers = (
{
background = {
shapes = (
{
pos = (8,0);
ref = V;
},
{
pos = (14,0);
ref = A;
}
);
};
layerId = m002;
shapes = (
{
closed = 1;
nodes = (
(622,0,l),
(356,378,l),
(321,423,l),
(131,700,l),
(30,700,l),
(271,358,l),
(304,315,l),
(520,0,l)
);
},
{
closed = 1;
nodes = (
(111,0,l),
(329,327,l),
(278,388,l),
(8,0,l)
);
},
{
closed = 1;
nodes = (
(587,700,l),
(487,700,l),
(293,412,l),
(346,354,l)
);
}
);
width = 634;
}
);
unicode = 88;
}
{
glyphname = bracketleft;
layers = (
{
background = {
shapes = (
{
closed = 1;
nodes = (
(317,-196,l),
(227,-196,o),
(184,-161,o),
(184,-86,cs),
(184,107,ls),
(184,175,o),
(166,208,o),
(121,222,c),
(121,225,l),
(166,240,o),
(184,290,o),
(184,350,cs),
(184,530,ls),
(184,605,o),
(227,640,o),
(317,640,c),
(317,710,l),
(165,710,o),
(97,659,o),
(97,530,cs),
(97,310,ls),
(97,264,o),
(73,244,o),
(33,244,c),
(33,203,l),
(73,203,o),
(97,183,o),
(97,137,cs),
(97,-86,ls),
(97,-215,o),
(165,-266,o),
(317,-266,c)
);
}
);
};
layerId = m002;
shapes = (
{
closed = 1;
nodes = (
(287,-205,l),
(287,-140,l),
(146,-140,l),
(172,-173,l),
(172,668,l),
(146,635,l),
(287,635,l),
(287,700,l),
(59,700,l),
(97,738,l),
(97,-243,l),
(59,-205,l)
);
}
);
width = 339;
}
);
unicode = 91;
}
{
glyphname = asciicircum;
kernLeft = asterisk;
kernRight = asterisk;
layers = (
{
layerId = m002;
shapes = (
{
closed = 1;
nodes = (
(105,487,l),
(197,682,l),
(185,682,l),
(260,487,l),
(315,487,l),
(209,750,l),
(174,750,l),
(49,487,l)
);
}
);
width = 364;
}
);
metricLeft = asterisk;
metricRight = "=|";
unicode = 94;
}
{
glyphname = m;
kernLeft = n;
kernRight = n;
layers = (
{
anchors = (
{
name = bottom;
pos = (460,0);
},
{
name = top;
pos = (460,545);
}
);
background = {
shapes = (
{
pos = (1,0);
ref = n;
},
{
pos = (324,0);
ref = n;
}
);
};
layerId = m002;
shapes = (
{
closed = 1;
nodes = (
(841,0,l),
(841,344,ls),
(841,468,o),
(775,555,o),
(655,555,cs),
(579,555,o),
(529,520,o),
(482,462,c),
(470,462,l),
(473,332,l),
(504,351,l),
(518,437,o),
(571,479,o),
(640,479,cs),
(709,479,o),
(756,436,o),
(756,335,cs),
(756,0,l)
);
},
{
closed = 1;
nodes = (
(167,0,l),
(167,466,l),
(147,545,l),
(82,545,l),
(82,0,l)
);
},
{
closed = 1;
nodes = (
(504,0,l),
(504,414,l),
(492,414,l),
(478,510,o),
(403,555,o),
(330,555,cs),
(249,555,o),
(210,523,o),
(170,468,c),
(157,468,l),
(159,332,l),
(167,332,l),
(182,412,o),
(226,479,o),
(306,479,cs),
(385,479,o),
(420,423,o),
(420,339,cs),
(420,0,l)
);
}
);
width = 921;
}
);
metricLeft = n;
metricRight = n;
unicode = 109;
}
{
glyphname = w;
kernLeft = w;
kernRight = w;
layers = (
{
anchors = (
{
name = bottom;
pos = (393,0);
},
{
name = top;
pos = (393,545);
}
);
background = {
shapes = (
{
pos = (19,0);
ref = v;
}
);
};
layerId = m002;
shapes = (
{
closed = 1;
nodes = (
(286,0,l),
(375,395,ls),
(386,442,o),
(388,469,o),
(388,484,c),
(387,484,l),
(387,469,o),
(389,444,o),
(400,399,cs),
(497,0,l),
(608,0,l),
(757,545,l),
(670,545,l),
(562,127,ls),
(553,91,o),
(550,75,o),
(550,41,c),
(552,41,l),
(552,75,o),
(549,91,o),
(538,135,cs),
(440,545,l),
(340,545,l),
(243,127,ls),
(234,88,o),
(233,67,o),
(231,44,c),
(233,44,l),
(235,66,o),
(234,87,o),
(224,125,cs),
(117,545,l),
(28,545,l),
(177,0,l)
);
}
);
width = 785;
},
{
anchors = (
{
name = ytail;
pos = (247,0);
}
);
associatedMasterId = m002;
background = {
shapes = (
{
pos = (13,0);
ref = v;
}
);
};
layerId = "A6EF8466-A5DF-4476-B0D7-781E5FD3A627";
name = "24 Apr 23 14.52";
shapes = (
{
closed = 1;
nodes = (
(279,0,l),
(403,522,l),
(373,510,l),
(495,0,l),
(604,0,l),
(748,545,l),
(654,545,l),
(534,38,l),
(558,45,l),
(441,545,l),
(339,545,l),
(225,52,l),
(241,54,l),
(127,545,l),
(33,545,l),
(172,0,l)
);
}
);
width = 781;
},
{
anchors = (
{
name = bottom;
pos = (388,0);
},
{
name = top;
pos = (388,545);
}
);
associatedMasterId = m002;
background = {
shapes = (
{
pos = (14,0);
ref = v;
}
);
};
layerId = "23C9D163-4205-4234-8137-C910B7E44DBD";
name = "29 Jun 23 15.28";
shapes = (
{
closed = 1;
nodes = (
(281,0,l),
(397,515,l),
(366,515,l),
(492,0,l),
(603,0,l),
(752,545,l),
(665,545,l),
(541,62,l),
(551,64,l),
(435,545,l),
(335,545,l),
(223,62,l),
(235,64,l),
(112,545,l),
(23,545,l),
(172,0,l)
);
}
);
width = 775;
}
);
metricRight = "=|";
unicode = 119;
}
{
glyphname = y;
kernLeft = v;
kernRight = v;
layers = (
{
anchors = (
{
name = bottom;
pos = (243,0);
},
{
name = top;
pos = (253,545);
}
);
background = {
shapes = (
{
closed = 1;
nodes = (
(4,-156,l),
(23,-169,o),
(44,-178,o),
(71,-178,cs),
(136,-178,o),
(163,-124,o),
(163,-55,c),
(171,-45,l),
(171,168,ls),
(171,262,o),
(213,316,o),
(315,316,cs),
(378,316,o),
(432,296,o),
(504,252,c),
(464,258,l),
(511,373,l),
(522,318,l),
(462,361,o),
(375,387,o),
(300,387,cs),
(159,387,o),
(95,305,o),
(95,170,cs),
(95,-41,ls),
(95,-114,o),
(69,-138,o),
(8,-103,c),
(58,-45,l),
(11,-201,l)
);
},
{
closed = 1;
nodes = (
(441,-178,o),
(519,-112,o),
(519,-13,cs),
(519,92,o),
(431,152,o),
(308,152,cs),
(255,152,o),
(209,141,o),
(175,129,c),
(155,129,l),
(155,65,l),
(190,84,o),
(247,94,o),
(293,94,cs),
(370,94,o),
(433,66,o),
(433,-12,cs),
(433,-73,o),
(394,-116,o),
(326,-116,cs),
(228,-116,o),
(171,-25,o),
(171,54,c),
(157,54,l),
(157,-76,l),
(166,-76,l),
(194,-137,o),
(261,-178,o),
(340,-178,cs)
);
}
);
};
layerId = m002;
shapes = (
{
closed = 1;
nodes = (
(194,-215,o),
(242,-143,o),
(280,-35,cs),
(484,545,l),
(391,545,l),
(268,160,ls),
(259,133,o),
(257,115,o),
(252,85,c),
(254,85,l),
(252,114,o),
(248,134,o),
(241,155,cs),
(109,545,l),
(15,545,l),
(217,-12,l),
(216,7,l),
(198,-35,ls),
(161,-121,o),
(135,-139,o),
(94,-139,cs),
(66,-139,o),
(46,-131,o),
(20,-115,c),
(39,-114,l),
(-8,-201,l),
(-7,-183,l),
(14,-200,o),
(51,-215,o),
(96,-215,cs)
);
}
);
width = 501;
},
{
anchors = (
{
name = bottom;
pos = (266,0);
},
{
name = top;
pos = (266,545);
}
);
associatedMasterId = m002;
background = {
shapes = (
{
closed = 1;
nodes = (
(104,-186,o),
(87,-184,o),
(68,-178,c),
(49,-173,o),
(33,-168,o),
(20,-161,c),
(41,-60,l),
(42,-60,o),
(44,-60,o),
(45,-61,c),
(46,-61,o),
(48,-61,o),
(49,-61,c),
(63,-65,o),
(77,-66,o),
(91,-66,c),
(111,-66,o),
(128,-63,o),
(140,-57,c),
(153,-50,o),
(163,-40,o),
(171,-25,c),
(180,-10,o),
(188,10,o),
(196,37,c),
(206,73,l),
(324,73,l),
(315,1,l),
(300,-33,l),
(297,-38,o),
(294,-43,o),
(292,-47,c),
(290,-52,o),
(288,-57,o),
(286,-61,c),
(272,-94,o),
(257,-118,o),
(243,-136,c),
(228,-153,o),
(211,-166,o),
(192,-174,c),
(172,-182,o),
(148,-186,o),
(120,-186,c)
);
},
{
closed = 1;
nodes = (
(195,1,l),
(-34,545,l),
(107,545,l),
(269,158,l),
(249,158,l),
(398,545,l),
(541,545,l),
(315,1,l)
);
}
);
};
layerId = "F25B5A0C-A1E5-4414-83E0-D12FD5266CE2";
name = "28 Oct 22 12.01";
shapes = (
{
closed = 1;
nodes = (
(221,-186,o),
(266,-134,o),
(320,0,cs),
(541,545,l),
(388,545,l),
(253,144,l),
(270,144,l),
(120,545,l),
(-33,545,l),
(195,0,l),
(233,0,l),
(195,37,l),
(201,-49,o),
(144,-67,o),
(106,-67,cs),
(58,-67,o),
(17,-50,o),
(-7,-39,c),
(52,-20,l),
(13,-197,l),
(-15,-146,l),
(23,-166,o),
(79,-186,o),
(125,-186,cs)
);
}
);
width = 508;
},
{
anchors = (
{
name = bottom;
pos = (250,0);
},
{
name = top;
pos = (250,545);
}
);
associatedMasterId = m002;
background = {
shapes = (
{
closed = 1;
nodes = (
(11,-156,l),
(30,-169,o),
(51,-178,o),
(78,-178,cs),
(143,-178,o),
(170,-124,o),
(170,-55,c),
(178,-45,l),
(178,168,ls),
(178,262,o),
(220,316,o),
(322,316,cs),
(385,316,o),
(439,296,o),
(511,252,c),
(471,258,l),
(518,373,l),
(529,318,l),
(469,361,o),
(382,387,o),
(307,387,cs),
(166,387,o),
(102,305,o),
(102,170,cs),
(102,-41,ls),
(102,-114,o),
(76,-138,o),
(15,-103,c),
(65,-45,l),
(18,-201,l)
);
},
{
closed = 1;
nodes = (
(448,-178,o),
(526,-112,o),
(526,-13,cs),
(526,92,o),
(438,152,o),
(315,152,cs),
(262,152,o),
(216,141,o),
(182,129,c),
(162,129,l),
(162,65,l),
(197,84,o),
(254,94,o),
(300,94,cs),
(377,94,o),
(440,66,o),
(440,-12,cs),
(440,-73,o),
(401,-116,o),
(333,-116,cs),
(235,-116,o),
(178,-25,o),
(178,54,c),
(164,54,l),
(164,-76,l),
(173,-76,l),
(201,-137,o),
(268,-178,o),
(347,-178,cs)
);
}
);
};
layerId = "23BC9F99-0456-4EAE-868D-B303FD8BE745";
name = "29 Jun 23 14.35";
shapes = (
{
closed = 1;
nodes = (
(194,-215,o),
(241,-145,o),
(280,-35,cs),
(484,545,l),
(391,545,l),
(236,62,l),
(272,64,l),
(109,545,l),
(15,545,l),
(217,-12,l),
(216,7,l),
(198,-35,ls),
(161,-122,o),
(139,-139,o),
(93,-139,cs),
(68,-139,o),
(46,-131,o),
(20,-117,c),
(39,-114,l),
(-8,-201,l),
(-6,-185,l),
(14,-201,o),
(52,-215,o),
(95,-215,cs)
);
}
);
width = 499;
}
);
metricRight = v;
unicode = 121;
}
{
glyphname = bar;
kernLeft = H;
kernRight = H;
layers = (
{
layerId = m002;
shapes = (
{
closed = 1;
nodes = (
(164,-205,l),
(164,750,l),
(92,750,l),
(92,-205,l)
);
}
);
width = 256;
}
);
metricLeft = H;
metricRight = H;
unicode = 124;
}
{
glyphname = braceright;
kernLeft = parenright;
kernRight = parenright;
layers = (
{
layerId = m002;
shapes = (
{
closed = 1;
nodes = (
(182,-205,o),
(246,-154,o),
(246,-25,cs),
(246,170,ls),
(246,226,o),
(264,244,o),
(314,253,c),
(314,302,l),
(264,311,o),
(246,328,o),
(246,384,cs),
(246,520,ls),
(246,649,o),
(182,700,o),
(49,700,c),
(49,640,l),
(120,635,o),
(174,625,o),
(174,532,cs),
(174,404,ls),
(174,344,o),
(189,293,o),
(225,278,c),
(225,277,l),
(189,263,o),
(174,229,o),
(174,161,cs),
(174,-27,ls),
(174,-120,o),
(120,-140,o),
(49,-145,c),
(49,-205,l)
);
}
);
width = 388;
}
);
metricLeft = "=|braceleft";
metricRight = "=|braceleft";
unicode = 125;
}
{
glyphname = exclamdown;
kernLeft = colon;
kernRight = colon;
layers = (
{
layerId = m002;
shapes = (
{
closed = 1;
nodes = (
(206,-155,l),
(186,390,l),
(118,390,l),
(98,-155,l)
);
},
{
closed = 1;
nodes = (
(201,454,l),
(201,545,l),
(103,545,l),
(103,454,l)
);
}
);
width = 304;
}
);
metricRight = "=|";
unicode = 161;
}
{
glyphname = logicalnot;
layers = (
{
layerId = m002;
shapes = (
{
closed = 1;
nodes = (
(397,355,l),
(369,384,l),
(369,265,l),
(434,265,l),
(434,420,l),
(75,420,l),
(75,355,l)
);
}
);
width = 509;
}
);
metricLeft = minus;
metricRight = minus;
unicode = 172;
}
{
glyphname = registered;
kernLeft = asterisk;
kernRight = asterisk;
layers = (
{
layerId = m002;
shapes = (
{
closed = 1;
nodes = (
(345,313,o),
(435,392,o),
(435,513,cs),
(435,630,o),
(351,710,o),
(237,710,cs),
(122,710,o),
(37,629,o),
(37,511,cs),
(37,392,o),
(125,313,o),
(235,313,cs)
);
},
{
closed = 1;
nodes = (
(148,356,o),
(84,419,o),
(84,512,cs),
(84,602,o),
(146,667,o),
(236,667,cs),
(326,667,o),
(388,604,o),
(388,511,cs),
(388,419,o),
(326,356,o),
(237,356,cs)
);
},
{
closed = 1;
nodes = (
(273,405,l),
(329,405,l),
(327,399,l),
(274,502,l),
(265,493,l),
(296,499,o),
(313,525,o),
(313,558,cs),
(313,600,o),
(284,623,o),
(247,623,cs),
(164,623,l),
(164,405,l),
(201,405,l),
(201,503,l),
(199,493,l),
(234,493,ls),
(238,493,o),
(240,492,o),
(241,490,cs),
(290,392,l)
);
},
{
closed = 1;
nodes = (
(201,602,l),
(194,590,l),
(244,590,ls),
(268,590,o),
(276,579,o),
(276,558,cs),
(276,536,o),
(266,526,o),
(242,526,cs),
(195,526,l),
(201,516,l)
);
}
);
width = 472;
}
);
metricRight = "=|";
unicode = 174;
}
{
glyphname = threesuperior;
layers = (
{
background = {
shapes = (
{
pos = (-61,0);
ref = two;
}
);
};
layerId = m002;
shapes = (
{
closed = 1;
nodes = (
(196,522,o),
(238,559,o),
(238,617,cs),
(238,658,o),
(217,686,o),
(179,697,c),
(179,698,l),
(208,709,o),
(227,734,o),
(227,767,cs),
(227,817,o),
(185,846,o),
(126,846,cs),
(53,846,o),
(10,803,o),
(17,737,c),
(10,747,l),
(82,745,l),
(73,741,l),
(68,780,o),
(93,798,o),
(125,798,cs),
(158,798,o),
(173,779,o),
(173,757,cs),
(173,729,o),
(147,714,o),
(107,714,cs),
(90,714,l),
(90,670,l),
(111,670,ls),
(160,670,o),
(184,651,o),
(184,619,cs),
(184,588,o),
(163,569,o),
(125,569,cs),
(90,569,o),
(62,586,o),
(67,626,c),
(77,622,l),
(4,620,l),
(10,631,l),
(3,560,o),
(48,522,o),
(123,522,cs)
);
}
);
userData = {
RMXScaler = {
height = 45;
verticalShift = 526;
weight = -27;
width = 47;
};
};
width = 256;
},
{
associatedMasterId = m002;
background = {
shapes = (
{
pos = (-73,0);
ref = two;
}
);
};
layerId = "3FF2F475-1D40-4F0F-872E-9E762A718D8D";
name = "16 Jun 23 13.37";
shapes = (
{
closed = 1;
nodes = (
(180,68,o),
(112,88,o),
(47,145,c),
(84,161,l),
(18,26,l),
(16,77,l),
(72,21,o),
(138,-10,o),
(225,-10,cs),
(364,-10,o),
(457,70,o),
(457,192,cs),
(457,276,o),
(414,343,o),
(330,362,c),
(330,365,l),
(391,386,o),
(440,456,o),
(440,534,cs),
(440,640,o),
(348,710,o),
(235,710,cs),
(160,710,o),
(89,679,o),
(31,623,c),
(35,674,l),
(97,539,l),
(60,555,l),
(102,596,o),
(157,632,o),
(229,632,cs),
(304,632,o),
(361,592,o),
(361,528,cs),
(361,452,o),
(281,395,o),
(204,395,cs),
(137,395,l),
(136,325,l),
(207,325,ls),
(304,325,o),
(381,275,o),
(381,191,cs),
(381,108,o),
(308,68,o),
(233,68,cs)
);
}
);
width = 510;
},
{
associatedMasterId = m002;
background = {
shapes = (
{
pos = (-73,0);
ref = two;
}
);
};
layerId = "C6419FBE-14AA-4D28-BA0B-02DD71C21405";
name = "16 Jun 23 13.45";
shapes = (
{
closed = 1;
nodes = (
(378,-10,o),
(457,68,o),
(457,192,cs),
(457,277,o),
(406,344,o),
(311,362,c),
(311,365,l),
(381,384,o),
(437,446,o),
(437,532,cs),
(437,652,o),
(343,710,o),
(242,710,cs),
(160,710,o),
(93,683,o),
(30,626,c),
(34,653,l),
(93,561,l),
(68,561,l),
(114,604,o),
(169,633,o),
(237,631,cs),
(303,629,o),
(354,591,o),
(354,523,cs),
(354,435,o),
(281,396,o),
(174,396,cs),
(137,396,l),
(136,324,l),
(178,324,ls),
(304,324,o),
(371,275,o),
(371,191,cs),
(371,100,o),
(305,69,o),
(242,69,cs),
(174,69,o),
(129,88,o),
(61,134,c),
(74,138,l),
(20,45,l),
(17,64,l),
(91,14,o),
(161,-10,o),
(238,-10,cs)
);
}
);
width = 510;
}
);
unicode = 179;
userData = {
RMXScaler = {
source = three;
};
};
}
{
glyphname = paragraph;
layers = (
{
layerId = m002;
shapes = (
{
closed = 1;
nodes = (
(305,-205,l),
(305,652,l),
(295,640,l),
(386,640,l),
(375,651,l),
(375,-205,l),
(445,-205,l),
(445,650,l),
(435,640,l),
(494,640,l),
(494,700,l),
(235,700,l),
(207,700,ls),
(106,700,o),
(30,618,o),
(30,518,cs),
(30,417,o),
(106,335,o),
(207,335,cs),
(260,335,l),
(235,360,l),
(235,-205,l)
);
}
);
width = 511;
}
);
metricLeft = "=|P";
metricRight = T;
unicode = 182;
}
{
glyphname = onesuperior;
layers = (
{
background = {
shapes = (
{
pos = (-30,0);
ref = two;
}
);
};
layerId = m002;
shapes = (
{
closed = 1;
nodes = (
(136,526,l),
(136,841,l),
(84,841,l),
(1,784,l),
(3,796,l),
(34,744,l),
(20,750,l),
(101,787,l),
(83,811,l),
(83,526,l)
);
}
);
userData = {
RMXScaler = {
height = 45;
verticalShift = 526;
weight = -27;
width = 47;
};
};
width = 188;
}
);
unicode = 185;
userData = {
RMXScaler = {
source = one;
};
};
}
{
glyphname = questiondown;
kernLeft = questiondown;
kernRight = questiondown;
layers = (
{
layerId = m002;
shapes = (
{
closed = 1;
nodes = (
(374,-165,o),
(468,-81,o),
(455,65,c),
(467,44,l),
(353,48,l),
(369,59,l),
(375,-42,o),
(316,-91,o),
(233,-91,cs),
(144,-91,o),
(112,-35,o),
(112,28,cs),
(112,153,o),
(295,205,o),
(295,347,cs),
(295,390,l),
(217,390,l),
(217,349,ls),
(217,237,o),
(26,182,o),
(26,28,cs),
(26,-95,o),
(109,-165,o),
(235,-165,cs)
);
},
{
closed = 1;
nodes = (
(305,454,l),
(305,545,l),
(207,545,l),
(207,454,l)
);
}
);
width = 466;
}
);
unicode = 191;
}
{
glyphname = AE;
kernLeft = AE;
kernRight = E;
layers = (
{
layerId = m002;
shapes = (
{
closed = 1;
nodes = (
(91,0,l),
(378,633,ls),
(387,654,o),
(393,668,o),
(394,684,c),
(404,700,l),
(330,700,l),
(2,0,l)
);
},
{
closed = 1;
nodes = (
(446,187,l),
(446,262,l),
(169,262,l),
(149,187,l)
);
},
{
closed = 1;
nodes = (
(795,0,l),
(795,78,l),
(442,78,l),
(442,0,l)
);
},
{
closed = 1;
nodes = (
(472,0,l),
(472,700,l),
(385,700,l),
(385,0,l)
);
},
{
closed = 1;
nodes = (
(771,323,l),
(771,399,l),
(443,399,l),
(443,323,l)
);
},
{
closed = 1;
nodes = (
(790,622,l),
(790,700,l),
(442,700,l),
(442,622,l)
);
}
);
width = 856;
}
);
metricRight = E;
unicode = 198;
}
{
glyphname = ae;
kernLeft = a;
kernRight = e;
layers = (
{
layerId = m002;
shapes = (
{
closed = 1;
nodes = (
(295,-10,o),
(395,32,o),
(421,173,c),
(398,170,l),
(433,48,o),
(525,-10,o),
(630,-10,cs),
(758,-10,o),
(836,75,o),
(849,177,c),
(863,153,l),
(747,159,l),
(766,177,l),
(753,90,o),
(689,66,o),
(628,66,cs),
(517,66,o),
(460,146,o),
(460,257,c),
(447,250,l),
(872,250,l),
(850,227,l),
(877,439,o),
(773,555,o),
(627,555,cs),
(528,555,o),
(453,501,o),
(413,411,c),
(432,416,l),
(406,511,o),
(338,555,o),
(244,555,cs),
(97,555,o),
(31,448,o),
(52,350,c),
(13,382,l),
(180,377,l),
(136,349,l),
(118,441,o),
(166,479,o),
(245,479,cs),
(327,479,o),
(374,438,o),
(374,341,cs),
(374,233,l),
(368,111,o),
(293,63,o),
(224,63,cs),
(170,63,o),
(129,94,o),
(129,155,cs),
(129,229,o),
(190,260,o),
(259,260,cs),
(303,260,o),
(350,247,o),
(387,229,c),
(400,286,l),
(347,312,o),
(292,324,o),
(243,324,cs),
(130,324,o),
(42,261,o),
(42,152,cs),
(42,53,o),
(114,-10,o),
(214,-10,cs)
);
},
{
closed = 1;
nodes = (
(460,416,o),
(526,481,o),
(623,481,cs),
(717,481,o),
(776,421,o),
(772,287,c),
(792,318,l),
(455,318,l),
(462,284,l)
);
}
);
width = 902;
},
{
associatedMasterId = m002;
layerId = "594256B5-2BBE-40CB-8D73-18575E3D61E6";
name = "27 Jul 23 11.59";
shapes = (
{
closed = 1;
nodes = (
(297,-10,o),
(398,34,o),
(423,173,c),
(400,170,l),
(432,54,o),
(525,-10,o),
(643,-10,cs),
(724,-10,o),
(787,20,o),
(839,76,c),
(828,41,l),
(767,137,l),
(807,144,l),
(752,91,o),
(705,63,o),
(643,63,cs),
(532,63,o),
(462,146,o),
(462,257,c),
(449,252,l),
(874,252,l),
(831,205,l),
(855,446,o),
(769,555,o),
(620,555,cs),
(524,555,o),
(453,497,o),
(415,416,c),
(434,416,l),
(411,504,o),
(344,555,o),
(246,555,cs),
(178,555,o),
(120,538,o),
(55,501,c),
(55,514,l),
(95,428,l),
(82,434,l),
(130,462,o),
(171,479,o),
(231,479,cs),
(317,479,o),
(376,434,o),
(376,336,cs),
(376,233,l),
(370,111,o),
(295,63,o),
(226,63,cs),
(172,63,o),
(131,94,o),
(131,156,cs),
(131,228,o),
(191,255,o),
(258,255,cs),
(306,255,o),
(352,242,o),
(389,224,c),
(402,286,l),
(349,312,o),
(294,324,o),
(244,324,cs),
(132,324,o),
(44,260,o),
(44,153,cs),
(44,53,o),
(114,-10,o),
(220,-10,cs)
);
},
{
closed = 1;
nodes = (
(462,416,o),
(523,481,o),
(617,481,cs),
(707,481,o),
(761,417,o),
(753,287,c),
(778,320,l),
(457,320,l),
(464,284,l)
);
}
);
width = 873;
}
);
metricLeft = a;
metricRight = e;
unicode = 230;
}
{
glyphname = nhookretroflex;
kernLeft = n;
kernRight = n;
layers = (
{
layerId = m002;
shapes = (
{
closed = 1;
nodes = (
(630,-215,o),
(667,-200,o),
(696,-179,c),
(696,-195,l),
(651,-108,l),
(670,-109,l),
(645,-128,o),
(617,-139,o),
(590,-139,cs),
(539,-139,o),
(518,-101,o),
(518,-38,cs),
(518,7,l),
(432,7,l),
(432,-50,ls),
(432,-147,o),
(485,-215,o),
(583,-215,cs)
);
},
{
ref = n;
}
);
width = 598;
}
);
metricLeft = n;
unicode = 627;
}
{
glyphname = shook;
kernLeft = j;
kernRight = s;
layers = (
{
layerId = m002;
shapes = (
{
pos = (53,0);
ref = s;
},
{
closed = 1;
nodes = (
(118,-215,o),
(161,-145,o),
(161,-47,cs),
(161,164,l),
(85,164,l),
(85,-38,ls),
(85,-101,o),
(64,-139,o),
(13,-139,cs),
(-14,-139,o),
(-42,-128,o),
(-67,-109,c),
(-48,-108,l),
(-93,-195,l),
(-93,-179,l),
(-64,-200,o),
(-27,-215,o),
(20,-215,cs)
);
}
);
width = 549;
}
);
metricRight = s;
unicode = 642;
}
{
glyphname = jsuperior;
layers = (
{
anchors = (
{
name = bottom;
pos = (88,200);
},
{
name = top;
pos = (80,830);
}
);
background = {
shapes = (
{
angle = 180;
pos = (249,500);
ref = f;
}
);
};
layerId = m002;
shapes = (
{
closed = 1;
nodes = (
(75,222,o),
(107,265,o),
(107,326,cs),
(107,700,l),
(52,700,l),
(52,333,ls),
(52,294,o),
(39,270,o),
(8,270,cs),
(-8,270,o),
(-26,277,o),
(-41,289,c),
(-30,290,l),
(-58,234,l),
(-58,244,l),
(-38,230,o),
(-14,222,o),
(13,222,cs)
);
},
{
closed = 1;
nodes = (
(110,773,l),
(110,830,l),
(49,830,l),
(49,773,l)
);
}
);
userData = {
RMXScaler = {
height = 63;
verticalShift = 357;
weight = -27;
width = 62;
};
};
width = 152;
}
);
subCategory = "";
unicode = 690;
userData = {
RMXScaler = {
source = j;
};
};
}
{
glyphname = brevecomb;
layers = (
{
anchors = (
{
name = _top;
pos = (166,545);
},
{
name = top;
pos = (166,750);
}
);
layerId = m002;
shapes = (
{
closed = 1;
nodes = (
(260,627,o),
(315,693,o),
(312,770,c),
(268,770,l),
(259,717,o),
(222,685,o),
(166,685,cs),
(116,685,o),
(74,714,o),
(69,770,c),
(24,770,l),
(20,696,o),
(71,627,o),
(166,627,cs)
);
}
);
width = 336;
}
);
metricRight = "=|";
unicode = 774;
}
{
glyphname = caroncomb;
layers = (
{
anchors = (
{
name = _top;
pos = (198,545);
},
{
name = top;
pos = (198,783);
}
);
layerId = m002;
shapes = (
{
closed = 1;
nodes = (
(226,636,l),
(334,796,l),
(339,783,l),
(242,783,l),
(260,794,l),
(181,691,l),
(208,691,l),
(132,794,l),
(160,783,l),
(44,783,l),
(48,809,l),
(164,636,l)
);
}
);
width = 390;
}
);
metricLeft = circumflexcomb;
metricRight = circumflexcomb;
unicode = 780;
}
{
glyphname = cedillacomb;
layers = (
{
anchors = (
{
name = _bottom;
pos = (154,0);
},
{
name = bottom;
pos = (144,-215);
}
);
layerId = m002;
shapes = (
{
closed = 1;
nodes = (
(179,-215,o),
(222,-178,o),
(222,-122,cs),
(222,-53,o),
(170,-32,o),
(136,-28,c),
(138,-51,l),
(169,8,l),
(119,8,l),
(83,-68,l),
(79,-51,l),
(129,-56,o),
(162,-71,o),
(162,-107,cs),
(162,-139,o),
(141,-152,o),
(115,-152,cs),
(93,-152,o),
(73,-144,o),
(47,-130,c),
(66,-114,l),
(21,-201,l),
(21,-185,l),
(41,-201,o),
(80,-215,o),
(116,-215,cs)
);
}
);
width = 255;
}
);
unicode = 807;
}
{
glyphname = baht;
kernLeft = H;
kernRight = B;
layers = (
{
anchors = (
{
name = bar_ver;
pos = (286,359);
}
);
layerId = m002;
shapes = (
{
closed = 1;
nodes = (
(350,0,ls),
(508,0,o),
(572,92,o),
(572,200,cs),
(572,298,o),
(519,354,o),
(446,373,c),
(446,376,l),
(497,399,o),
(533,448,o),
(533,522,cs),
(533,636,o),
(450,700,o),
(330,700,cs),
(92,700,l),
(92,0,l)
);
},
{
closed = 1;
nodes = (
(179,346,l),
(158,328,l),
(337,328,ls),
(438,328,o),
(485,288,o),
(485,203,cs),
(485,120,o),
(441,76,o),
(327,76,cs),
(141,76,l),
(179,38,l)
);
},
{
closed = 1;
nodes = (
(179,662,l),
(141,624,l),
(320,624,ls),
(404,624,o),
(447,591,o),
(447,517,cs),
(447,442,o),
(402,400,o),
(314,400,cs),
(154,400,l),
(179,378,l)
);
},
{
closed = 1;
nodes = (
(318,-90,l),
(318,790,l),
(254,790,l),
(254,-90,l)
);
}
);
width = 618;
},
{
anchors = (
{
name = bar_ver;
pos = (286,359);
}
);
associatedMasterId = m002;
attr = {
axisRules = (
);
};
layerId = "08F0F173-81CF-45FC-A96E-288475325E54";
name = "17 Jul 23 13.59";
shapes = (
{
closed = 1;
nodes = (
(350,0,ls),
(508,0,o),
(572,92,o),
(572,200,cs),
(572,298,o),
(519,354,o),
(446,373,c),
(446,376,l),
(497,399,o),
(533,448,o),
(533,522,cs),
(533,636,o),
(450,700,o),
(330,700,cs),
(92,700,l),
(92,0,l)
);
},
{
closed = 1;
nodes = (
(318,-90,l),
(318,22,l),
(254,22,l),
(254,-90,l)
);
},
{
closed = 1;
nodes = (
(179,346,l),
(158,328,l),
(337,328,ls),
(438,328,o),
(485,288,o),
(485,203,cs),
(485,120,o),
(441,76,o),
(327,76,cs),
(141,76,l),
(179,38,l)
);
},
{
closed = 1;
nodes = (
(179,662,l),
(141,624,l),
(320,624,ls),
(404,624,o),
(447,591,o),
(447,517,cs),
(447,442,o),
(402,400,o),
(314,400,cs),
(154,400,l),
(179,378,l)
);
},
{
closed = 1;
nodes = (
(318,666,l),
(318,790,l),
(254,790,l),
(254,666,l)
);
}
);
width = 618;
}
);
metricLeft = H;
metricRight = B;
unicode = 3647;
}
{
glyphname = "cecek-bali";
layers = (
{
anchors = (
{
name = _top;
pos = (268,630);
}
);
layerId = m002;
name = Regular;
shapes = (
{
closed = 1;
nodes = (
(209,642,l),
(285,651,l),
(275,636,l),
(269,726,o),
(245,845,o),
(217,915,cs),
(197,965,o),
(177,977,o),
(159,977,cs),
(131,977,o),
(92,947,o),
(51,892,c),
(52,914,l),
(93,864,l),
(84,867,l),
(105,883,o),
(120,893,o),
(131,893,cs),
(140,893,o),
(149,890,o),
(165,858,cs),
(195,795,o),
(208,725,o),
(226,630,c)
);
}
);
width = 334;
},
{
associatedMasterId = m002;
layerId = "94B9321B-D937-47A3-B371-FA55FD4EB702";
name = "31 May 23 10.59";
shapes = (
{
closed = 1;
nodes = (
(230,661,l),
(302,670,l),
(292,655,l),
(280,835,o),
(277,996,o),
(167,996,cs),
(123,996,o),
(84,963,o),
(52,902,c),
(59,931,l),
(109,885,l),
(86,873,l),
(106,901,o),
(127,913,o),
(145,913,cs),
(205,913,o),
(216,806,o),
(239,649,c)
);
}
);
width = 386;
},
{
associatedMasterId = m002;
layerId = "077E5E36-C1B1-4C6F-B6F9-713530798ABA";
name = Regular;
shapes = (
{
closed = 1;
nodes = (
(230,661,l),
(302,670,l),
(292,655,l),
(280,835,o),
(277,996,o),
(167,996,cs),
(123,996,o),
(84,963,o),
(52,902,c),
(59,931,l),
(109,885,l),
(86,873,l),
(106,901,o),
(127,913,o),
(145,913,cs),
(205,913,o),
(216,806,o),
(239,649,c)
);
}
);
width = 386;
},
{
anchors = (
{
name = _top;
pos = (-602,630);
}
);
associatedMasterId = m002;
layerId = m003;
name = Bold;
shapes = (
{
alignment = -1;
ref = _Cecek_komponen;
}
);
width = 70;
},
{
associatedMasterId = m002;
layerId = "E684E313-36D9-48FA-AFC4-741ECAAB8163";
name = Bold;
shapes = (
{
closed = 1;
nodes = (
(230,661,l),
(302,670,l),
(292,655,l),
(280,835,o),
(277,996,o),
(167,996,cs),
(123,996,o),
(84,963,o),
(52,902,c),
(59,931,l),
(109,885,l),
(86,873,l),
(106,901,o),
(127,913,o),
(145,913,cs),
(205,913,o),
(216,806,o),
(239,649,c)
);
}
);
width = 386;
}
);
unicode = 6914;
}
{
glyphname = "bisah-bali";
layers = (
{
background = {
shapes = (
{
pos = (20,0);
ref = "ha-bali";
}
);
};
layerId = m002;
name = Regular;
shapes = (
{
closed = 1;
nodes = (
(189,-777,l),
(273,-746,l),
(278,-782,l),
(223,-648,o),
(189,-546,o),
(189,-459,cs),
(189,-282,o),
(331,-150,o),
(331,30,cs),
(331,122,o),
(294,207,o),
(197,240,c),
(197,242,l),
(273,253,o),
(334,308,o),
(334,399,cs),
(334,496,o),
(265,555,o),
(167,555,cs),
(79,555,o),
(20,507,o),
(20,422,cs),
(20,393,o),
(27,362,o),
(48,323,c),
(20,340,l),
(112,368,l),
(104,336,l),
(91,368,o),
(86,389,o),
(86,412,cs),
(86,463,o),
(112,490,o),
(165,490,cs),
(234,490,o),
(262,443,o),
(262,393,cs),
(262,300,o),
(165,270,o),
(68,274,c),
(108,316,l),
(99,182,l),
(65,218,l),
(192,220,o),
(258,139,o),
(258,39,cs),
(258,-106,o),
(118,-254,o),
(118,-454,cs),
(118,-551,o),
(151,-650,o),
(208,-788,c)
);
}
);
width = 390;
},
{
associatedMasterId = m002;
background = {
shapes = (
{
pos = (30,0);
ref = "ha-bali";
}
);
};
layerId = m003;
name = Bold;
shapes = (
{
closed = 1;
nodes = (
(199,-777,l),
(283,-746,l),
(277,-782,l),
(232,-661,o),
(195,-546,o),
(195,-463,cs),
(195,-285,o),
(341,-154,o),
(341,35,cs),
(341,121,o),
(299,203,o),
(219,240,c),
(219,242,l),
(285,264,o),
(344,308,o),
(344,403,cs),
(344,494,o),
(274,555,o),
(185,555,cs),
(108,555,o),
(55,506,o),
(55,425,cs),
(55,392,o),
(62,362,o),
(81,323,c),
(68,328,l),
(138,347,l),
(130,336,l),
(122,368,o),
(117,391,o),
(117,419,cs),
(117,462,o),
(143,490,o),
(185,490,cs),
(242,490,o),
(272,443,o),
(272,391,cs),
(272,300,o),
(181,280,o),
(78,265,c),
(118,316,l),
(109,182,l),
(75,218,l),
(202,210,o),
(268,138,o),
(268,41,cs),
(268,-110,o),
(128,-248,o),
(128,-458,cs),
(128,-551,o),
(164,-658,o),
(218,-788,c)
);
}
);
width = 400;
}
);
unicode = 6916;
}
{
glyphname = "ga-bali";
layers = (
{
anchors = (
{
name = bottom;
pos = (1183,0);
},
{
name = top;
pos = (606,650);
}
);
layerId = m002;
name = Regular;
shapes = (
{
closed = 1;
nodes = (
(443,-10,ls),
(483,-10,o),
(494,1,o),
(494,14,cs),
(494,29,o),
(480,46,o),
(469,61,cs),
(435,107,o),
(387,172,o),
(387,276,cs),
(387,423,o),
(482,479,o),
(603,479,cs),
(730,479,o),
(826,418,o),
(826,265,cs),
(826,190,o),
(802,124,o),
(768,51,cs),
(760,33,o),
(756,27,o),
(756,17,cs),
(756,-2,o),
(771,-10,o),
(807,-10,cs),
(930,-10,o),
(1024,84,o),
(1024,200,cs),
(1024,502,l),
(1017,482,l),
(1085,484,o),
(1107,447,o),
(1107,372,cs),
(1107,0,l),
(1183,0,l),
(1183,376,ls),
(1183,498,o),
(1138,550,o),
(1015,550,cs),
(1005,550,l),
(956,507,l),
(956,225,ls),
(956,108,o),
(892,61,o),
(808,50,c),
(821,36,l),
(869,112,o),
(900,182,o),
(900,275,cs),
(900,465,o),
(769,555,o),
(606,555,cs),
(433,555,o),
(313,452,o),
(313,276,cs),
(313,200,o),
(335,135,o),
(406,47,c),
(435,60,l),
(390,62,ls),
(300,66,o),
(251,96,o),
(251,179,cs),
(251,260,o),
(284,373,o),
(284,437,cs),
(284,513,o),
(238,555,o),
(171,555,cs),
(95,555,o),
(49,501,o),
(49,431,cs),
(49,375,o),
(78,327,o),
(93,303,c),
(68,303,l),
(161,350,l),
(153,324,l),
(136,355,o),
(118,393,o),
(118,430,cs),
(118,464,o),
(133,485,o),
(163,485,cs),
(197,485,o),
(207,459,o),
(207,418,cs),
(207,344,o),
(174,247,o),
(174,174,cs),
(174,70,o),
(240,-10,o),
(397,-10,cs)
);
}
);
width = 1263;
},
{
associatedMasterId = m002;
layerId = "2F11F47D-D1D2-4E0D-BFFF-EEAC8D872991";
name = "3 May 23 12.28";
shapes = (
{
closed = 1;
nodes = (
(588,479,l),
(589,555,l),
(486,555,l),
(485,479,l)
);
},
{
pos = (10,0);
ref = _la_tenas;
},
{
pos = (-177,0);
ref = _ba_bangkiang;
},
{
alignment = -1;
pos = (-63,0);
ref = _ha_geluungan_ha;
},
{
pos = (10,0);
ref = _la_baong;
}
);
width = 1134;
},
{
associatedMasterId = m002;
layerId = "892DE945-8D7E-431F-B615-3346DCE1C714";
name = "4 May 23 16.18";
shapes = (
{
closed = 1;
nodes = (
(326,-10,o),
(375,38,o),
(375,110,cs),
(375,179,o),
(350,238,o),
(350,326,cs),
(350,433,o),
(418,481,o),
(524,481,cs),
(652,481,o),
(710,420,o),
(710,298,cs),
(710,220,o),
(684,123,o),
(658,43,cs),
(655,34,o),
(652,25,o),
(652,17,cs),
(652,0,o),
(667,-10,o),
(693,-10,cs),
(824,-10,o),
(912,84,o),
(912,200,cs),
(912,291,l),
(908,301,l),
(847,301,l),
(844,291,l),
(844,235,ls),
(844,128,o),
(796,63,o),
(704,53,c),
(727,36,l),
(757,117,o),
(784,220,o),
(784,306,cs),
(784,461,o),
(706,555,o),
(522,555,cs),
(380,555,o),
(278,473,o),
(278,331,cs),
(278,234,o),
(302,183,o),
(302,108,cs),
(302,73,o),
(280,55,o),
(255,55,c),
(256,-10,l)
);
},
{
pos = (-7,0);
ref = _la_tenas;
},
{
alignment = -1;
pos = (-73,0);
ref = _ha_geluungan_ha;
}
);
width = 1124;
},
{
associatedMasterId = m002;
layerId = "7EFFA81E-EAFB-421D-9197-C9ECDE6DF3D0";
name = Regular;
shapes = (
{
closed = 1;
nodes = (
(588,479,l),
(589,555,l),
(486,555,l),
(485,479,l)
);
},
{
pos = (10,0);
ref = _la_tenas;
},
{
pos = (-177,0);
ref = _ba_bangkiang;
},
{
alignment = -1;
pos = (-63,0);
ref = _ha_geluungan_ha;
},
{
pos = (10,0);
ref = _la_baong;
}
);
width = 1134;
},
{
associatedMasterId = m002;
layerId = "60F6D92F-B9AE-4955-9697-52BD1B790308";
name = Regular;
shapes = (
{
closed = 1;
nodes = (
(326,-10,o),
(375,38,o),
(375,110,cs),
(375,179,o),
(350,238,o),
(350,326,cs),
(350,433,o),
(418,481,o),
(524,481,cs),
(652,481,o),
(710,420,o),
(710,298,cs),
(710,220,o),
(684,123,o),
(658,43,cs),
(655,34,o),
(652,25,o),
(652,17,cs),
(652,0,o),
(667,-10,o),
(693,-10,cs),
(824,-10,o),
(912,84,o),
(912,200,cs),
(912,291,l),
(908,301,l),
(847,301,l),
(844,291,l),
(844,235,ls),
(844,128,o),
(796,63,o),
(704,53,c),
(727,36,l),
(757,117,o),
(784,220,o),
(784,306,cs),
(784,461,o),
(706,555,o),
(522,555,cs),
(380,555,o),
(278,473,o),
(278,331,cs),
(278,234,o),
(302,183,o),
(302,108,cs),
(302,73,o),
(280,55,o),
(255,55,c),
(256,-10,l)
);
},
{
pos = (-7,0);
ref = _la_tenas;
},
{
alignment = -1;
pos = (-73,0);
ref = _ha_geluungan_ha;
}
);
width = 1124;
},
{
anchors = (
{
name = bottom;
pos = (1171,0);
},
{
name = top;
pos = (594,650);
}
);
associatedMasterId = m002;
layerId = m003;
name = Bold;
shapes = (
{
closed = 1;
nodes = (
(431,-10,ls),
(470,-10,o),
(482,1,o),
(482,13,cs),
(482,23,o),
(480,31,o),
(457,61,cs),
(404,130,o),
(375,194,o),
(375,276,cs),
(375,423,o),
(470,479,o),
(591,479,cs),
(718,479,o),
(814,418,o),
(814,265,cs),
(814,181,o),
(786,118,o),
(756,51,cs),
(748,34,o),
(744,25,o),
(744,17,cs),
(744,0,o),
(759,-10,o),
(785,-10,cs),
(923,-10,o),
(1012,84,o),
(1012,200,cs),
(1012,291,l),
(1008,301,l),
(947,301,l),
(944,291,l),
(944,225,ls),
(944,108,o),
(880,61,o),
(796,50,c),
(809,36,l),
(857,112,o),
(888,182,o),
(888,275,cs),
(888,465,o),
(757,555,o),
(594,555,cs),
(421,555,o),
(301,452,o),
(301,276,cs),
(301,200,o),
(323,135,o),
(394,47,c),
(423,60,l),
(378,62,l),
(385,-10,l)
);
},
{
alignment = -1;
pos = (33,0);
ref = _nga_tenas;
},
{
alignment = -1;
pos = (27,0);
ref = _ha_geluungan_ha;
}
);
width = 1231;
},
{
associatedMasterId = m002;
layerId = "099C3FCF-74D6-42F2-B485-666BC9610381";
name = Bold;
shapes = (
{
closed = 1;
nodes = (
(588,479,l),
(589,555,l),
(486,555,l),
(485,479,l)
);
},
{
pos = (10,0);
ref = _la_tenas;
},
{
pos = (-177,0);
ref = _ba_bangkiang;
},
{
alignment = -1;
pos = (-63,0);
ref = _ha_geluungan_ha;
},
{
pos = (10,0);
ref = _la_baong;
}
);
width = 1134;
},
{
associatedMasterId = m002;
layerId = "381BBF47-A1B1-4860-A347-58C08DCCF4A7";
name = Bold;
shapes = (
{
closed = 1;
nodes = (
(326,-10,o),
(375,38,o),
(375,110,cs),
(375,179,o),
(350,238,o),
(350,326,cs),
(350,433,o),
(418,481,o),
(524,481,cs),
(652,481,o),
(710,420,o),
(710,298,cs),
(710,220,o),
(684,123,o),
(658,43,cs),
(655,34,o),
(652,25,o),
(652,17,cs),
(652,0,o),
(667,-10,o),
(693,-10,cs),
(824,-10,o),
(912,84,o),
(912,200,cs),
(912,291,l),
(908,301,l),
(847,301,l),
(844,291,l),
(844,235,ls),
(844,128,o),
(796,63,o),
(704,53,c),
(727,36,l),
(757,117,o),
(784,220,o),
(784,306,cs),
(784,461,o),
(706,555,o),
(522,555,cs),
(380,555,o),
(278,473,o),
(278,331,cs),
(278,234,o),
(302,183,o),
(302,108,cs),
(302,73,o),
(280,55,o),
(255,55,c),
(256,-10,l)
);
},
{
pos = (-7,0);
ref = _la_tenas;
},
{
alignment = -1;
pos = (-73,0);
ref = _ha_geluungan_ha;
}
);
width = 1124;
}
);
metricLeft = "ha-bali";
metricRight = "ha-bali";
unicode = 6933;
}
{
glyphname = "gaGora-bali";
layers = (
{
anchors = (
{
name = bottom;
pos = (1257,0);
},
{
name = top;
pos = (657,650);
}
);
layerId = m002;
name = Regular;
shapes = (
{
closed = 1;
nodes = (
(372,-10,o),
(423,34,o),
(423,116,cs),
(423,175,o),
(396,239,o),
(396,329,cs),
(396,428,o),
(430,475,o),
(530,479,c),
(519,488,l),
(490,412,o),
(476,327,o),
(476,248,cs),
(476,97,o),
(528,-10,o),
(630,-10,cs),
(733,-10,o),
(757,90,o),
(795,90,cs),
(797,90,ls),
(833,90,o),
(860,-10,o),
(956,-10,cs),
(1043,-10,o),
(1102,71,o),
(1102,192,cs),
(1102,366,o),
(979,448,o),
(876,445,c),
(873,431,l),
(916,469,o),
(965,487,o),
(1017,487,cs),
(1117,487,o),
(1181,420,o),
(1181,272,cs),
(1181,0,l),
(1257,0,l),
(1257,300,ls),
(1257,466,o),
(1166,555,o),
(1033,555,cs),
(941,555,o),
(856,513,o),
(791,437,c),
(806,459,l),
(834,381,l),
(816,395,l),
(904,397,o),
(1033,362,o),
(1033,195,cs),
(1033,115,o),
(1003,61,o),
(957,61,cs),
(893,61,o),
(861,169,o),
(800,169,cs),
(798,169,ls),
(735,169,o),
(702,63,o),
(638,63,cs),
(582,63,o),
(547,120,o),
(547,250,cs),
(547,362,o),
(575,472,o),
(601,516,c),
(606,497,l),
(550,555,l),
(578,545,l),
(391,545,o),
(324,473,o),
(324,331,cs),
(324,241,o),
(350,169,o),
(350,120,cs),
(350,73,o),
(327,56,o),
(300,56,cs),
(270,56,o),
(246,76,o),
(246,138,cs),
(246,214,o),
(283,344,o),
(283,421,cs),
(283,503,o),
(240,555,o),
(167,555,cs),
(92,555,o),
(49,501,o),
(49,431,cs),
(49,374,o),
(78,327,o),
(93,303,c),
(68,303,l),
(177,358,l),
(158,314,l),
(136,355,o),
(118,393,o),
(118,430,cs),
(118,464,o),
(133,485,o),
(162,485,cs),
(196,485,o),
(207,455,o),
(207,415,cs),
(207,337,o),
(166,214,o),
(166,131,cs),
(166,38,o),
(218,-10,o),
(297,-10,cs)
);
}
);
width = 1337;
},
{
anchors = (
{
name = bottom;
pos = (1239,0);
},
{
name = top;
pos = (474,650);
}
);
associatedMasterId = m002;
layerId = m003;
name = Bold;
shapes = (
{
closed = 1;
nodes = (
(356,-10,o),
(405,38,o),
(405,110,cs),
(405,179,o),
(378,239,o),
(378,327,cs),
(378,429,o),
(412,475,o),
(512,479,c),
(501,488,l),
(472,412,o),
(458,326,o),
(458,250,cs),
(458,96,o),
(510,-10,o),
(627,-10,c),
(637,-2,l),
(636,47,l),
(626,55,l),
(568,55,o),
(529,118,o),
(529,255,cs),
(529,351,o),
(553,450,o),
(576,500,cs),
(593,539,o),
(573,555,o),
(529,555,cs),
(372,555,o),
(306,474,o),
(306,332,cs),
(306,235,o),
(332,183,o),
(332,108,cs),
(332,73,o),
(310,55,o),
(285,55,c),
(286,-10,l)
);
},
{
pos = (23,0);
ref = _la_tenas;
},
{
pos = (351,0);
ref = _daMadu_bawah;
},
{
closed = 1;
nodes = (
(1023,-10,o),
(1092,86,o),
(1092,227,c),
(1022,226,l),
(1022,110,o),
(972,62,o),
(933,62,c),
(936,-10,l)
);
},
{
alignment = -1;
pos = (468,0);
ref = _wa_ca_gelungan;
}
);
width = 1299;
},
{
anchors = (
{
name = bottom;
pos = (1257,0);
},
{
name = top;
pos = (492,650);
}
);
associatedMasterId = m002;
layerId = "85419F15-3886-426A-965F-54E279D5B2D0";
name = "21 Aug 23 09.19";
shapes = (
{
closed = 1;
nodes = (
(373,-10,o),
(423,35,o),
(423,115,cs),
(423,174,o),
(396,240,o),
(396,329,cs),
(396,428,o),
(430,475,o),
(530,479,c),
(519,488,l),
(490,412,o),
(476,327,o),
(476,248,cs),
(476,97,o),
(528,-10,o),
(645,-10,c),
(655,-2,l),
(654,47,l),
(644,55,l),
(586,55,o),
(547,120,o),
(547,250,cs),
(547,362,o),
(575,472,o),
(601,516,c),
(606,497,l),
(550,555,l),
(578,545,l),
(391,545,o),
(324,473,o),
(324,331,cs),
(324,242,o),
(350,171,o),
(350,118,cs),
(350,73,o),
(332,55,o),
(303,55,c),
(304,-10,l)
);
},
{
pos = (41,0);
ref = _la_tenas;
},
{
pos = (369,0);
ref = _daMadu_bawah;
},
{
closed = 1;
nodes = (
(1041,-10,o),
(1110,86,o),
(1110,227,c),
(1040,226,l),
(1040,110,o),
(990,62,o),
(951,62,c),
(954,-10,l)
);
},
{
alignment = -1;
pos = (486,0);
ref = _wa_ca_gelungan;
}
);
width = 1337;
}
);
metricLeft = "ha-bali";
metricRight = "ha-bali";
unicode = 6934;
}
{
glyphname = "jaJera-bali";
layers = (
{
anchors = (
{
name = top;
pos = (649,650);
}
);
layerId = m002;
name = Regular;
shapes = (
{
closed = 1;
nodes = (
(522,-769,o),
(548,-570,o),
(685,-570,cs),
(821,-570,o),
(837,-769,o),
(1002,-769,cs),
(1096,-769,o),
(1167,-704,o),
(1167,-562,cs),
(1167,514,l),
(1152,493,l),
(1214,442,o),
(1240,402,o),
(1268,298,c),
(1254,315,l),
(1353,347,l),
(1332,311,l),
(1300,437,o),
(1265,498,o),
(1156,571,c),
(1167,545,l),
(1167,661,ls),
(1167,765,o),
(1114,815,o),
(1041,815,cs),
(966,815,o),
(916,763,o),
(916,696,cs),
(916,602,o),
(1014,567,o),
(1109,516,c),
(1099,540,l),
(1099,-535,ls),
(1099,-655,o),
(1060,-697,o),
(1003,-697,cs),
(879,-697,o),
(862,-496,o),
(688,-496,cs),
(513,-496,o),
(478,-697,o),
(343,-697,cs),
(262,-697,o),
(206,-625,o),
(206,-521,cs),
(206,-124,o),
(1030,-185,o),
(1024,320,cs),
(1022,459,o),
(959,555,o),
(836,555,cs),
(755,555,o),
(698,513,o),
(667,451,c),
(661,451,l),
(634,522,o),
(577,555,o),
(503,555,cs),
(393,555,o),
(314,482,o),
(314,322,cs),
(314,213,o),
(351,132,o),
(418,46,c),
(443,60,l),
(390,62,ls),
(301,65,o),
(254,96,o),
(254,185,cs),
(254,259,o),
(286,373,o),
(286,436,cs),
(286,513,o),
(238,555,o),
(171,555,cs),
(95,555,o),
(49,501,o),
(49,431,cs),
(49,375,o),
(78,327,o),
(93,303,c),
(68,303,l),
(161,350,l),
(153,324,l),
(136,355,o),
(118,393,o),
(118,430,cs),
(118,464,o),
(133,485,o),
(163,485,cs),
(197,485,o),
(207,459,o),
(207,418,cs),
(207,344,o),
(174,247,o),
(174,174,cs),
(174,70,o),
(240,-10,o),
(397,-10,cs),
(461,-10,ls),
(491,-10,o),
(503,3,o),
(503,19,cs),
(503,29,o),
(498,40,o),
(484,57,cs),
(411,147,o),
(386,236,o),
(386,316,cs),
(386,425,o),
(431,479,o),
(504,479,cs),
(564,479,o),
(620,444,o),
(640,332,c),
(625,345,l),
(700,345,l),
(681,336,l),
(700,426,o),
(751,479,o),
(824,479,cs),
(896,479,o),
(942,426,o),
(944,321,cs),
(953,-130,o),
(129,-68,o),
(129,-524,cs),
(129,-687,o),
(235,-769,o),
(347,-769,cs)
);
},
{
closed = 1;
nodes = (
(1113,590,l),
(1050,625,o),
(989,652,o),
(989,701,cs),
(989,726,o),
(1004,748,o),
(1036,748,cs),
(1067,748,o),
(1099,727,o),
(1099,640,cs),
(1099,588,l)
);
}
);
width = 1342;
},
{
anchors = (
{
name = top;
pos = (637,650);
}
);
associatedMasterId = m002;
layerId = m003;
name = Bold;
shapes = (
{
alignment = -1;
pos = (33,0);
ref = _nga_tenas;
},
{
pos = (10,0);
ref = _aikara_ikuh;
},
{
alignment = -1;
pos = (10,0);
ref = _okara_tenas;
},
{
ref = _Ilut_duwur;
}
);
width = 1330;
}
);
metricLeft = "ha-bali";
unicode = 6939;
}
{
glyphname = "na-bali";
kernLeft = "ka-bali";
layers = (
{
anchors = (
{
name = bottom;
pos = (855,0);
},
{
name = kaMahaprana;
pos = (779,0);
},
{
name = top;
pos = (453,650);
}
);
background = {
shapes = (
{
pos = (53,-988);
ref = _tail_na;
},
{
pos = (-10,0);
ref = "sa-bali";
}
);
};
layerId = m002;
name = Regular;
shapes = (
{
closed = 1;
nodes = (
(263,-10,o),
(294,141,o),
(297,236,c),
(280,209,l),
(299,216,o),
(331,223,o),
(372,225,c),
(356,238,l),
(369,87,o),
(455,-10,o),
(569,-10,cs),
(646,-10,o),
(687,35,o),
(694,97,cs),
(707,212,o),
(589,288,o),
(411,286,c),
(428,270,l),
(432,418,o),
(494,479,o),
(608,479,cs),
(694,479,o),
(779,444,o),
(779,291,cs),
(779,0,l),
(855,0,l),
(855,304,ls),
(855,492,o),
(737,555,o),
(611,555,cs),
(473,555,o),
(359,480,o),
(353,270,c),
(364,285,l),
(335,284,o),
(311,280,o),
(290,276,c),
(297,266,l),
(304,480,o),
(229,555,o),
(142,555,cs),
(74,555,o),
(22,509,o),
(22,435,cs),
(22,390,o),
(41,341,o),
(78,289,c),
(32,296,l),
(151,358,l),
(130,321,l),
(113,357,o),
(92,393,o),
(92,430,cs),
(92,464,o),
(109,485,o),
(137,485,cs),
(185,485,o),
(236,418,o),
(231,249,c),
(241,265,l),
(132,232,o),
(65,152,o),
(65,78,cs),
(65,23,o),
(101,-10,o),
(153,-10,cs)
);
},
{
closed = 1;
nodes = (
(140,51,o),
(130,65,o),
(130,85,cs),
(130,123,o),
(168,176,o),
(240,200,c),
(228,213,l),
(224,117,o),
(197,51,o),
(157,51,cs)
);
},
{
closed = 1;
nodes = (
(498,60,o),
(431,134,o),
(428,240,c),
(414,224,l),
(531,221,o),
(621,175,o),
(619,111,cs),
(618,79,o),
(595,60,o),
(562,60,cs)
);
}
);
width = 935;
},
{
anchors = (
{
name = bottom;
pos = (855,0);
},
{
name = kaMahaprana;
pos = (779,0);
},
{
name = top;
pos = (393,650);
}
);
associatedMasterId = m002;
background = {
shapes = (
{
pos = (53,-988);
ref = _tail_na;
},
{
pos = (-10,0);
ref = "sa-bali";
}
);
};
layerId = m003;
name = Bold;
shapes = (
{
alignment = -1;
pos = (-8,0);
ref = _na_baong;
},
{
alignment = -1;
pos = (-8,0);
ref = _na_tenas;
},
{
alignment = -1;
pos = (10,0);
ref = _na_bangkiang;
},
{
alignment = -1;
pos = (10,0);
ref = _na_batis;
},
{
pos = (35,0);
ref = _stem_ending;
}
);
width = 915;
},
{
anchors = (
{
name = bottom;
pos = (855,0);
},
{
name = kaMahaprana;
pos = (779,0);
},
{
name = top;
pos = (393,650);
}
);
associatedMasterId = m002;
background = {
shapes = (
{
pos = (53,-988);
ref = _tail_na;
},
{
pos = (-10,0);
ref = "sa-bali";
}
);
};
layerId = "B6B68CFB-AE0C-44E8-87AC-C8794EE71497";
name = "24 Aug 23 14.45";
shapes = (
{
alignment = -1;
pos = (-8,0);
ref = _na_baong;
},
{
alignment = -1;
pos = (-8,0);
ref = _na_tenas;
},
{
alignment = -1;
pos = (10,0);
ref = _na_bangkiang;
},
{
alignment = -1;
pos = (10,0);
ref = _na_batis;
},
{
pos = (35,0);
ref = _stem_ending;
}
);
width = 935;
},
{
anchors = (
{
name = bottom;
pos = (855,0);
},
{
name = kaMahaprana;
pos = (779,0);
},
{
name = top;
pos = (393,650);
}
);
associatedMasterId = m002;
background = {
shapes = (
{
pos = (53,-988);
ref = _tail_na;
},
{
pos = (-10,0);
ref = "sa-bali";
}
);
};
layerId = "34254F2D-1C76-4200-B94B-A32B9D68BFF3";
name = "24 Aug 23 14.45";
shapes = (
{
closed = 1;
nodes = (
(257,-10,o),
(290,124,o),
(296,220,c),
(283,211,l),
(306,218,o),
(341,224,o),
(387,221,c),
(382,284,l),
(336,284,o),
(302,278,o),
(279,272,c),
(239,264,l),
(131,231,o),
(63,152,o),
(63,78,cs),
(63,23,o),
(101,-10,o),
(153,-10,cs)
);
},
{
closed = 1;
nodes = (
(140,51,o),
(130,65,o),
(130,85,cs),
(130,123,o),
(168,176,o),
(240,200,c),
(228,217,l),
(225,149,o),
(198,51,o),
(157,51,cs)
);
},
{
closed = 1;
nodes = (
(296,224,l),
(297,277,ls),
(301,482,o),
(227,555,o),
(143,555,cs),
(74,555,o),
(22,509,o),
(22,437,cs),
(22,391,o),
(39,346,o),
(73,298,c),
(47,304,l),
(133,349,l),
(124,335,l),
(108,365,o),
(92,398,o),
(92,429,cs),
(92,464,o),
(109,485,o),
(137,485,cs),
(185,485,o),
(235,420,o),
(231,253,cs),
(230,211,l)
);
},
{
closed = 1;
nodes = (
(425,411,o),
(488,479,o),
(608,479,cs),
(694,479,o),
(779,444,o),
(779,291,c),
(785,281,l),
(850,281,l),
(855,291,l),
(855,304,ls),
(855,497,o),
(737,555,o),
(612,555,cs),
(467,555,o),
(351,475,o),
(354,249,c),
(428,247,l)
);
},
{
closed = 1;
nodes = (
(650,-10,o),
(688,39,o),
(694,98,cs),
(706,216,o),
(582,287,o),
(413,285,c),
(359,274,l),
(356,269,l),
(357,234,l),
(370,85,o),
(456,-10,o),
(569,-10,cs)
);
},
{
closed = 1;
nodes = (
(498,60,o),
(431,133,o),
(428,240,c),
(414,224,l),
(530,221,o),
(621,175,o),
(619,111,cs),
(618,79,o),
(595,60,o),
(562,60,cs)
);
},
{
closed = 1;
nodes = (
(855,0,l),
(855,291,l),
(779,291,l),
(779,0,l)
);
}
);
width = 935;
}
);
metricRight = "ha-bali";
unicode = 6950;
}
{
glyphname = "paKapal-bali";
layers = (
{
anchors = (
{
name = bottom;
pos = (489,0);
},
{
name = top;
pos = (255,650);
}
);
layerId = m002;
name = Regular;
shapes = (
{
closed = 1;
nodes = (
(433,-10,ls),
(588,-10,o),
(672,98,o),
(672,269,cs),
(672,559,l),
(657,539,l),
(719,550,o),
(765,601,o),
(793,662,c),
(793,646,l),
(731,683,l),
(749,691,l),
(729,652,o),
(693,612,o),
(663,606,c),
(672,595,l),
(672,650,ls),
(672,765,o),
(621,815,o),
(549,815,cs),
(471,815,o),
(424,755,o),
(426,687,cs),
(429,590,o),
(527,541,o),
(611,541,c),
(604,551,l),
(604,286,ls),
(604,138,o),
(547,66,o),
(427,66,cs),
(376,66,ls),
(305,66,o),
(255,86,o),
(255,183,cs),
(255,259,o),
(286,374,o),
(286,436,cs),
(286,513,o),
(238,555,o),
(169,555,cs),
(91,555,o),
(49,501,o),
(49,432,cs),
(49,374,o),
(78,327,o),
(93,303,c),
(68,303,l),
(165,352,l),
(158,314,l),
(136,355,o),
(118,393,o),
(118,430,cs),
(118,464,o),
(133,485,o),
(163,485,cs),
(195,485,o),
(205,459,o),
(205,425,cs),
(205,365,o),
(173,251,o),
(173,173,cs),
(173,44,o),
(261,-10,o),
(364,-10,cs)
);
},
{
closed = 1;
nodes = (
(612,603,l),
(541,607,o),
(492,642,o),
(492,693,cs),
(492,727,o),
(513,748,o),
(543,748,cs),
(578,748,o),
(604,718,o),
(604,640,cs),
(604,593,l)
);
}
);
width = 733;
},
{
anchors = (
{
name = bottom;
pos = (633,0);
},
{
name = top;
pos = (190,650);
}
);
associatedMasterId = m002;
layerId = m003;
name = Bold;
shapes = (
{
closed = 1;
nodes = (
(444,-10,ls),
(599,-10,o),
(683,99,o),
(683,260,cs),
(683,291,l),
(615,291,l),
(615,266,ls),
(615,138,o),
(558,66,o),
(449,66,cs),
(387,66,l),
(375,-10,l)
);
},
{
pos = (61,0);
ref = _ha_tenas_ha;
},
{
pos = (-462,0);
ref = _iluk_duwur;
}
);
width = 744;
}
);
metricLeft = "ha-bali";
metricRight = "aikara-bali";
unicode = 6952;
}
{
glyphname = "ba-bali";
layers = (
{
anchors = (
{
name = bottom;
pos = (1346,0);
},
{
name = top;
pos = (674,650);
}
);
background = {
shapes = (
{
closed = 1;
nodes = (
(425,0,l),
(425,350,ls),
(425,439,o),
(473,487,o),
(525,487,cs),
(578,487,o),
(609,437,o),
(622,333,c),
(668,333,l),
(680,429,o),
(717,487,o),
(769,487,cs),
(816,487,o),
(864,439,o),
(864,350,cs),
(864,0,l),
(919,0,l),
(919,349,ls),
(919,484,o),
(867,555,o),
(772,555,cs),
(704,555,o),
(661,519,o),
(645,423,c),
(644,423,l),
(631,519,o),
(586,555,o),
(520,555,cs),
(432,555,o),
(370,484,o),
(370,349,cs),
(370,69,l),
(319,71,o),
(289,105,o),
(289,197,cs),
(289,412,ls),
(289,500,o),
(243,555,o),
(178,555,cs),
(102,555,o),
(66,481,o),
(71,398,c),
(126,398,l),
(126,459,o),
(152,483,o),
(180,483,cs),
(207,483,o),
(238,461,o),
(238,401,cs),
(238,195,ls),
(238,44,o),
(279,0,o),
(370,0,cs)
);
},
{
closed = 1;
nodes = (
(1188,-5,l),
(1188,415,ls),
(1188,504,o),
(1157,540,o),
(1067,540,cs),
(1000,540,l),
(1000,149,ls),
(1000,74,o),
(972,51,o),
(922,51,cs),
(893,51,l),
(893,0,l),
(919,0,l),
(997,0,o),
(1053,39,o),
(1053,151,cs),
(1053,493,l),
(1073,493,ls),
(1113,493,o),
(1135,473,o),
(1135,431,cs),
(1135,-5,l)
);
}
);
};
layerId = m002;
name = Regular;
shapes = (
{
closed = 1;
nodes = (
(461,-10,ls),
(490,-10,o),
(503,2,o),
(503,20,cs),
(503,29,o),
(500,40,o),
(484,56,cs),
(420,119,o),
(387,212,o),
(387,295,cs),
(387,394,o),
(435,479,o),
(531,479,cs),
(591,479,o),
(649,446,o),
(670,332,c),
(655,345,l),
(730,345,l),
(711,336,l),
(730,427,o),
(781,479,o),
(856,479,cs),
(947,479,o),
(987,401,o),
(987,309,cs),
(987,221,o),
(952,121,o),
(890,59,cs),
(870,39,o),
(868,26,o),
(868,19,cs),
(868,-7,o),
(894,-10,o),
(925,-10,cs),
(1079,-10,o),
(1187,62,o),
(1187,218,cs),
(1187,502,l),
(1180,482,l),
(1248,484,o),
(1270,447,o),
(1270,372,cs),
(1270,0,l),
(1346,0,l),
(1346,376,ls),
(1346,498,o),
(1301,550,o),
(1178,550,cs),
(1168,550,l),
(1119,507,l),
(1119,225,ls),
(1119,108,o),
(1056,62,o),
(940,53,c),
(937,36,l),
(1013,99,o),
(1059,219,o),
(1059,328,cs),
(1059,448,o),
(1003,555,o),
(869,555,cs),
(785,555,o),
(729,514,o),
(697,451,c),
(691,451,l),
(664,522,o),
(603,555,o),
(528,555,cs),
(387,555,o),
(317,436,o),
(317,304,cs),
(317,213,o),
(349,117,o),
(415,47,c),
(443,60,l),
(390,62,ls),
(302,65,o),
(252,96,o),
(252,186,cs),
(252,260,o),
(286,372,o),
(286,436,cs),
(286,513,o),
(238,555,o),
(171,555,cs),
(95,555,o),
(49,501,o),
(49,431,cs),
(49,375,o),
(78,327,o),
(93,303,c),
(68,303,l),
(161,350,l),
(153,324,l),
(136,355,o),
(118,393,o),
(118,430,cs),
(118,464,o),
(133,485,o),
(163,485,cs),
(197,485,o),
(207,459,o),
(207,418,cs),
(207,344,o),
(174,247,o),
(174,174,cs),
(174,70,o),
(240,-10,o),
(397,-10,cs)
);
}
);
width = 1426;
},
{
anchors = (
{
name = bottom;
pos = (1334,0);
},
{
name = top;
pos = (662,650);
}
);
associatedMasterId = m002;
background = {
shapes = (
{
closed = 1;
nodes = (
(413,0,l),
(413,350,ls),
(413,439,o),
(461,487,o),
(513,487,cs),
(566,487,o),
(597,437,o),
(610,333,c),
(656,333,l),
(668,429,o),
(705,487,o),
(757,487,cs),
(804,487,o),
(852,439,o),
(852,350,cs),
(852,0,l),
(907,0,l),
(907,349,ls),
(907,484,o),
(855,555,o),
(760,555,cs),
(692,555,o),
(649,519,o),
(633,423,c),
(632,423,l),
(619,519,o),
(574,555,o),
(508,555,cs),
(420,555,o),
(358,484,o),
(358,349,cs),
(358,69,l),
(307,71,o),
(277,105,o),
(277,197,cs),
(277,412,ls),
(277,500,o),
(231,555,o),
(166,555,cs),
(90,555,o),
(54,481,o),
(59,398,c),
(114,398,l),
(114,459,o),
(140,483,o),
(168,483,cs),
(195,483,o),
(226,461,o),
(226,401,cs),
(226,195,ls),
(226,44,o),
(267,0,o),
(358,0,cs)
);
},
{
closed = 1;
nodes = (
(1176,-5,l),
(1176,415,ls),
(1176,504,o),
(1145,540,o),
(1055,540,cs),
(988,540,l),
(988,149,ls),
(988,74,o),
(960,51,o),
(910,51,cs),
(881,51,l),
(881,0,l),
(907,0,l),
(985,0,o),
(1041,39,o),
(1041,151,cs),
(1041,493,l),
(1061,493,ls),
(1101,493,o),
(1123,473,o),
(1123,431,cs),
(1123,-5,l)
);
}
);
};
layerId = m003;
name = Bold;
shapes = (
{
alignment = -1;
pos = (190,0);
ref = _ha_geluungan_ha;
},
{
pos = (33,0);
ref = _nga_body;
},
{
pos = (33,0);
ref = _nga_top;
},
{
alignment = -1;
pos = (33,0);
ref = _ba_bangkiang;
}
);
width = 1394;
}
);
metricLeft = "ha-bali";
metricRight = "ha-bali";
unicode = 6953;
}
{
glyphname = "la-bali";
layers = (
{
anchors = (
{
name = bottom;
pos = (1242,0);
},
{
name = top;
pos = (675,650);
}
);
background = {
shapes = (
{
pos = (47,0);
ref = "ha-bali";
}
);
};
layerId = m002;
name = Regular;
shapes = (
{
closed = 1;
nodes = (
(372,-10,o),
(423,34,o),
(423,116,cs),
(423,175,o),
(396,239,o),
(396,329,cs),
(396,434,o),
(433,479,o),
(516,479,cs),
(604,479,o),
(642,429,o),
(642,330,cs),
(642,284,o),
(634,226,o),
(634,183,cs),
(634,40,o),
(721,-10,o),
(856,-10,cs),
(1037,-10,o),
(1083,81,o),
(1083,221,cs),
(1083,502,l),
(1076,482,l),
(1144,484,o),
(1166,447,o),
(1166,372,cs),
(1166,0,l),
(1242,0,l),
(1242,376,ls),
(1242,498,o),
(1197,550,o),
(1074,550,cs),
(1064,550,l),
(1015,507,l),
(1015,227,ls),
(1015,108,o),
(976,60,o),
(859,60,cs),
(752,60,o),
(709,100,o),
(709,180,cs),
(709,215,o),
(717,298,o),
(717,344,cs),
(717,488,o),
(637,555,o),
(519,555,cs),
(389,555,o),
(324,474,o),
(324,331,cs),
(324,241,o),
(350,169,o),
(350,120,cs),
(350,73,o),
(327,56,o),
(300,56,cs),
(270,56,o),
(246,76,o),
(246,138,cs),
(246,214,o),
(283,344,o),
(283,421,cs),
(283,503,o),
(240,555,o),
(167,555,cs),
(92,555,o),
(49,501,o),
(49,431,cs),
(49,374,o),
(78,327,o),
(93,303,c),
(68,303,l),
(177,358,l),
(158,314,l),
(136,355,o),
(118,393,o),
(118,430,cs),
(118,464,o),
(133,485,o),
(162,485,cs),
(196,485,o),
(207,455,o),
(207,415,cs),
(207,337,o),
(166,214,o),
(166,131,cs),
(166,38,o),
(218,-10,o),
(297,-10,cs)
);
}
);
width = 1322;
},
{
associatedMasterId = m002;
background = {
shapes = (
{
pos = (20,0);
ref = "ha-bali";
}
);
};
layerId = "E621CF28-4403-4A2C-A2B2-4F565A630316";
name = "2 May 23 15.20";
shapes = (
{
closed = 1;
nodes = (
(986,-10,o),
(1042,96,o),
(1042,260,cs),
(1042,291,l),
(966,291,l),
(966,266,ls),
(966,122,o),
(921,66,o),
(814,66,cs),
(724,66,o),
(682,104,o),
(682,177,cs),
(682,223,o),
(693,288,o),
(693,341,cs),
(693,483,o),
(610,555,o),
(490,555,c),
(489,479,l),
(577,479,o),
(615,429,o),
(615,329,cs),
(615,284,o),
(607,228,o),
(607,181,cs),
(607,38,o),
(689,-10,o),
(811,-10,cs)
);
},
{
pos = (14,0);
ref = _la_tenas;
},
{
alignment = -1;
pos = (60,0);
ref = _ha_geluungan_ha;
},
{
pos = (14,0);
ref = _la_baong;
}
);
width = 1218;
},
{
associatedMasterId = m002;
background = {
shapes = (
{
pos = (16,0);
ref = "ha-bali";
}
);
};
layerId = "987BD73A-DA7E-41D6-A276-3D8A4762C655";
name = "2 May 23 16.05";
shapes = (
{
closed = 1;
nodes = (
(950,-10,o),
(1000,96,o),
(1000,250,cs),
(1000,291,l),
(954,291,l),
(954,266,ls),
(954,122,o),
(918,56,o),
(810,56,cs),
(722,56,o),
(678,95,o),
(678,177,cs),
(678,223,o),
(689,288,o),
(689,341,cs),
(689,483,o),
(606,555,o),
(486,555,c),
(485,479,l),
(573,479,o),
(611,429,o),
(611,329,cs),
(611,284,o),
(603,228,o),
(603,181,cs),
(603,38,o),
(685,-10,o),
(807,-10,cs)
);
},
{
pos = (10,0);
ref = _la_tenas;
},
{
alignment = -1;
pos = (56,0);
ref = _ha_geluungan_ha;
},
{
pos = (10,0);
ref = _la_baong;
}
);
width = 1207;
},
{
associatedMasterId = m002;
background = {
shapes = (
{
pos = (20,0);
ref = "ha-bali";
}
);
};
layerId = "5CF0E851-A077-49AB-99C0-D746304598B2";
name = Regular;
shapes = (
{
closed = 1;
nodes = (
(986,-10,o),
(1042,96,o),
(1042,260,cs),
(1042,291,l),
(966,291,l),
(966,266,ls),
(966,122,o),
(921,66,o),
(814,66,cs),
(724,66,o),
(682,104,o),
(682,177,cs),
(682,223,o),
(693,288,o),
(693,341,cs),
(693,483,o),
(610,555,o),
(490,555,c),
(489,479,l),
(577,479,o),
(615,429,o),
(615,329,cs),
(615,284,o),
(607,228,o),
(607,181,cs),
(607,38,o),
(689,-10,o),
(811,-10,cs)
);
},
{
pos = (14,0);
ref = _la_tenas;
},
{
alignment = -1;
pos = (60,0);
ref = _ha_geluungan_ha;
},
{
pos = (14,0);
ref = _la_baong;
}
);
width = 1218;
},
{
associatedMasterId = m002;
background = {
shapes = (
{
pos = (16,0);
ref = "ha-bali";
}
);
};
layerId = "C2E64617-8BB0-40F4-8835-9E578FB2D657";
name = Regular;
shapes = (
{
closed = 1;
nodes = (
(950,-10,o),
(1000,96,o),
(1000,250,cs),
(1000,291,l),
(954,291,l),
(954,266,ls),
(954,122,o),
(918,56,o),
(810,56,cs),
(722,56,o),
(678,95,o),
(678,177,cs),
(678,223,o),
(689,288,o),
(689,341,cs),
(689,483,o),
(606,555,o),
(486,555,c),
(485,479,l),
(573,479,o),
(611,429,o),
(611,329,cs),
(611,284,o),
(603,228,o),
(603,181,cs),
(603,38,o),
(685,-10,o),
(807,-10,cs)
);
},
{
pos = (10,0);
ref = _la_tenas;
},
{
alignment = -1;
pos = (56,0);
ref = _ha_geluungan_ha;
},
{
pos = (10,0);
ref = _la_baong;
}
);
width = 1207;
},
{
anchors = (
{
name = bottom;
pos = (1224,0);
},
{
name = top;
pos = (474,650);
}
);
associatedMasterId = m002;
background = {
shapes = (
{
pos = (29,0);
ref = "ha-bali";
}
);
};
layerId = m003;
name = Bold;
shapes = (
{
closed = 1;
nodes = (
(1016,-10,o),
(1065,96,o),
(1065,250,cs),
(1065,291,l),
(997,291,l),
(997,255,ls),
(997,118,o),
(960,64,o),
(844,64,cs),
(737,64,o),
(691,102,o),
(691,177,cs),
(691,223,o),
(699,291,o),
(699,348,cs),
(699,486,o),
(619,555,o),
(499,555,c),
(498,479,l),
(586,479,o),
(624,429,o),
(624,329,cs),
(624,284,o),
(616,228,o),
(616,181,cs),
(616,38,o),
(700,-10,o),
(841,-10,cs)
);
},
{
pos = (23,0);
ref = _la_tenas;
},
{
alignment = -1;
pos = (80,0);
ref = _ha_geluungan_ha;
},
{
pos = (23,0);
ref = _la_baong;
}
);
width = 1284;
},
{
associatedMasterId = m002;
background = {
shapes = (
{
pos = (20,0);
ref = "ha-bali";
}
);
};
layerId = "84E3CFAA-19C5-409F-BAB1-F3626B5A7A8F";
name = Bold;
shapes = (
{
closed = 1;
nodes = (
(986,-10,o),
(1042,96,o),
(1042,260,cs),
(1042,291,l),
(966,291,l),
(966,266,ls),
(966,122,o),
(921,66,o),
(814,66,cs),
(724,66,o),
(682,104,o),
(682,177,cs),
(682,223,o),
(693,288,o),
(693,341,cs),
(693,483,o),
(610,555,o),
(490,555,c),
(489,479,l),
(577,479,o),
(615,429,o),
(615,329,cs),
(615,284,o),
(607,228,o),
(607,181,cs),
(607,38,o),
(689,-10,o),
(811,-10,cs)
);
},
{
pos = (14,0);
ref = _la_tenas;
},
{
alignment = -1;
pos = (60,0);
ref = _ha_geluungan_ha;
},
{
pos = (14,0);
ref = _la_baong;
}
);
width = 1218;
},
{
associatedMasterId = m002;
background = {
shapes = (
{
pos = (16,0);
ref = "ha-bali";
}
);
};
layerId = "80CE3BE5-8461-4D57-85C2-910EA4FE3001";
name = Bold;
shapes = (
{
closed = 1;
nodes = (
(950,-10,o),
(1000,96,o),
(1000,250,cs),
(1000,291,l),
(954,291,l),
(954,266,ls),
(954,122,o),
(918,56,o),
(810,56,cs),
(722,56,o),
(678,95,o),
(678,177,cs),
(678,223,o),
(689,288,o),
(689,341,cs),
(689,483,o),
(606,555,o),
(486,555,c),
(485,479,l),
(573,479,o),
(611,429,o),
(611,329,cs),
(611,284,o),
(603,228,o),
(603,181,cs),
(603,38,o),
(685,-10,o),
(807,-10,cs)
);
},
{
pos = (10,0);
ref = _la_tenas;
},
{
alignment = -1;
pos = (56,0);
ref = _ha_geluungan_ha;
},
{
pos = (10,0);
ref = _la_baong;
}
);
width = 1207;
}
);
metricLeft = "ha-bali";
metricRight = "ha-bali";
unicode = 6958;
}
{
glyphname = "kafSasak-bali";
kernLeft = "ka-bali";
layers = (
{
anchors = (
{
name = bottom;
pos = (1215,0);
},
{
name = top;
pos = (602,650);
}
);
layerId = m002;
name = Regular;
shapes = (
{
closed = 1;
nodes = (
(702,-10,o),
(740,39,o),
(746,98,cs),
(759,215,o),
(636,287,o),
(468,285,c),
(480,267,l),
(483,417,o),
(545,479,o),
(660,479,cs),
(746,479,o),
(831,444,o),
(831,291,cs),
(831,132,ls),
(831,37,o),
(877,-10,o),
(944,-10,cs),
(1003,-10,o),
(1056,26,o),
(1056,124,cs),
(1056,502,l),
(1049,482,l),
(1117,484,o),
(1139,447,o),
(1139,372,cs),
(1139,0,l),
(1215,0,l),
(1215,376,ls),
(1215,498,o),
(1170,550,o),
(1047,550,cs),
(1037,550,l),
(988,507,l),
(988,115,ls),
(988,75,o),
(972,58,o),
(949,58,cs),
(919,58,o),
(907,83,o),
(907,128,cs),
(907,304,ls),
(907,497,o),
(789,555,o),
(664,555,cs),
(519,555,o),
(403,475,o),
(406,249,c),
(409,234,l),
(422,85,o),
(508,-10,o),
(621,-10,cs)
);
},
{
closed = 1;
nodes = (
(257,-10,o),
(290,124,o),
(294,220,c),
(283,213,l),
(329,230,o),
(383,232,o),
(432,228,c),
(438,288,l),
(355,288,o),
(302,278,o),
(279,272,c),
(297,253,l),
(297,277,ls),
(301,482,o),
(227,555,o),
(143,555,cs),
(74,555,o),
(22,509,o),
(22,437,cs),
(22,391,o),
(39,346,o),
(73,298,c),
(47,304,l),
(133,349,l),
(124,335,l),
(108,365,o),
(92,398,o),
(92,429,cs),
(92,464,o),
(109,485,o),
(137,485,cs),
(185,485,o),
(235,420,o),
(231,253,cs),
(239,264,l),
(131,231,o),
(63,152,o),
(63,78,cs),
(63,23,o),
(101,-10,o),
(153,-10,cs)
);
},
{
closed = 1;
nodes = (
(140,51,o),
(130,65,o),
(130,85,cs),
(130,123,o),
(168,176,o),
(240,200,c),
(228,217,l),
(226,139,o),
(198,51,o),
(157,51,cs)
);
},
{
ref = _suwet_ka;
},
{
closed = 1;
nodes = (
(550,60,o),
(484,132,o),
(480,237,c),
(466,224,l),
(582,221,o),
(673,175,o),
(671,111,cs),
(670,79,o),
(647,60,o),
(614,60,cs)
);
}
);
width = 1295;
},
{
anchors = (
{
name = bottom;
pos = (1216,0);
},
{
name = top;
pos = (393,650);
}
);
associatedMasterId = m002;
layerId = m003;
name = Bold;
shapes = (
{
closed = 1;
nodes = (
(257,-10,o),
(289,119,o),
(294,220,c),
(283,213,l),
(329,230,o),
(383,232,o),
(432,228,c),
(438,288,l),
(355,288,o),
(302,278,o),
(279,272,c),
(239,264,l),
(131,231,o),
(63,151,o),
(63,79,cs),
(63,23,o),
(101,-10,o),
(150,-10,cs)
);
},
{
closed = 1;
nodes = (
(139,51,o),
(130,66,o),
(130,85,cs),
(130,123,o),
(168,176,o),
(240,200,c),
(228,217,l),
(226,139,o),
(197,51,o),
(158,51,cs)
);
},
{
alignment = -1;
pos = (-8,0);
ref = _na_tenas;
},
{
pos = (62,0);
ref = _na_batis;
},
{
alignment = -1;
pos = (62,0);
ref = _na_bangkiang;
},
{
pos = (41,0);
ref = _ha_bangkiang;
},
{
pos = (71,0);
ref = _ha_geluungan_ha;
},
{
ref = _suwet_ka;
}
);
width = 1275;
}
);
metricLeft = "na-bali";
metricRight = "ha-bali";
unicode = 6981;
}
{
glyphname = "khotSasak-bali";
kernLeft = "ka-bali";
layers = (
{
anchors = (
{
name = bottom;
pos = (1850,0);
},
{
name = top;
pos = (951,650);
}
);
layerId = m002;
name = Regular;
shapes = (
{
closed = 1;
nodes = (
(1000,-5,l),
(1010,62,l),
(1002,66,l),
(923,66,o),
(856,87,o),
(856,177,cs),
(856,225,o),
(856,258,o),
(855,291,c),
(779,291,l),
(778,254,o),
(778,216,o),
(778,184,cs),
(778,38,o),
(868,-10,o),
(990,-10,c)
);
},
{
alignment = -1;
pos = (-8,0);
ref = _na_baong;
},
{
alignment = -1;
pos = (-8,0);
ref = _na_tenas;
},
{
alignment = -1;
pos = (10,0);
ref = _na_batis;
},
{
alignment = -1;
pos = (10,0);
ref = _na_bangkiang;
},
{
alignment = -1;
pos = (676,0);
ref = _ha_bali_core;
},
{
alignment = -1;
pos = (676,0);
ref = _ha_bangkiang;
},
{
alignment = -1;
pos = (696,0);
ref = _ha_tundun_ha;
},
{
alignment = -1;
pos = (706,0);
ref = _ha_geluungan_ha;
}
);
width = 1930;
},
{
anchors = (
{
name = bottom;
pos = (1850,0);
},
{
name = top;
pos = (393,650);
}
);
associatedMasterId = m002;
layerId = m003;
name = Bold;
shapes = (
{
closed = 1;
nodes = (
(1000,-5,l),
(1010,62,l),
(1002,66,l),
(923,66,o),
(856,87,o),
(856,186,cs),
(856,225,o),
(856,258,o),
(855,291,c),
(779,291,l),
(778,254,o),
(779,216,o),
(779,164,cs),
(779,38,o),
(868,-10,o),
(990,-10,c)
);
},
{
alignment = -1;
pos = (-8,0);
ref = _na_baong;
},
{
alignment = -1;
pos = (-8,0);
ref = _na_tenas;
},
{
alignment = -1;
pos = (10,0);
ref = _na_batis;
},
{
alignment = -1;
pos = (10,0);
ref = _na_bangkiang;
},
{
alignment = -1;
pos = (676,0);
ref = _ha_bali_core;
},
{
alignment = -1;
pos = (676,0);
ref = _ha_bangkiang;
},
{
alignment = -1;
pos = (696,0);
ref = _ha_tundun_ha;
},
{
alignment = -1;
pos = (706,0);
ref = _ha_geluungan_ha;
}
);
width = 1910;
}
);
metricLeft = "na-bali";
metricRight = "ha-bali";
unicode = 6982;
}
{
glyphname = "five-bali";
layers = (
{
layerId = m002;
name = Regular;
shapes = (
{
closed = 1;
nodes = (
(568,-340,l),
(568,-271,ls),
(568,-38,o),
(681,127,o),
(681,300,cs),
(681,494,o),
(549,605,o),
(367,605,cs),
(214,605,o),
(58,506,o),
(58,289,cs),
(58,87,o),
(192,-10,o),
(339,-10,cs),
(445,-10,o),
(521,41,o),
(521,141,cs),
(521,206,o),
(489,246,o),
(432,264,c),
(432,267,l),
(476,284,o),
(495,318,o),
(495,358,cs),
(495,423,o),
(443,456,o),
(385,456,cs),
(347,456,o),
(297,442,o),
(262,408,c),
(268,430,l),
(303,359,l),
(290,363,l),
(317,383,o),
(345,394,o),
(370,394,cs),
(402,394,o),
(421,377,o),
(421,345,cs),
(421,308,o),
(396,273,o),
(321,274,c),
(330,292,l),
(330,209,l),
(316,225,l),
(406,234,o),
(448,203,o),
(448,148,cs),
(448,95,o),
(409,61,o),
(338,61,cs),
(241,61,o),
(135,125,o),
(135,292,cs),
(135,471,o),
(256,539,o),
(365,539,cs),
(521,539,o),
(611,433,o),
(611,301,cs),
(611,134,o),
(493,-26,o),
(493,-282,cs),
(493,-340,l)
);
}
);
width = 739;
},
{
associatedMasterId = m002;
layerId = m003;
name = Bold;
shapes = (
{
closed = 1;
nodes = (
(547,-340,l),
(547,-271,ls),
(547,-38,o),
(695,127,o),
(695,300,cs),
(695,506,o),
(561,611,o),
(385,611,cs),
(201,611,o),
(73,459,o),
(73,285,cs),
(73,93,o),
(198,-10,o),
(328,-10,cs),
(438,-10,o),
(506,44,o),
(506,132,cs),
(506,190,o),
(476,243,o),
(396,250,c),
(396,253,l),
(450,272,o),
(471,315,o),
(471,357,cs),
(471,420,o),
(424,448,o),
(374,448,cs),
(336,448,o),
(293,431,o),
(253,382,c),
(273,348,l),
(304,376,o),
(328,394,o),
(358,394,cs),
(387,394,o),
(405,377,o),
(405,351,cs),
(405,314,o),
(367,261,o),
(293,261,c),
(293,227,l),
(398,227,o),
(437,195,o),
(437,144,cs),
(437,89,o),
(392,60,o),
(323,60,cs),
(221,60,o),
(131,126,o),
(131,273,cs),
(131,422,o),
(229,547,o),
(388,547,cs),
(536,547,o),
(622,449,o),
(622,291,cs),
(622,125,o),
(477,-26,o),
(477,-282,cs),
(477,-340,l)
);
}
);
width = 600;
}
);
metricLeft = "four-bali";
metricRight = "nya-bali";
unicode = 6997;
}
{
glyphname = "eight-bali";
layers = (
{
layerId = m002;
name = Regular;
shapes = (
{
ref = "paKapal-bali";
}
);
width = 733;
},
{
associatedMasterId = m002;
layerId = m003;
name = Bold;
shapes = (
{
closed = 1;
nodes = (
(550,-11,o),
(616,52,o),
(616,206,cs),
(616,545,ls),
(616,660,o),
(585,710,o),
(512,710,cs),
(433,710,o),
(398,647,o),
(400,580,cs),
(404,473,o),
(494,420,o),
(578,420,cs),
(661,420,o),
(716,459,o),
(757,553,c),
(724,584,l),
(686,514,o),
(644,494,o),
(586,494,cs),
(532,494,o),
(455,526,o),
(455,590,cs),
(455,625,o),
(474,647,o),
(504,647,cs),
(536,647,o),
(563,626,o),
(563,545,cs),
(563,204,ls),
(563,82,o),
(497,48,o),
(408,48,cs),
(303,48,o),
(239,96,o),
(239,224,cs),
(239,412,ls),
(239,500,o),
(193,555,o),
(128,555,cs),
(52,555,o),
(16,481,o),
(21,398,c),
(76,398,l),
(76,459,o),
(102,483,o),
(130,483,cs),
(157,483,o),
(188,461,o),
(188,401,cs),
(188,224,ls),
(188,64,o),
(249,-11,o),
(406,-11,cs)
);
}
);
width = 770;
}
);
unicode = 7000;
}
{
glyphname = "daing-bali";
layers = (
{
layerId = m002;
name = Regular;
shapes = (
{
closed = 1;
nodes = (
(391,-769,o),
(406,-742,o),
(402,-724,cs),
(395,-692,o),
(391,-661,o),
(391,-632,cs),
(391,-489,o),
(485,-422,o),
(582,-422,cs),
(803,-422,o),
(780,-769,o),
(993,-769,cs),
(1085,-769,o),
(1152,-704,o),
(1152,-553,cs),
(1152,502,l),
(1145,482,l),
(1213,484,o),
(1235,447,o),
(1235,372,c),
(1235,-759,l),
(1311,-759,l),
(1311,376,l),
(1311,498,o),
(1266,550,o),
(1143,550,cs),
(1133,550,l),
(1084,507,l),
(1084,-535,ls),
(1084,-653,o),
(1043,-698,o),
(993,-698,cs),
(852,-698,o),
(842,-349,o),
(586,-349,cs),
(439,-349,o),
(326,-464,o),
(326,-623,cs),
(326,-656,o),
(331,-689,o),
(341,-723,c),
(368,-714,l),
(296,-704,o),
(222,-623,o),
(222,-508,cs),
(222,-372,o),
(327,-285,o),
(503,-191,cs),
(724,-73,ls),
(821,-21,o),
(1024,68,o),
(1024,320,cs),
(1024,461,o),
(959,555,o),
(837,555,cs),
(755,555,o),
(698,513,o),
(667,451,c),
(661,451,l),
(634,522,o),
(577,555,o),
(503,555,cs),
(393,555,o),
(314,482,o),
(314,322,cs),
(314,213,o),
(351,132,o),
(418,46,c),
(443,60,l),
(390,62,ls),
(301,65,o),
(254,96,o),
(254,185,cs),
(254,259,o),
(286,373,o),
(286,436,cs),
(286,513,o),
(238,555,o),
(171,555,cs),
(95,555,o),
(49,501,o),
(49,431,cs),
(49,375,o),
(78,327,o),
(93,303,c),
(68,303,l),
(161,350,l),
(153,324,l),
(136,355,o),
(118,393,o),
(118,430,cs),
(118,464,o),
(133,485,o),
(163,485,cs),
(197,485,o),
(207,459,o),
(207,418,cs),
(207,344,o),
(174,247,o),
(174,174,cs),
(174,70,o),
(240,-10,o),
(397,-10,cs),
(461,-10,ls),
(491,-10,o),
(503,3,o),
(503,19,cs),
(503,29,o),
(498,40,o),
(484,57,cs),
(411,147,o),
(386,236,o),
(386,316,cs),
(386,425,o),
(431,479,o),
(504,479,cs),
(564,479,o),
(620,444,o),
(640,332,c),
(625,345,l),
(700,345,l),
(681,336,l),
(700,426,o),
(751,479,o),
(825,479,cs),
(901,479,o),
(944,423,o),
(944,312,cs),
(944,167,o),
(871,84,o),
(705,-3,cs),
(482,-120,ls),
(310,-210,o),
(144,-312,o),
(144,-510,cs),
(144,-698,o),
(297,-769,o),
(355,-769,cs)
);
}
);
width = 1391;
},
{
associatedMasterId = m002;
layerId = "90E1D1FB-914B-4BBA-867B-908BE494E16B";
name = "6 Jun 23 15.35";
shapes = (
{
closed = 1;
nodes = (
(379,-769,o),
(394,-742,o),
(390,-724,cs),
(383,-691,o),
(379,-661,o),
(379,-634,cs),
(379,-487,o),
(473,-422,o),
(572,-422,cs),
(784,-422,o),
(779,-769,o),
(972,-769,cs),
(1077,-769,o),
(1140,-704,o),
(1140,-553,cs),
(1140,291,l),
(1072,291,l),
(1072,-535,ls),
(1072,-653,o),
(1035,-697,o),
(973,-698,cs),
(850,-699,o),
(825,-349,o),
(575,-349,cs),
(426,-349,o),
(314,-464,o),
(314,-624,cs),
(314,-656,o),
(319,-689,o),
(329,-723,c),
(356,-714,l),
(278,-701,o),
(210,-623,o),
(210,-502,cs),
(210,-372,o),
(316,-281,o),
(491,-211,cs),
(712,-123,ls),
(815,-82,o),
(1000,-8,o),
(997,208,cs),
(995,353,ls),
(993,473,o),
(932,555,o),
(825,555,c),
(816,479,l),
(883,479,o),
(919,437,o),
(921,348,cs),
(924,211,ls),
(928,29,o),
(762,-27,o),
(693,-54,cs),
(470,-142,ls),
(290,-213,o),
(132,-312,o),
(132,-510,cs),
(132,-699,o),
(285,-769,o),
(344,-769,cs)
);
},
{
pos = (33,0);
ref = _nga_tenas;
},
{
pos = (10,0);
ref = _okara_tenas;
},
{
closed = 1;
nodes = (
(1299,-759,l),
(1299,0,l),
(1292,10,l),
(1228,10,l),
(1223,0,l),
(1223,-759,l)
);
},
{
pos = (155,0);
ref = _ha_geluungan_ha;
}
);
width = 1349;
},
{
associatedMasterId = m002;
layerId = "492FF3F9-4666-4D84-A099-B6CB8D98AE07";
name = Regular;
shapes = (
{
closed = 1;
nodes = (
(379,-769,o),
(394,-742,o),
(390,-724,cs),
(383,-691,o),
(379,-661,o),
(379,-634,cs),
(379,-487,o),
(473,-422,o),
(572,-422,cs),
(784,-422,o),
(779,-769,o),
(972,-769,cs),
(1077,-769,o),
(1140,-704,o),
(1140,-553,cs),
(1140,291,l),
(1072,291,l),
(1072,-535,ls),
(1072,-653,o),
(1035,-697,o),
(973,-698,cs),
(850,-699,o),
(825,-349,o),
(575,-349,cs),
(426,-349,o),
(314,-464,o),
(314,-624,cs),
(314,-656,o),
(319,-689,o),
(329,-723,c),
(356,-714,l),
(278,-701,o),
(210,-623,o),
(210,-502,cs),
(210,-372,o),
(316,-281,o),
(491,-211,cs),
(712,-123,ls),
(815,-82,o),
(1000,-8,o),
(997,208,cs),
(995,353,ls),
(993,473,o),
(932,555,o),
(825,555,c),
(816,479,l),
(883,479,o),
(919,437,o),
(921,348,cs),
(924,211,ls),
(928,29,o),
(762,-27,o),
(693,-54,cs),
(470,-142,ls),
(290,-213,o),
(132,-312,o),
(132,-510,cs),
(132,-699,o),
(285,-769,o),
(344,-769,cs)
);
},
{
pos = (33,0);
ref = _nga_tenas;
},
{
pos = (10,0);
ref = _okara_tenas;
},
{
closed = 1;
nodes = (
(1299,-759,l),
(1299,0,l),
(1292,10,l),
(1228,10,l),
(1223,0,l),
(1223,-759,l)
);
},
{
pos = (155,0);
ref = _ha_geluungan_ha;
}
);
width = 1349;
},
{
associatedMasterId = m002;
layerId = m003;
name = Bold;
shapes = (
{
closed = 1;
nodes = (
(379,-769,o),
(394,-742,o),
(390,-724,cs),
(383,-691,o),
(379,-661,o),
(379,-634,cs),
(379,-487,o),
(473,-422,o),
(572,-422,cs),
(784,-422,o),
(779,-769,o),
(972,-769,cs),
(1077,-769,o),
(1140,-704,o),
(1140,-553,cs),
(1140,291,l),
(1072,291,l),
(1072,-535,ls),
(1072,-653,o),
(1035,-697,o),
(973,-698,cs),
(850,-699,o),
(825,-349,o),
(575,-349,cs),
(426,-349,o),
(314,-464,o),
(314,-624,cs),
(314,-656,o),
(319,-689,o),
(329,-723,c),
(356,-714,l),
(278,-701,o),
(210,-623,o),
(210,-502,cs),
(210,-372,o),
(325,-279,o),
(491,-191,cs),
(712,-73,ls),
(809,-21,o),
(1012,68,o),
(1012,320,cs),
(1012,461,o),
(947,555,o),
(825,555,c),
(816,479,l),
(884,479,o),
(930,423,o),
(932,321,cs),
(932,167,o),
(865,87,o),
(693,-3,cs),
(470,-120,ls),
(298,-210,o),
(132,-312,o),
(132,-510,cs),
(132,-699,o),
(285,-769,o),
(344,-769,cs)
);
},
{
pos = (33,0);
ref = _nga_tenas;
},
{
pos = (10,0);
ref = _okara_tenas;
},
{
closed = 1;
nodes = (
(1299,-759,l),
(1299,0,l),
(1292,10,l),
(1228,10,l),
(1223,0,l),
(1223,-759,l)
);
},
{
pos = (155,0);
ref = _ha_geluungan_ha;
}
);
width = 1349;
},
{
associatedMasterId = m002;
layerId = "03ED52E5-28F7-407E-9C6C-F08BD89B82FE";
name = Bold;
shapes = (
{
closed = 1;
nodes = (
(379,-769,o),
(394,-742,o),
(390,-724,cs),
(383,-691,o),
(379,-661,o),
(379,-634,cs),
(379,-487,o),
(473,-422,o),
(572,-422,cs),
(784,-422,o),
(779,-769,o),
(972,-769,cs),
(1077,-769,o),
(1140,-704,o),
(1140,-553,cs),
(1140,291,l),
(1072,291,l),
(1072,-535,ls),
(1072,-653,o),
(1035,-697,o),
(973,-698,cs),
(850,-699,o),
(825,-349,o),
(575,-349,cs),
(426,-349,o),
(314,-464,o),
(314,-624,cs),
(314,-656,o),
(319,-689,o),
(329,-723,c),
(356,-714,l),
(278,-701,o),
(210,-623,o),
(210,-502,cs),
(210,-372,o),
(316,-281,o),
(491,-211,cs),
(712,-123,ls),
(815,-82,o),
(1000,-8,o),
(997,208,cs),
(995,353,ls),
(993,473,o),
(932,555,o),
(825,555,c),
(816,479,l),
(883,479,o),
(919,437,o),
(921,348,cs),
(924,211,ls),
(928,29,o),
(762,-27,o),
(693,-54,cs),
(470,-142,ls),
(290,-213,o),
(132,-312,o),
(132,-510,cs),
(132,-699,o),
(285,-769,o),
(344,-769,cs)
);
},
{
pos = (33,0);
ref = _nga_tenas;
},
{
pos = (10,0);
ref = _okara_tenas;
},
{
closed = 1;
nodes = (
(1299,-759,l),
(1299,0,l),
(1292,10,l),
(1228,10,l),
(1223,0,l),
(1223,-759,l)
);
},
{
pos = (155,0);
ref = _ha_geluungan_ha;
}
);
width = 1349;
}
);
metricLeft = "okara-bali";
metricRight = "ha-bali";
unicode = 7017;
}
{
glyphname = "rightHandOpenDug-bali";
layers = (
{
layerId = m002;
name = Regular;
shapes = (
{
closed = 1;
nodes = (
(84,0,l),
(277,468,l),
(226,468,l),
(403,0,l),
(477,0,l),
(264,545,l),
(242,545,l),
(10,0,l)
);
}
);
width = 477;
},
{
associatedMasterId = m002;
layerId = m003;
name = Bold;
shapes = (
{
closed = 1;
nodes = (
(86,0,l),
(279,468,l),
(265,468,l),
(442,0,l),
(497,0,l),
(284,545,l),
(262,545,l),
(30,0,l)
);
}
);
width = 527;
}
);
unicode = 7028;
}
{
glyphname = "rightHandOpenDag-bali";
layers = (
{
layerId = m002;
name = Regular;
shapes = (
{
ref = "zero-bali";
}
);
width = 588;
},
{
associatedMasterId = m002;
layerId = m003;
name = Bold;
shapes = (
{
closed = 1;
nodes = (
(424,-10,o),
(487,90,o),
(487,278,cs),
(487,458,o),
(423,555,o),
(304,555,cs),
(185,555,o),
(120,457,o),
(120,278,cs),
(120,90,o),
(184,-10,o),
(304,-10,cs)
);
},
{
closed = 1;
nodes = (
(221,65,o),
(173,145,o),
(173,278,cs),
(173,402,o),
(221,481,o),
(304,481,cs),
(386,481,o),
(434,402,o),
(434,278,cs),
(434,145,o),
(387,65,o),
(304,65,cs)
);
}
);
width = 600;
}
);
unicode = 7029;
}
{
glyphname = quoteleft;
kernLeft = asterisk;
kernRight = asterisk;
layers = (
{
anchors = (
{
name = _quoteleft;
pos = (64,504);
},
{
name = quoteleft;
pos = (222,504);
}
);
layerId = m002;
shapes = (
{
closed = 1;
nodes = (
(149,460,l),
(149,544,l),
(110,544,ls),
(103,544,o),
(99,547,o),
(99,555,cs),
(99,617,o),
(113,656,o),
(171,668,c),
(167,664,l),
(157,705,l),
(163,701,l),
(92,693,o),
(51,645,o),
(51,549,cs),
(51,460,l)
);
}
);
width = 216;
}
);
unicode = 8216;
}
{
glyphname = quoteright;
kernLeft = asterisk;
kernRight = asterisk;
layers = (
{
anchors = (
{
name = _quoteleft;
pos = (54,700);
},
{
name = quoteleft;
pos = (212,700);
}
);
layerId = m002;
shapes = (
{
closed = 1;
nodes = (
(53,459,l),
(124,467,o),
(165,515,o),
(165,611,cs),
(165,700,l),
(67,700,l),
(67,616,l),
(108,616,ls),
(113,616,o),
(117,613,o),
(117,607,cs),
(116,544,o),
(103,504,o),
(45,492,c),
(49,496,l),
(59,455,l)
);
}
);
width = 216;
}
);
metricLeft = "=|quoteleft";
metricRight = "=|quoteleft";
unicode = 8217;
}
{
glyphname = dagger;
layers = (
{
layerId = m002;
shapes = (
{
closed = 1;
nodes = (
(276,-205,l),
(276,500,l),
(258,480,l),
(426,480,l),
(426,545,l),
(260,545,l),
(276,528,l),
(276,700,l),
(204,700,l),
(204,531,l),
(222,545,l),
(54,545,l),
(54,480,l),
(220,480,l),
(204,497,l),
(204,-205,l)
);
}
);
width = 480;
}
);
metricRight = "=|";
unicode = 8224;
}
{
glyphname = fraction;
layers = (
{
layerId = m002;
shapes = (
{
closed = 1;
nodes = (
(-155,0,l),
(310,700,l),
(253,700,l),
(-213,0,l)
);
}
);
width = 140;
}
);
unicode = 8260;
}
{
glyphname = nineinferior;
layers = (
{
background = {
shapes = (
{
pos = (-26,0);
ref = zero;
}
);
};
layerId = m002;
shapes = (
{
closed = 1;
nodes = (
(199,-156,o),
(249,-114,o),
(249,6,cs),
(249,88,o),
(224,169,o),
(131,169,cs),
(64,169,o),
(17,124,o),
(17,60,cs),
(17,-3,o),
(64,-42,o),
(119,-42,cs),
(146,-42,o),
(180,-33,o),
(198,-3,c),
(198,-3,l),
(198,-6,o),
(198,-9,o),
(198,-12,cs),
(198,-50,o),
(189,-109,o),
(129,-109,cs),
(98,-109,o),
(71,-94,o),
(74,-51,c),
(89,-61,l),
(14,-64,l),
(22,-46,l),
(16,-115,o),
(60,-156,o),
(129,-156,cs)
);
},
{
closed = 1;
nodes = (
(89,2,o),
(67,27,o),
(67,61,cs),
(67,98,o),
(92,122,o),
(130,122,cs),
(164,122,o),
(187,101,o),
(187,64,cs),
(187,26,o),
(163,2,o),
(126,2,cs)
);
}
);
userData = {
RMXScaler = {
height = 45;
verticalShift = -151;
weight = -27;
width = 47;
};
};
width = 269;
},
{
associatedMasterId = m002;
layerId = "5A34A97B-68C0-49CB-87F0-3674E21FEF2B";
name = "16 Jun 23 14.36";
shapes = (
{
closed = 1;
nodes = (
(99,-10,ls),
(319,-10,o),
(481,170,o),
(481,413,cs),
(481,596,o),
(387,700,o),
(252,700,cs),
(121,700,o),
(27,601,o),
(27,480,cs),
(27,357,o),
(122,264,o),
(239,264,cs),
(324,264,o),
(385,312,o),
(434,385,c),
(427,459,l),
(382,389,o),
(333,336,o),
(249,336,cs),
(163,336,o),
(103,391,o),
(103,477,cs),
(103,561,o),
(160,625,o),
(247,625,cs),
(335,625,o),
(401,560,o),
(401,409,cs),
(401,205,o),
(278,60,o),
(101,60,cs),
(67,60,l),
(67,-10,l)
);
}
);
width = 528;
},
{
associatedMasterId = m002;
background = {
shapes = (
{
pos = (-55,0);
ref = zero;
}
);
};
layerId = "955855CE-9757-4A4F-BA12-AD45C95FFA73";
name = "16 Jun 23 14.45";
shapes = (
{
closed = 1;
nodes = (
(391,-10,o),
(486,102,o),
(486,350,cs),
(486,384,ls),
(486,596,o),
(406,710,o),
(252,710,cs),
(119,710,o),
(25,601,o),
(25,480,cs),
(25,342,o),
(120,249,o),
(239,249,cs),
(324,249,o),
(385,297,o),
(426,391,c),
(395,471,l),
(395,380,o),
(333,327,o),
(249,327,cs),
(163,327,o),
(103,382,o),
(103,477,cs),
(103,561,o),
(160,632,o),
(247,632,cs),
(346,632,o),
(399,558,o),
(399,407,cs),
(399,342,ls),
(399,173,o),
(356,69,o),
(240,69,cs),
(175,69,o),
(126,87,o),
(63,134,c),
(76,138,l),
(22,45,l),
(19,64,l),
(91,11,o),
(162,-10,o),
(238,-10,cs)
);
}
);
width = 528;
}
);
unicode = 8329;
userData = {
RMXScaler = {
source = nine;
};
};
}
{
glyphname = won;
kernLeft = W;
kernRight = W;
layers = (
{
anchors = (
{
name = bottom;
pos = (458,0);
},
{
name = top;
pos = (458,700);
}
);
layerId = m002;
shapes = (
{
closed = 1;
nodes = (
(310,0,l),
(441,534,ls),
(452,581,o),
(457,594,o),
(457,625,c),
(456,625,l),
(456,594,o),
(463,581,o),
(474,537,cs),
(610,0,l),
(722,0,l),
(886,700,l),
(794,700,l),
(674,153,ls),
(665,117,o),
(662,100,o),
(662,66,c),
(664,66,l),
(664,100,o),
(661,116,o),
(650,160,cs),
(513,700,l),
(402,700,l),
(268,150,ls),
(259,111,o),
(258,90,o),
(256,67,c),
(258,67,l),
(260,89,o),
(259,111,o),
(249,149,cs),
(123,700,l),
(29,700,l),
(200,0,l)
);
},
{
closed = 1;
nodes = (
(145,320,l),
(172,322,l),
(742,322,l),
(773,320,l),
(882,320,l),
(882,390,l),
(792,390,l),
(765,388,l),
(157,388,l),
(132,390,l),
(25,390,l),
(25,320,l)
);
}
);
width = 911;
}
);
metricLeft = W;
metricRight = W;
unicode = 8361;
}
{
glyphname = dong;
kernLeft = o;
kernRight = i;
layers = (
{
layerId = m002;
shapes = (
{
alignment = -1;
ref = dcroat;
},
{
closed = 1;
nodes = (
(591,-156,l),
(591,-90,l),
(53,-90,l),
(53,-156,l)
);
}
);
width = 628;
}
);
metricLeft = o;
metricRight = "=|hbar";
unicode = 8363;
}
{
glyphname = euro;
kernLeft = O;
kernRight = C;
layers = (
{
background = {
shapes = (
{
closed = 1;
nodes = (
(513,88,l),
(529,73,l),
(513,70,o),
(498,69,o),
(483,69,cs),
(342,69,o),
(239,167,o),
(239,352,cs),
(239,555,o),
(358,631,o),
(482,631,cs),
(498,631,o),
(512,629,o),
(526,627,c),
(516,614,l),
(540,717,l),
(555,703,l),
(530,708,o),
(505,710,o),
(479,710,cs),
(306,710,o),
(149,599,o),
(149,350,cs),
(149,123,o),
(281,-10,o),
(479,-10,cs),
(497,-10,o),
(518,-9,o),
(539,-6,c),
(533,-17,l)
);
}
);
};
layerId = m002;
shapes = (
{
alignment = -1;
pos = (44,0);
ref = C;
},
{
pos = (-36,8);
ref = _bar_hor_dbl_;
}
);
width = 763;
}
);
metricLeft = Eth;
metricRight = C;
unicode = 8364;
}
{
glyphname = ruble;
kernLeft = H;
kernRight = P;
layers = (
{
anchors = (
{
name = bottom;
pos = (295,0);
},
{
name = top;
pos = (295,700);
}
);
layerId = m002;
shapes = (
{
closed = 1;
nodes = (
(329,152,l),
(329,222,l),
(44,222,l),
(44,152,l)
);
},
{
closed = 1;
nodes = (
(167,290,l),
(167,365,l),
(44,365,l),
(44,290,l)
);
},
{
closed = 1;
nodes = (
(206,0,l),
(206,307,l),
(191,290,l),
(357,290,ls),
(496,290,o),
(567,385,o),
(567,494,cs),
(567,637,o),
(477,700,o),
(356,700,cs),
(119,700,l),
(119,0,l)
);
},
{
closed = 1;
nodes = (
(206,640,l),
(187,622,l),
(354,622,ls),
(448,622,o),
(481,571,o),
(481,503,cs),
(481,409,o),
(433,368,o),
(335,368,cs),
(189,368,l),
(206,340,l)
);
}
);
width = 597;
}
);
metricLeft = Eth;
metricRight = P;
unicode = 8381;
}
{
glyphname = careof;
layers = (
{
layerId = m002;
shapes = (
{
closed = 1;
nodes = (
(233,-60,l),
(632,740,l),
(569,740,l),
(169,-60,l)
);
},
{
pos = (24,0);
ref = csuperior;
},
{
pos = (424,-357);
ref = osuperior;
}
);
width = 834;
}
);
metricLeft = percent;
metricRight = percent;
unicode = 8453;
}
{
glyphname = numero;
kernLeft = H;
layers = (
{
layerId = m002;
shapes = (
{
ref = N;
},
{
pos = (664,0);
ref = osuperior;
},
{
closed = 1;
nodes = (
(993,231,l),
(993,290,l),
(717,290,l),
(717,231,l)
);
}
);
width = 1063;
}
);
metricLeft = N;
unicode = 8470;
}
{
glyphname = published;
layers = (
{
layerId = m002;
shapes = (
{
closed = 1;
nodes = (
(345,313,o),
(435,392,o),
(435,513,cs),
(435,630,o),
(351,710,o),
(237,710,cs),
(122,710,o),
(37,629,o),
(37,511,cs),
(37,392,o),
(125,313,o),
(235,313,cs)
);
},
{
closed = 1;
nodes = (
(148,356,o),
(84,419,o),
(84,512,cs),
(84,602,o),
(146,667,o),
(236,667,cs),
(326,667,o),
(388,604,o),
(388,511,cs),
(388,419,o),
(326,356,o),
(237,356,cs)
);
},
{
closed = 1;
nodes = (
(303,487,o),
(328,508,o),
(328,555,cs),
(328,600,o),
(299,623,o),
(262,623,cs),
(179,623,l),
(179,405,l),
(216,405,l),
(216,497,l),
(214,487,l),
(257,487,ls)
);
},
{
closed = 1;
nodes = (
(216,602,l),
(209,590,l),
(259,590,ls),
(283,590,o),
(291,579,o),
(291,557,cs),
(291,530,o),
(281,520,o),
(257,520,cs),
(210,520,l),
(216,510,l)
);
}
);
width = 600;
}
);
unicode = 8471;
}
{
glyphname = rightArrow;
layers = (
{
layerId = m002;
shapes = (
{
closed = 1;
nodes = (
(816,390,l),
(816,326,l),
(406,736,l),
(439,726,l),
(356,643,l),
(343,689,l),
(658,374,l),
(687,398,l),
(52,398,l),
(74,413,l),
(74,305,l),
(43,321,l),
(706,321,l),
(678,360,l),
(342,23,l),
(350,59,l),
(429,-20,l),
(407,-20,l)
);
}
);
width = 849;
}
);
unicode = 8594;
}
{
glyphname = southWestArrow;
layers = (
{
layerId = m002;
shapes = (
{
closed = 1;
nodes = (
(689,33,l),
(689,106,l),
(196,106,l),
(206,73,l),
(727,630,l),
(712,579,l),
(628,662,l),
(666,678,l),
(141,111,l),
(185,100,l),
(185,650,l),
(108,650,l),
(108,33,l)
);
}
);
width = 771;
}
);
metricLeft = "=|southEastArrow";
metricRight = "=|southEastArrow";
unicode = 8601;
}
{
glyphname = summation;
layers = (
{
layerId = m002;
shapes = (
{
closed = 1;
nodes = (
(364,-205,l),
(364,-140,l),
(76,-140,l),
(82,-177,l),
(299,251,l),
(299,254,l),
(82,669,l),
(78,635,l),
(364,635,l),
(364,700,l),
(30,700,l),
(30,614,l),
(24,642,l),
(220,256,l),
(220,251,l),
(25,-144,l),
(30,-118,l),
(30,-205,l)
);
}
);
width = 394;
}
);
unicode = 8721;
}
{
glyphname = approxequal;
layers = (
{
background = {
shapes = (
{
pos = (-45,0);
ref = equal;
}
);
};
layerId = m002;
shapes = (
{
closed = 1;
nodes = (
(376,349,o),
(404,359,o),
(434,379,c),
(434,449,l),
(404,429,o),
(376,419,o),
(348,419,cs),
(280,419,o),
(234,479,o),
(162,479,cs),
(131,479,o),
(102,468,o),
(75,449,c),
(75,379,l),
(104,400,o),
(130,409,o),
(156,409,cs),
(223,409,o),
(280,349,o),
(348,349,cs)
);
},
{
closed = 1;
nodes = (
(376,219,o),
(404,229,o),
(434,249,c),
(434,319,l),
(404,299,o),
(376,289,o),
(348,289,cs),
(280,289,o),
(234,349,o),
(162,349,cs),
(131,349,o),
(102,338,o),
(75,319,c),
(75,249,l),
(104,270,o),
(130,279,o),
(156,279,cs),
(223,279,o),
(280,219,o),
(348,219,cs)
);
}
);
width = 509;
}
);
metricLeft = minus;
metricRight = minus;
unicode = 8776;
}
{
glyphname = lozenge;
layers = (
{
layerId = m002;
shapes = (
{
closed = 1;
nodes = (
(264,0,l),
(404,348,l),
(404,352,l),
(264,700,l),
(188,700,l),
(48,352,l),
(48,348,l),
(188,0,l)
);
},
{
closed = 1;
nodes = (
(240,35,l),
(114,348,l),
(114,352,l),
(240,665,l),
(212,665,l),
(338,352,l),
(338,348,l),
(212,35,l)
);
}
);
width = 452;
}
);
metricRight = "=|";
unicode = 9674;
}
{
glyphname = leftHalfBlackWhiteCircle;
layers = (
{
layerId = m002;
shapes = (
{
closed = 1;
nodes = (
(620,-10,o),
(768,139,o),
(768,349,cs),
(768,559,o),
(619,710,o),
(412,710,cs),
(210,710,o),
(55,565,o),
(55,349,cs),
(55,137,o),
(205,-10,o),
(412,-10,cs)
);
},
{
closed = 1;
nodes = (
(222,14,o),
(82,150,o),
(82,351,cs),
(82,544,o),
(211,686,o),
(411,686,c),
(414,14,l)
);
}
);
width = 823;
}
);
metricRight = "=|";
unicode = 9680;
}
{
glyphname = rightHalfBlackWhiteCircle;
layers = (
{
layerId = m002;
shapes = (
{
closed = 1;
nodes = (
(618,-10,o),
(768,137,o),
(768,349,cs),
(768,565,o),
(613,710,o),
(411,710,cs),
(204,710,o),
(55,559,o),
(55,349,cs),
(55,139,o),
(203,-10,o),
(411,-10,cs)
);
},
{
closed = 1;
nodes = (
(412,686,l),
(612,686,o),
(741,544,o),
(741,351,cs),
(741,150,o),
(601,14,o),
(409,14,c)
);
}
);
width = 823;
}
);
unicode = 9681;
}
{
glyphname = peace;
layers = (
{
layerId = m002;
shapes = (
{
closed = 1;
nodes = (
(492,-10,o),
(612,104,o),
(612,273,cs),
(612,436,o),
(499,555,o),
(330,555,cs),
(167,555,o),
(47,443,o),
(47,274,cs),
(47,110,o),
(160,-10,o),
(329,-10,cs)
);
},
{
closed = 1;
nodes = (
(212,62,o),
(123,151,o),
(123,273,cs),
(123,391,o),
(207,482,o),
(329,482,cs),
(448,482,o),
(536,395,o),
(536,273,cs),
(536,155,o),
(453,62,o),
(331,62,cs)
);
},
{
closed = 1;
nodes = (
(310,329,l),
(109,130,l),
(135,103,l),
(310,278,l),
(310,28,l),
(351,28,l),
(351,276,l),
(524,104,l),
(549,130,l),
(351,328,l),
(351,511,l),
(310,511,l)
);
}
);
width = 659;
}
);
metricLeft = o;
metricRight = o;
unicode = 9774;
}
{
glyphname = whiteSmilingFace;
layers = (
{
layerId = m002;
shapes = (
{
closed = 1;
nodes = (
(620,-10,o),
(768,139,o),
(768,349,cs),
(768,559,o),
(619,710,o),
(412,710,cs),
(210,710,o),
(55,565,o),
(55,349,cs),
(55,137,o),
(205,-10,o),
(412,-10,cs)
);
},
{
closed = 1;
nodes = (
(244,51,o),
(120,173,o),
(120,351,cs),
(120,522,o),
(234,649,o),
(411,649,cs),
(585,649,o),
(703,526,o),
(703,350,cs),
(703,172,o),
(583,51,o),
(414,51,cs)
);
},
{
closed = 1;
nodes = (
(512,136,o),
(584,186,o),
(615,258,c),
(569,281,l),
(542,234,o),
(495,200,o),
(415,200,cs),
(333,200,o),
(286,236,o),
(259,283,c),
(214,259,l),
(242,193,o),
(312,136,o),
(414,136,cs)
);
},
{
closed = 1;
nodes = (
(348,379,o),
(381,413,o),
(381,454,cs),
(381,495,o),
(348,529,o),
(307,529,cs),
(266,529,o),
(232,495,o),
(232,454,cs),
(232,413,o),
(266,379,o),
(307,379,cs)
);
},
{
closed = 1;
nodes = (
(563,379,o),
(597,413,o),
(597,454,cs),
(597,495,o),
(563,529,o),
(522,529,cs),
(481,529,o),
(448,495,o),
(448,454,cs),
(448,413,o),
(481,379,o),
(522,379,cs)
);
}
);
width = 823;
}
);
metricRight = "=|";
unicode = 9786;
}
{
glyphname = warningSign;
layers = (
{
layerId = m002;
shapes = (
{
closed = 1;
nodes = (
(865,0,ls),
(911,0,o),
(936,20,o),
(936,51,cs),
(936,65,o),
(931,82,o),
(920,99,cs),
(561,671,ls),
(545,697,o),
(524,710,o),
(505,710,cs),
(485,710,o),
(464,697,o),
(448,671,cs),
(89,99,ls),
(78,82,o),
(73,65,o),
(73,51,cs),
(73,20,o),
(98,0,o),
(144,0,cs)
);
},
{
closed = 1;
nodes = (
(163,57,o),
(149,74,o),
(163,96,cs),
(476,603,ls),
(494,632,o),
(513,635,o),
(533,603,cs),
(850,96,ls),
(864,73,o),
(850,57,o),
(823,57,cs),
(189,57,ls)
);
},
{
closed = 1;
nodes = (
(520,105,ls),
(535,105,o),
(545,115,o),
(545,130,cs),
(545,157,ls),
(545,172,o),
(536,182,o),
(520,182,cs),
(489,182,ls),
(474,182,o),
(464,172,o),
(464,157,cs),
(464,130,ls),
(464,115,o),
(473,105,o),
(489,105,cs)
);
},
{
closed = 1;
nodes = (
(509,205,ls),
(526,205,o),
(537,213,o),
(538,232,cs),
(552,442,ls),
(553,461,o),
(544,471,o),
(525,471,cs),
(484,471,ls),
(465,471,o),
(456,461,o),
(457,442,cs),
(471,232,ls),
(472,213,o),
(483,205,o),
(500,205,cs)
);
}
);
width = 1009;
}
);
metricRight = "=|";
unicode = 9888;
}
{
glyphname = heavyCheckMark;
layers = (
{
layerId = m002;
shapes = (
{
closed = 1;
nodes = (
(83,26,o),
(124,-10,o),
(173,-10,cs),
(219,-10,o),
(265,4,o),
(312,87,cs),
(615,625,ls),
(623,639,o),
(626,651,o),
(626,662,cs),
(626,693,o),
(597,710,o),
(566,710,cs),
(539,710,o),
(521,698,o),
(502,664,cs),
(232,178,ls),
(216,149,o),
(199,132,o),
(182,132,cs),
(167,132,o),
(153,145,o),
(141,173,cs),
(106,257,ls),
(92,291,o),
(60,308,o),
(32,308,cs),
(4,308,o),
(-22,290,o),
(-22,259,cs),
(-22,248,o),
(-19,235,o),
(-12,221,cs),
(46,102,ls)
);
}
);
width = 600;
}
);
unicode = 10004;
}
{
glyphname = whitelenticularbracketright;
kernLeft = parenright;
kernRight = parenright;
layers = (
{
layerId = m002;
shapes = (
{
closed = 1;
nodes = (
(350,-205,l),
(350,700,l),
(30,700,l),
(140,520,o),
(197,383,o),
(197,244,cs),
(197,109,o),
(142,-27,o),
(29,-205,c)
);
},
{
closed = 1;
nodes = (
(333,-148,l),
(94,-148,l),
(120,-176,l),
(213,-16,o),
(258,112,o),
(258,240,cs),
(258,372,o),
(210,504,o),
(121,670,c),
(93,643,l),
(333,643,l),
(288,683,l),
(288,-188,l)
);
}
);
width = 447;
}
);
metricLeft = blacklenticularbracketright;
metricRight = blacklenticularbracketright;
unicode = 12311;
}
{
export = 0;
glyphname = _D_strokeshortcomb;
layers = (
{
anchors = (
{
name = _center;
pos = (92,350);
}
);
layerId = m002;
shapes = (
{
closed = 1;
nodes = (
(444,321,l),
(444,393,l),
(17,393,l),
(17,321,l)
);
}
);
width = 689;
}
);
}
{
export = 0;
glyphname = _aikara_ikuh;
layers = (
{
layerId = m002;
shapes = (
{
closed = 1;
nodes = (
(508,-769,o),
(523,-570,o),
(662,-570,cs),
(812,-570,o),
(796,-769,o),
(977,-769,cs),
(1070,-769,o),
(1145,-704,o),
(1145,-553,cs),
(1145,291,l),
(1077,291,l),
(1077,-535,ls),
(1077,-653,o),
(1040,-698,o),
(978,-698,cs),
(851,-699,o),
(850,-496,o),
(659,-496,cs),
(499,-496,o),
(464,-697,o),
(322,-697,cs),
(242,-697,o),
(184,-621,o),
(184,-526,cs),
(184,-504,ls),
(184,-131,o),
(1013,-182,o),
(1002,320,cs),
(999,461,o),
(937,555,o),
(815,555,c),
(806,479,l),
(874,479,o),
(920,423,o),
(922,321,cs),
(932,-128,o),
(107,-67,o),
(107,-502,cs),
(107,-534,ls),
(107,-670,o),
(202,-769,o),
(318,-769,cs)
);
}
);
width = 1206;
},
{
associatedMasterId = m002;
layerId = "DD01EE94-6BEF-47C2-8ADC-3C0C9212A69B";
name = "23 May 23 15.16";
shapes = (
{
closed = 1;
nodes = (
(498,-769,o),
(564,-570,o),
(681,-570,cs),
(812,-570,o),
(803,-769,o),
(977,-769,cs),
(1082,-769,o),
(1145,-704,o),
(1145,-553,cs),
(1145,291,l),
(1077,291,l),
(1077,-535,ls),
(1077,-653,o),
(1040,-697,o),
(978,-698,cs),
(865,-699,o),
(856,-496,o),
(686,-496,cs),
(523,-496,o),
(463,-697,o),
(322,-697,cs),
(242,-697,o),
(181,-631,o),
(181,-516,cs),
(181,-490,ls),
(181,-344,o),
(305,-279,o),
(430,-230,cs),
(702,-123,ls),
(805,-83,o),
(990,-8,o),
(987,208,cs),
(985,353,ls),
(983,473,o),
(922,555,o),
(815,555,c),
(806,479,l),
(873,479,o),
(909,437,o),
(911,348,cs),
(914,211,ls),
(918,29,o),
(752,-27,o),
(683,-54,cs),
(410,-161,ls),
(253,-222,o),
(103,-308,o),
(103,-500,cs),
(103,-525,ls),
(103,-681,o),
(202,-769,o),
(318,-769,cs)
);
}
);
width = 1206;
}
);
}
{
export = 0;
glyphname = _akara;
layers = (
{
layerId = m002;
shapes = (
{
closed = 1;
nodes = (
(418,-10,o),
(494,41,o),
(494,141,cs),
(494,206,o),
(462,246,o),
(405,264,c),
(405,267,l),
(449,284,o),
(468,318,o),
(468,358,cs),
(468,423,o),
(416,456,o),
(360,456,cs),
(319,456,o),
(269,439,o),
(235,408,c),
(241,430,l),
(276,359,l),
(263,363,l),
(290,383,o),
(318,394,o),
(343,394,cs),
(375,394,o),
(394,377,o),
(394,345,cs),
(394,308,o),
(369,273,o),
(294,274,c),
(303,292,l),
(303,209,l),
(289,225,l),
(379,234,o),
(421,203,o),
(421,148,cs),
(421,95,o),
(382,61,o),
(311,61,cs),
(214,61,o),
(108,125,o),
(108,292,cs),
(108,471,o),
(229,539,o),
(338,539,cs),
(392,539,o),
(458,522,o),
(497,488,c),
(479,484,l),
(527,557,l),
(524,545,l),
(468,588,o),
(403,605,o),
(340,605,cs),
(187,605,o),
(31,506,o),
(31,289,cs),
(31,87,o),
(165,-10,o),
(312,-10,cs)
);
}
);
width = 1062;
}
);
}
{
export = 0;
glyphname = _bottom_E;
layers = (
{
anchors = (
{
name = _bottom;
pos = (143,0);
}
);
layerId = m002;
shapes = (
{
closed = 1;
nodes = (
(496,0,l),
(496,78,l),
(143,78,l),
(143,0,l)
);
}
);
width = 600;
}
);
}
{
export = 0;
glyphname = _center_E;
layers = (
{
anchors = (
{
name = _center;
pos = (143,313);
}
);
layerId = m002;
shapes = (
{
closed = 1;
nodes = (
(471,307,l),
(471,383,l),
(143,383,l),
(143,307,l)
);
}
);
width = 600;
}
);
}
{
export = 0;
glyphname = _dot_ulu_bali;
layers = (
{
anchors = (
{
name = _dot_ulu_bali;
pos = (247,772);
}
);
layerId = m002;
shapes = (
{
closed = 1;
nodes = (
(275,772,o),
(299,794,o),
(299,824,cs),
(299,854,o),
(278,876,o),
(247,876,cs),
(217,876,o),
(195,854,o),
(195,824,cs),
(195,793,o),
(219,772,o),
(247,772,cs)
);
}
);
width = 600;
}
);
}
{
export = 0;
glyphname = _ha_geluungan_ha;
layers = (
{
anchors = (
{
name = _ha_geluungan_ha;
pos = (916,291);
}
);
background = {
shapes = (
{
closed = 1;
nodes = (
(1144,0,l),
(1144,376,ls),
(1144,498,o),
(1099,550,o),
(976,550,cs),
(966,550,l),
(917,507,l),
(917,291,l),
(927,281,l),
(974,281,l),
(985,291,l),
(985,502,l),
(978,482,l),
(1046,484,o),
(1068,447,o),
(1068,372,cs),
(1068,0,l)
);
},
{
closed = 1;
nodes = (
(744,0,l),
(744,396,ls),
(744,518,o),
(709,550,o),
(649,550,cs),
(619,550,o),
(590,529,o),
(574,505,c),
(585,417,l),
(587,452,o),
(602,474,o),
(626,474,cs),
(652,474,o),
(668,456,o),
(668,392,cs),
(668,0,l)
);
},
{
closed = 1;
nodes = (
(574,281,l),
(585,291,l),
(585,466,l),
(578,492,o),
(590,545,o),
(528,545,c),
(517,545,l),
(517,291,l),
(527,281,l)
);
}
);
};
layerId = m002;
shapes = (
{
closed = 1;
nodes = (
(1144,0,l),
(1144,376,ls),
(1144,498,o),
(1099,550,o),
(976,550,cs),
(966,550,l),
(917,507,l),
(917,291,l),
(927,281,l),
(974,281,l),
(985,291,l),
(985,502,l),
(978,482,l),
(1046,484,o),
(1068,447,o),
(1068,372,cs),
(1068,0,l)
);
}
);
width = 1128;
},
{
anchors = (
{
name = _ha_geluungan_ha;
pos = (906,291);
}
);
associatedMasterId = m002;
layerId = "B7BA62B9-668F-4873-ACF1-B0653CFF5F3B";
name = "2 May 23 14.08";
shapes = (
{
closed = 1;
nodes = (
(1126,0,l),
(1126,411,ls),
(1126,512,o),
(1071,555,o),
(965,555,cs),
(945,555,ls),
(924,555,o),
(906,537,o),
(906,517,cs),
(906,291,l),
(916,281,l),
(971,281,l),
(982,291,l),
(982,492,l),
(975,478,l),
(1026,477,o),
(1050,461,o),
(1050,413,cs),
(1050,0,l)
);
}
);
width = 1128;
},
{
anchors = (
{
name = _ha_geluungan_ha;
pos = (916,291);
}
);
associatedMasterId = m002;
layerId = "B1E6B56B-F5A9-4E86-9CEC-245E497B2867";
name = "3 May 23 12.41";
shapes = (
{
closed = 1;
nodes = (
(1144,0,l),
(1144,371,ls),
(1144,493,o),
(1099,555,o),
(976,555,cs),
(956,555,ls),
(935,555,o),
(917,537,o),
(917,517,cs),
(917,291,l),
(927,281,l),
(974,281,l),
(985,291,l),
(985,497,l),
(978,477,l),
(1046,479,o),
(1068,442,o),
(1068,367,cs),
(1068,0,l)
);
}
);
width = 1128;
}
);
}
{
export = 0;
glyphname = _ha_tundun_ha;
layers = (
{
anchors = (
{
name = ha_bali_core;
pos = (489,291);
},
{
name = ha_tundun_ha;
pos = (770,291);
}
);
layerId = m002;
shapes = (
{
closed = 1;
nodes = (
(846,291,l),
(846,360,ls),
(846,485,o),
(797,555,o),
(665,555,cs),
(537,555,o),
(464,489,o),
(469,361,cs),
(472,291,l),
(484,281,l),
(531,281,l),
(547,291,l),
(544,346,ls),
(538,454,o),
(587,481,o),
(658,481,cs),
(745,481,o),
(770,441,o),
(770,349,cs),
(770,291,l)
);
}
);
width = 1128;
},
{
anchors = (
{
name = ha_bali_core;
pos = (489,291);
},
{
name = ha_tundun_ha;
pos = (770,291);
}
);
associatedMasterId = m002;
layerId = "F4E7020D-1BBD-4577-AB39-54BAF8CC9605";
name = "2 May 23 14.10";
shapes = (
{
closed = 1;
nodes = (
(846,291,l),
(846,378,ls),
(846,496,o),
(791,555,o),
(685,555,cs),
(644,555,ls),
(548,555,o),
(489,489,o),
(489,394,cs),
(489,291,l),
(501,281,l),
(553,281,l),
(569,291,l),
(569,391,ls),
(569,453,o),
(600,479,o),
(650,479,cs),
(677,479,ls),
(739,479,o),
(770,447,o),
(770,379,cs),
(770,291,l)
);
}
);
width = 1128;
},
{
anchors = (
{
name = ha_bali_core;
pos = (489,291);
},
{
name = ha_tundun_ha;
pos = (770,291);
}
);
associatedMasterId = m002;
layerId = "9322E654-8B80-4B28-9B47-9D6AC04ACECE";
name = "3 May 23 12.29";
shapes = (
{
closed = 1;
nodes = (
(846,291,l),
(846,337,ls),
(846,472,o),
(768,555,o),
(644,555,cs),
(529,555,o),
(454,500,o),
(454,373,cs),
(454,291,l),
(466,281,l),
(518,281,l),
(534,291,l),
(534,365,ls),
(534,465,o),
(583,479,o),
(649,479,cs),
(733,479,o),
(770,421,o),
(770,338,cs),
(770,291,l)
);
}
);
width = 1128;
},
{
anchors = (
{
name = ha_bali_core;
pos = (489,291);
},
{
name = ha_tundun_ha;
pos = (770,291);
}
);
associatedMasterId = m002;
layerId = "59945C1E-CA27-4B4C-90C8-3739A1EBBB26";
name = "3 May 23 17.47";
shapes = (
{
closed = 1;
nodes = (
(846,291,l),
(846,337,ls),
(846,483,o),
(772,555,o),
(644,555,cs),
(517,555,o),
(454,475,o),
(454,373,cs),
(454,291,l),
(466,281,l),
(518,281,l),
(534,291,l),
(534,365,ls),
(534,450,o),
(572,479,o),
(649,479,cs),
(731,479,o),
(770,432,o),
(770,338,cs),
(770,291,l)
);
}
);
width = 1128;
}
);
}
{
export = 0;
glyphname = _na_bangkiang;
layers = (
{
layerId = m002;
shapes = (
{
closed = 1;
nodes = (
(415,411,o),
(478,479,o),
(598,479,cs),
(684,479,o),
(769,444,o),
(769,291,c),
(775,281,l),
(840,281,l),
(845,291,l),
(845,304,ls),
(845,497,o),
(727,555,o),
(602,555,cs),
(457,555,o),
(341,475,o),
(344,249,c),
(418,247,l)
);
}
);
width = 867;
},
{
associatedMasterId = m002;
layerId = "6A8A4F63-961C-4271-83C3-FDA3514165A4";
name = "2 May 23 16.53";
shapes = (
{
closed = 1;
nodes = (
(419,397,o),
(473,479,o),
(586,479,cs),
(604,479,ls),
(680,479,o),
(744,445,o),
(744,291,c),
(750,281,l),
(815,281,l),
(820,291,l),
(820,304,ls),
(820,497,o),
(722,555,o),
(609,555,cs),
(581,555,ls),
(436,555,o),
(349,443,o),
(346,269,c),
(417,267,l)
);
}
);
width = 867;
},
{
associatedMasterId = m002;
layerId = "AF35C6A5-CFDB-4DE8-8A6C-4A43ABCEC32E";
name = "3 May 23 17.09";
shapes = (
{
closed = 1;
nodes = (
(419,419,o),
(491,479,o),
(596,479,cs),
(597,479,ls),
(685,479,o),
(769,445,o),
(769,291,c),
(775,281,l),
(840,281,l),
(845,291,l),
(845,304,ls),
(845,497,o),
(727,555,o),
(601,555,cs),
(422,555,o),
(348,419,o),
(346,269,c),
(417,267,l)
);
}
);
width = 867;
}
);
}
{
export = 0;
glyphname = _nga_bali_ekor;
layers = (
{
layerId = m002;
shapes = (
{
closed = 1;
nodes = (
(1039,0,l),
(1039,339,ls),
(1039,481,o),
(955,555,o),
(845,555,c),
(836,479,l),
(893,479,o),
(963,453,o),
(963,329,cs),
(963,0,l)
);
}
);
width = 1089;
}
);
}
{
export = 0;
glyphname = _padama_bawah;
layers = (
{
layerId = m002;
shapes = (
{
closed = 1;
nodes = (
(543,-769,o),
(609,-570,o),
(726,-570,cs),
(857,-570,o),
(848,-769,o),
(1022,-769,cs),
(1127,-769,o),
(1190,-704,o),
(1190,-553,cs),
(1190,291,l),
(1122,291,l),
(1122,-535,ls),
(1122,-653,o),
(1085,-697,o),
(1023,-698,cs),
(910,-699,o),
(901,-496,o),
(731,-496,cs),
(568,-496,o),
(508,-697,o),
(367,-697,cs),
(286,-697,o),
(226,-641,o),
(226,-527,cs),
(226,-365,o),
(353,-261,o),
(483,-207,c),
(479,-219,l),
(447,-149,l),
(472,-146,l),
(297,-199,o),
(148,-335,o),
(148,-535,cs),
(148,-690,o),
(247,-769,o),
(363,-769,cs)
);
}
);
width = 1384;
}
);
}
{
export = 0;
glyphname = _part.stem_F;
layers = (
{
anchors = (
{
name = center;
pos = (138,329);
},
{
name = top;
pos = (143,630);
}
);
layerId = m002;
shapes = (
{
closed = 1;
nodes = (
(183,0,l),
(183,700,l),
(96,700,l),
(96,0,l)
);
}
);
width = 600;
}
);
}
{
export = 0;
glyphname = _part.stem_L;
layers = (
{
anchors = (
{
name = bottom;
pos = (136,0);
}
);
layerId = m002;
shapes = (
{
closed = 1;
nodes = (
(183,0,l),
(183,700,l),
(96,700,l),
(96,0,l)
);
}
);
width = 600;
}
);
}
{
export = 0;
glyphname = _perut_d;
layers = (
{
background = {
shapes = (
{
pos = (617,0);
ref = b;
scale = (-1,1);
}
);
};
layerId = m002;
shapes = (
{
closed = 1;
nodes = (
(357,-10,o),
(408,22,o),
(439,80,c),
(476,80,l),
(470,477,l),
(440,477,l),
(408,520,o),
(357,555,o),
(285,555,cs),
(154,555,o),
(52,449,o),
(52,273,cs),
(52,99,o),
(153,-10,o),
(290,-10,cs)
);
},
{
closed = 1;
nodes = (
(205,66,o),
(141,149,o),
(141,273,cs),
(141,402,o),
(206,479,o),
(298,479,cs),
(383,479,o),
(449,413,o),
(450,276,cs),
(450,274,ls),
(450,146,o),
(385,66,o),
(296,66,cs)
);
}
);
width = 604;
}
);
}
{
export = 0;
glyphname = _rejuna_;
layers = (
{
layerId = m002;
shapes = (
{
closed = 1;
nodes = (
(692,204,l),
(702,214,l),
(702,387,o),
(591,447,o),
(475,445,c),
(472,431,l),
(515,469,o),
(565,487,o),
(614,487,cs),
(717,487,o),
(780,409,o),
(780,291,c),
(849,291,l),
(849,456,o),
(766,555,o),
(630,555,cs),
(540,555,o),
(454,512,o),
(390,437,c),
(405,459,l),
(433,381,l),
(415,395,l),
(508,396,o),
(632,373,o),
(632,213,c),
(638,203,l)
);
}
);
width = 1476;
},
{
associatedMasterId = m002;
layerId = "87172E47-43F6-42D1-AADE-5A0145755AEA";
name = "21 Aug 23 09.22";
shapes = (
{
closed = 1;
nodes = (
(692,217,l),
(702,227,l),
(702,354,o),
(641,445,o),
(516,470,c),
(520,451,l),
(548,471,o),
(580,488,o),
(626,488,cs),
(736,488,o),
(771,403,o),
(781,291,c),
(838,291,l),
(838,461,o),
(756,555,o),
(637,555,cs),
(554,555,o),
(481,511,o),
(437,463,c),
(452,506,l),
(470,433,l),
(592,399,o),
(632,318,o),
(632,226,c),
(638,216,l)
);
}
);
width = 1476;
}
);
}
{
export = 0;
glyphname = _segtitga_bali;
layers = (
{
layerId = m002;
shapes = (
{
closed = 1;
nodes = (
(327,191,l),
(73,545,l),
(-1,545,l),
(289,160,l)
);
}
);
width = 585;
}
);
}
{
export = 0;
glyphname = _tail_na;
layers = (
{
layerId = m002;
shapes = (
{
closed = 1;
nodes = (
(594,-10,o),
(640,37,o),
(640,107,cs),
(640,238,o),
(480,285,o),
(370,285,cs),
(263,285,l),
(234,268,l),
(234,242,l),
(257,205,l),
(371,205,ls),
(460,205,o),
(580,182,o),
(580,109,cs),
(580,71,o),
(547,53,o),
(502,53,cs),
(420,53,o),
(357,113,o),
(357,245,cs),
(357,378,o),
(417,478,o),
(550,478,cs),
(645,478,o),
(722,429,o),
(722,264,cs),
(722,0,l),
(773,0,l),
(773,275,ls),
(773,494,o),
(681,555,o),
(566,555,cs),
(397,555,o),
(306,406,o),
(306,248,cs),
(306,87,o),
(393,-10,o),
(511,-10,cs)
);
}
);
width = 600;
}
);
}
{
export = 0;
glyphname = _tandaPanah;
layers = (
{
layerId = m002;
shapes = (
{
closed = 1;
nodes = (
(775,398,l),
(775,334,l),
(510,599,l),
(534,595,l),
(464,525,l),
(462,551,l),
(676,341,l),
(676,396,l),
(459,176,l),
(463,202,l),
(532,133,l),
(505,127,l)
);
}
);
width = 872;
}
);
}
{
export = 0;
glyphname = _tedung_bali_;
layers = (
{
layerId = m002;
shapes = (
{
closed = 1;
nodes = (
(443,-10,o),
(523,90,o),
(523,245,cs),
(523,435,o),
(403,555,o),
(232,555,cs),
(128,555,o),
(49,510,o),
(3,467,c),
(-1,494,l),
(58,410,l),
(40,409,l),
(90,453,o),
(154,480,o),
(223,480,cs),
(357,480,o),
(442,380,o),
(442,241,cs),
(442,135,o),
(393,61,o),
(304,61,cs),
(259,61,o),
(221,80,o),
(180,120,c),
(191,121,l),
(131,61,l),
(129,80,l),
(173,21,o),
(232,-10,o),
(307,-10,cs)
);
}
);
width = 547;
},
{
associatedMasterId = m002;
layerId = "F006DAE3-8133-465E-86F6-AF2FF04C7D64";
name = "9 May 23 16.28";
shapes = (
{
closed = 1;
nodes = (
(457,-10,o),
(541,121,o),
(541,272,cs),
(541,426,o),
(457,555,o),
(285,555,cs),
(158,555,o),
(70,485,o),
(21,367,c),
(18,386,l),
(88,344,l),
(69,339,l),
(103,415,o),
(169,479,o),
(273,479,cs),
(406,479,o),
(463,385,o),
(463,271,cs),
(463,156,o),
(405,62,o),
(293,62,cs),
(227,62,o),
(184,87,o),
(148,114,c),
(175,141,l),
(116,26,l),
(116,57,l),
(160,18,o),
(218,-10,o),
(297,-10,cs)
);
}
);
width = 575;
},
{
associatedMasterId = m002;
layerId = "1BEA96AE-7174-49BC-B1F2-865753DE1BBF";
name = "9 May 23 16.29";
shapes = (
{
closed = 1;
nodes = (
(477,56,o),
(553,160,o),
(553,290,cs),
(553,424,o),
(466,555,o),
(297,555,cs),
(179,555,o),
(78,498,o),
(12,387,c),
(9,427,l),
(79,364,l),
(60,359,l),
(120,430,o),
(190,479,o),
(284,479,cs),
(415,479,o),
(475,383,o),
(475,289,cs),
(475,195,o),
(425,128,o),
(333,128,cs),
(267,128,o),
(231,158,o),
(195,185,c),
(240,202,l),
(163,97,l),
(163,128,l),
(207,89,o),
(258,56,o),
(337,56,cs)
);
}
);
width = 587;
},
{
associatedMasterId = m002;
layerId = "5AC9E589-7CBF-46ED-9A0E-D99CF99C3B0D";
name = "8 Jun 23 14.18";
shapes = (
{
closed = 1;
nodes = (
(367,65,o),
(453,135,o),
(453,285,cs),
(453,437,o),
(347,555,o),
(194,555,cs),
(85,555,o),
(16,503,o),
(-27,454,c),
(-26,470,l),
(18,410,l),
(0,409,l),
(50,457,o),
(112,481,o),
(181,481,cs),
(300,481,o),
(374,400,o),
(374,289,cs),
(374,190,o),
(333,136,o),
(259,136,cs),
(219,136,o),
(181,152,o),
(140,195,c),
(151,196,l),
(91,136,l),
(95,155,l),
(132,100,o),
(192,65,o),
(262,65,cs)
);
}
);
width = 487;
}
);
}
{
export = 0;
glyphname = _top_E;
layers = (
{
anchors = (
{
name = _top;
pos = (143,630);
}
);
layerId = m002;
shapes = (
{
closed = 1;
nodes = (
(491,622,l),
(491,700,l),
(143,700,l),
(143,622,l)
);
}
);
width = 600;
}
);
}
{
export = 0;
glyphname = "_ya-bali.post2.short_kom_";
layers = (
{
anchors = (
{
name = _bottom;
pos = (-38,-679);
},
{
name = bottom;
pos = (115,-770);
},
{
name = top;
pos = (-311,630);
}
);
layerId = m002;
name = Regular;
shapes = (
{
alignment = -1;
pos = (-877,0);
ref = _ha_geluungan_ha;
},
{
pos = (10,0);
ref = _ya_bali_post2_awak;
},
{
closed = 1;
nodes = (
(267,-689,l),
(267,0,l),
(260,10,l),
(196,10,l),
(191,0,l),
(191,-689,l)
);
}
);
width = 347;
},
{
anchors = (
{
name = _bottom;
pos = (-38,-679);
},
{
name = bottom;
pos = (141,-793);
},
{
name = top;
pos = (-311,630);
}
);
associatedMasterId = m002;
layerId = m003;
name = Bold;
shapes = (
{
alignment = -1;
pos = (-877,0);
ref = _ha_geluungan_ha;
},
{
pos = (10,0);
ref = _ya_bali_post2_awak;
},
{
closed = 1;
nodes = (
(267,-689,l),
(267,0,l),
(260,10,l),
(196,10,l),
(191,0,l),
(191,-689,l)
);
}
);
width = 327;
}
);
metricLeft = "ya-bali.post2";
metricRight = "ha-bali";
}
{
export = 0;
glyphname = _zeroslash;
layers = (
{
anchors = (
{
name = _center;
pos = (376,350);
}
);
layerId = m002;
shapes = (
{
closed = 1;
nodes = (
(572,563,l),
(525,613,l),
(187,135,l),
(241,97,l)
);
}
);
width = 752;
}
);
}
{
glyphname = acutecomb.case;
layers = (
{
anchors = (
{
name = _top;
pos = (133,555);
},
{
name = top;
pos = (133,729);
}
);
layerId = m002;
shapes = (
{
closed = 1;
nodes = (
(44,612,l),
(180,612,l),
(109,580,l),
(230,729,l),
(129,729,l),
(76,575,l)
);
}
);
width = 265;
}
);
}
{
glyphname = "baKembang_tedung-bali";
layers = (
{
anchors = (
{
name = bottom;
pos = (886,0);
},
{
name = top;
pos = (442,650);
}
);
layerId = m002;
shapes = (
{
closed = 1;
nodes = (
(348,-10,o),
(460,159,o),
(564,159,cs),
(600,159,o),
(623,139,o),
(623,105,cs),
(623,70,o),
(599,54,o),
(566,54,cs),
(477,54,o),
(447,166,o),
(447,257,cs),
(447,364,o),
(488,479,o),
(636,479,cs),
(726,479,o),
(820,436,o),
(833,291,c),
(885,291,l),
(895,419,o),
(965,480,o),
(1063,480,cs),
(1190,480,o),
(1249,377,o),
(1249,260,cs),
(1249,139,o),
(1186,52,o),
(1074,52,cs),
(1038,52,o),
(1003,61,o),
(973,80,c),
(988,83,l),
(951,17,l),
(944,30,l),
(982,3,o),
(1028,-10,o),
(1082,-10,cs),
(1242,-10,o),
(1328,106,o),
(1328,263,cs),
(1328,430,o),
(1230,555,o),
(1069,555,cs),
(968,555,o),
(888,506,o),
(851,418,c),
(867,418,l),
(833,504,o),
(751,555,o),
(640,555,cs),
(443,555,o),
(374,395,o),
(374,254,cs),
(374,130,o),
(428,-10,o),
(563,-10,cs),
(639,-10,o),
(687,35,o),
(687,106,cs),
(687,183,o),
(632,226,o),
(571,226,cs),
(449,226,o),
(313,54,o),
(218,54,cs),
(179,54,o),
(166,84,o),
(166,112,cs),
(166,139,o),
(177,166,o),
(204,201,c),
(206,188,l),
(140,228,l),
(155,228,l),
(123,187,o),
(100,144,o),
(100,98,cs),
(100,41,o),
(136,-10,o),
(211,-10,cs)
);
},
{
closed = 1;
nodes = (
(251,216,l),
(338,222,l),
(326,208,l),
(325,430,o),
(281,555,o),
(166,555,cs),
(91,555,o),
(49,501,o),
(49,432,cs),
(49,390,o),
(64,354,o),
(78,328,c),
(58,337,l),
(148,366,l),
(136,344,l),
(128,372,o),
(122,402,o),
(122,427,cs),
(122,461,o),
(133,485,o),
(162,485,cs),
(212,485,o),
(251,408,o),
(263,199,c)
);
}
);
width = 1352;
}
);
metricLeft = "ha-bali";
metricRight = "tedung-bali";
}
{
glyphname = "ba_tedung-bali";
layers = (
{
anchors = (
{
name = bottom;
pos = (1346,0);
},
{
name = top;
pos = (944,650);
}
);
layerId = m002;
shapes = (
{
closed = 1;
nodes = (
(461,-10,ls),
(490,-10,o),
(503,2,o),
(503,20,cs),
(503,29,o),
(500,40,o),
(484,56,cs),
(420,119,o),
(387,212,o),
(387,295,cs),
(387,394,o),
(435,479,o),
(531,479,cs),
(591,479,o),
(649,446,o),
(670,332,c),
(655,345,l),
(730,345,l),
(711,336,l),
(730,427,o),
(781,479,o),
(856,479,cs),
(947,479,o),
(987,401,o),
(987,309,cs),
(987,221,o),
(952,121,o),
(890,59,cs),
(870,39,o),
(868,26,o),
(868,19,cs),
(868,-7,o),
(894,-10,o),
(925,-10,cs),
(1079,-10,o),
(1187,62,o),
(1187,218,cs),
(1187,502,l),
(1180,482,l),
(1248,484,o),
(1270,447,o),
(1270,372,cs),
(1270,132,ls),
(1270,37,o),
(1316,-10,o),
(1383,-10,cs),
(1442,-10,o),
(1495,26,o),
(1495,124,cs),
(1495,291,ls),
(1495,419,o),
(1565,480,o),
(1663,480,cs),
(1790,480,o),
(1849,377,o),
(1849,260,cs),
(1849,139,o),
(1786,52,o),
(1674,52,cs),
(1638,52,o),
(1603,61,o),
(1573,80,c),
(1588,83,l),
(1551,17,l),
(1544,30,l),
(1582,3,o),
(1628,-10,o),
(1682,-10,cs),
(1842,-10,o),
(1928,106,o),
(1928,263,cs),
(1928,430,o),
(1830,555,o),
(1669,555,cs),
(1527,555,o),
(1427,459,o),
(1427,291,cs),
(1427,115,ls),
(1427,75,o),
(1411,58,o),
(1388,58,cs),
(1358,58,o),
(1346,83,o),
(1346,128,cs),
(1346,376,ls),
(1346,498,o),
(1301,550,o),
(1178,550,cs),
(1168,550,l),
(1119,507,l),
(1119,225,ls),
(1119,108,o),
(1056,62,o),
(940,53,c),
(937,36,l),
(1013,99,o),
(1059,219,o),
(1059,328,cs),
(1059,448,o),
(1003,555,o),
(869,555,cs),
(785,555,o),
(729,514,o),
(697,451,c),
(691,451,l),
(664,522,o),
(603,555,o),
(528,555,cs),
(387,555,o),
(317,436,o),
(317,304,cs),
(317,213,o),
(349,117,o),
(415,47,c),
(443,60,l),
(390,62,ls),
(302,65,o),
(252,96,o),
(252,186,cs),
(252,260,o),
(286,372,o),
(286,436,cs),
(286,513,o),
(238,555,o),
(171,555,cs),
(95,555,o),
(49,501,o),
(49,431,cs),
(49,375,o),
(78,327,o),
(93,303,c),
(68,303,l),
(161,350,l),
(153,324,l),
(136,355,o),
(118,393,o),
(118,430,cs),
(118,464,o),
(133,485,o),
(163,485,cs),
(197,485,o),
(207,459,o),
(207,418,cs),
(207,344,o),
(174,247,o),
(174,174,cs),
(174,70,o),
(240,-10,o),
(397,-10,cs)
);
}
);
width = 1952;
}
);
metricRight = "tedung-bali";
}
{
glyphname = blacklenticularbracketright.case;
kernLeft = parenright;
kernRight = parenright;
layers = (
{
layerId = m002;
shapes = (
{
closed = 1;
nodes = (
(217,834,l),
(255,796,l),
(24,796,l),
(134,606,o),
(168,468,o),
(168,335,cs),
(168,180,o),
(126,59,o),
(24,-109,c),
(255,-109,l),
(217,-147,l)
);
}
);
userData = {
RMXScaler = {
verticalShift = 96;
};
};
width = 314;
}
);
userData = {
RMXScaler = {
source = blacklenticularbracketright;
};
};
}
{
glyphname = "caLaca-bali.below";
layers = (
{
anchors = (
{
name = _bottom;
pos = (-80,0);
},
{
name = bottom;
pos = (-45,-689);
},
{
name = top;
pos = (-466,650);
}
);
layerId = m002;
name = Regular;
shapes = (
{
closed = 1;
nodes = (
(-680,-689,o),
(-639,-626,o),
(-639,-552,cs),
(-639,-501,o),
(-659,-443,o),
(-700,-397,c),
(-657,-403,l),
(-761,-457,l),
(-756,-425,l),
(-731,-458,o),
(-710,-510,o),
(-710,-552,cs),
(-710,-589,o),
(-726,-618,o),
(-766,-618,cs),
(-837,-618,o),
(-877,-526,o),
(-877,-426,cs),
(-877,-306,o),
(-819,-200,o),
(-687,-200,cs),
(-572,-200,o),
(-542,-287,o),
(-518,-408,cs),
(-497,-513,o),
(-469,-689,o),
(-284,-689,cs),
(-129,-689,o),
(-60,-565,o),
(-60,-419,cs),
(-60,-320,o),
(-92,-217,o),
(-152,-128,c),
(-129,-136,l),
(-216,-182,l),
(-218,-153,l),
(-162,-242,o),
(-134,-337,o),
(-134,-421,cs),
(-134,-531,o),
(-183,-616,o),
(-284,-616,cs),
(-409,-616,o),
(-425,-486,o),
(-443,-389,cs),
(-468,-255,o),
(-512,-124,o),
(-687,-124,cs),
(-869,-124,o),
(-956,-268,o),
(-956,-425,cs),
(-956,-559,o),
(-893,-689,o),
(-767,-689,cs)
);
}
);
width = 0;
},
{
anchors = (
{
name = _bottom;
pos = (807,0);
},
{
name = bottom;
pos = (842,-689);
}
);
associatedMasterId = m002;
layerId = m003;
name = Bold;
shapes = (
{
closed = 1;
nodes = (
(276,-689,o),
(319,-621,o),
(319,-564,cs),
(319,-526,o),
(308,-485,o),
(289,-447,c),
(308,-463,l),
(236,-483,l),
(239,-464,l),
(248,-493,o),
(256,-524,o),
(256,-552,cs),
(256,-582,o),
(242,-623,o),
(191,-623,cs),
(140,-623,o),
(114,-564,o),
(114,-463,cs),
(114,-314,o),
(183,-200,o),
(304,-200,cs),
(390,-200,o),
(432,-250,o),
(432,-350,cs),
(432,-395,o),
(424,-451,o),
(424,-498,cs),
(424,-641,o),
(506,-689,o),
(608,-689,cs),
(761,-689,o),
(807,-594,o),
(807,-450,cs),
(807,-134,l),
(731,-134,l),
(731,-454,ls),
(731,-571,o),
(692,-615,o),
(611,-615,cs),
(543,-615,o),
(499,-577,o),
(499,-502,cs),
(499,-456,o),
(507,-388,o),
(507,-331,cs),
(507,-193,o),
(423,-124,o),
(305,-124,cs),
(143,-124,o),
(42,-273,o),
(42,-467,cs),
(42,-604,o),
(94,-689,o),
(184,-689,cs)
);
}
);
width = 929;
}
);
}
{
category = Letter;
glyphname = "caLaca-bali.below_sukuIlut-bali.below";
layers = (
{
anchors = (
{
name = _bottom;
pos = (-80,0);
},
{
name = bottom;
pos = (-45,-689);
}
);
layerId = m002;
shapes = (
{
closed = 1;
nodes = (
(-189,-1140,l),
(-52,-1078,o),
(4,-1003,o),
(4,-946,cs),
(4,-873,o),
(-83,-834,o),
(-83,-794,cs),
(-83,-767,o),
(-52,-734,o),
(-52,-629,cs),
(-52,-452,o),
(-91,-248,o),
(-165,-128,c),
(-129,-136,l),
(-216,-182,l),
(-218,-153,l),
(-174,-246,o),
(-139,-358,o),
(-139,-449,cs),
(-139,-545,o),
(-180,-616,o),
(-279,-616,cs),
(-409,-616,o),
(-423,-495,o),
(-443,-389,cs),
(-468,-255,o),
(-512,-124,o),
(-687,-124,cs),
(-869,-124,o),
(-956,-268,o),
(-956,-425,cs),
(-956,-559,o),
(-893,-689,o),
(-767,-689,cs),
(-680,-689,o),
(-639,-626,o),
(-639,-552,cs),
(-639,-501,o),
(-659,-443,o),
(-700,-397,c),
(-657,-403,l),
(-761,-457,l),
(-756,-425,l),
(-731,-458,o),
(-710,-510,o),
(-710,-552,cs),
(-710,-589,o),
(-726,-618,o),
(-766,-618,cs),
(-837,-618,o),
(-877,-526,o),
(-877,-426,cs),
(-877,-306,o),
(-819,-200,o),
(-687,-200,cs),
(-572,-200,o),
(-542,-287,o),
(-518,-408,cs),
(-501,-495,o),
(-472,-689,o),
(-289,-689,cs),
(-215,-689,o),
(-128,-657,o),
(-93,-558,c),
(-122,-571,l),
(-120,-596,o),
(-121,-622,o),
(-121,-647,cs),
(-121,-722,o),
(-155,-749,o),
(-156,-798,cs),
(-158,-869,o),
(-69,-903,o),
(-70,-947,cs),
(-71,-983,o),
(-105,-1032,o),
(-222,-1104,c),
(-209,-1081,l),
(-170,-1142,l)
);
}
);
width = 0;
}
);
subCategory = Spacing;
}
{
glyphname = "ca_tedung-bali";
kernLeft = "ka-bali";
layers = (
{
anchors = (
{
name = bottom;
pos = (849,0);
},
{
name = top;
pos = (643,650);
}
);
layerId = m002;
shapes = (
{
closed = 1;
nodes = (
(239,-10,o),
(275,74,o),
(292,190,c),
(278,183,l),
(345,156,o),
(370,-10,o),
(514,-10,cs),
(609,-10,o),
(695,61,o),
(695,210,cs),
(695,377,o),
(587,446,o),
(468,445,c),
(465,431,l),
(508,469,o),
(557,487,o),
(609,487,cs),
(709,487,o),
(773,420,o),
(791,291,c),
(839,291,l),
(849,419,o),
(919,480,o),
(1017,480,cs),
(1144,480,o),
(1203,377,o),
(1203,260,cs),
(1203,139,o),
(1140,52,o),
(1028,52,cs),
(992,52,o),
(957,61,o),
(927,80,c),
(942,83,l),
(905,17,l),
(898,30,l),
(936,3,o),
(982,-10,o),
(1036,-10,cs),
(1196,-10,o),
(1282,106,o),
(1282,263,cs),
(1282,430,o),
(1184,555,o),
(1023,555,cs),
(925,555,o),
(848,510,o),
(809,427,c),
(824,427,l),
(787,511,o),
(714,555,o),
(623,555,cs),
(533,555,o),
(447,512,o),
(383,437,c),
(394,470,l),
(426,381,l),
(408,395,l),
(501,396,o),
(625,373,o),
(625,213,cs),
(625,114,o),
(578,59,o),
(515,59,cs),
(409,59,o),
(396,215,o),
(295,249,c),
(296,243,l),
(297,277,ls),
(302,452,o),
(227,555,o),
(135,555,cs),
(73,555,o),
(22,509,o),
(22,435,cs),
(22,391,o),
(40,344,o),
(73,298,c),
(47,304,l),
(133,349,l),
(124,335,l),
(108,365,o),
(92,398,o),
(92,429,cs),
(92,464,o),
(109,485,o),
(137,485,cs),
(185,485,o),
(235,420,o),
(231,253,c),
(238,258,l),
(139,256,o),
(66,177,o),
(66,89,cs),
(66,32,o),
(97,-10,o),
(156,-10,cs)
);
},
{
closed = 1;
nodes = (
(146,53,o),
(130,66,o),
(130,97,cs),
(130,149,o),
(177,191,o),
(227,191,cs),
(238,191,l),
(226,213,l),
(229,139,o),
(196,53,o),
(160,53,cs)
);
}
);
width = 1306;
}
);
metricRight = "tedung-bali";
}
{
glyphname = caroncomb.alt;
layers = (
{
anchors = (
{
name = _topright;
pos = (62,750);
}
);
layerId = m002;
shapes = (
{
closed = 1;
nodes = (
(15,563,l),
(151,563,l),
(87,532,l),
(133,750,l),
(62,750,l),
(39,532,l)
);
}
);
width = 160;
}
);
}
{
glyphname = "daMurdaMahaprana-bali.below";
layers = (
{
anchors = (
{
name = _bottom;
pos = (-241,0);
},
{
name = bottom;
pos = (-404,-679);
},
{
name = top;
pos = (-467,650);
}
);
layerId = m002;
name = Regular;
shapes = (
{
closed = 1;
nodes = (
(-628,-689,o),
(-612,-589,o),
(-573,-589,cs),
(-571,-589,ls),
(-532,-589,o),
(-515,-689,o),
(-405,-689,cs),
(-292,-689,o),
(-232,-584,o),
(-232,-446,cs),
(-232,-333,o),
(-272,-197,o),
(-338,-96,c),
(-303,-97,l),
(-410,-152,l),
(-404,-124,l),
(-345,-227,o),
(-312,-350,o),
(-312,-447,cs),
(-312,-558,o),
(-355,-617,o),
(-411,-617,cs),
(-487,-617,o),
(-505,-510,o),
(-568,-510,cs),
(-570,-510,ls),
(-635,-510,o),
(-663,-624,o),
(-729,-624,cs),
(-784,-624,o),
(-823,-543,o),
(-823,-434,cs),
(-823,-333,o),
(-789,-217,o),
(-719,-114,c),
(-726,-167,l),
(-823,-114,l),
(-781,-92,l),
(-856,-202,o),
(-895,-328,o),
(-895,-439,cs),
(-895,-574,o),
(-837,-689,o),
(-729,-689,cs)
);
}
);
width = 0;
},
{
anchors = (
{
name = _bottom;
pos = (698,0);
},
{
name = bottom;
pos = (535,-679);
}
);
associatedMasterId = m002;
layerId = m003;
name = Bold;
shapes = (
{
alignment = -1;
pos = (-60,-679);
ref = _daMadu_bawah;
},
{
alignment = -1;
pos = (-85,0);
ref = _daMadu_below;
},
{
pos = (-60,-679);
ref = _daMudra;
}
);
width = 697;
}
);
}
{
glyphname = "da_tedung-bali";
layers = (
{
anchors = (
{
name = bottom;
pos = (937,0);
},
{
name = top;
pos = (712,650);
}
);
layerId = m002;
shapes = (
{
closed = 1;
nodes = (
(390,-10,o),
(444,35,o),
(489,77,c),
(479,77,l),
(513,16,o),
(569,-10,o),
(625,-10,cs),
(697,-10,o),
(745,36,o),
(745,107,cs),
(745,183,o),
(690,224,o),
(627,224,cs),
(587,224,o),
(551,207,o),
(510,173,c),
(518,171,l),
(511,196,o),
(505,232,o),
(505,269,cs),
(505,366,o),
(546,479,o),
(689,479,cs),
(778,479,o),
(864,436,o),
(875,291,c),
(927,291,l),
(944,419,o),
(1016,480,o),
(1114,480,cs),
(1241,480,o),
(1300,377,o),
(1300,260,cs),
(1300,139,o),
(1237,52,o),
(1125,52,cs),
(1089,52,o),
(1054,61,o),
(1024,80,c),
(1039,83,l),
(1002,17,l),
(995,30,l),
(1033,3,o),
(1079,-10,o),
(1133,-10,cs),
(1293,-10,o),
(1379,106,o),
(1379,263,cs),
(1379,430,o),
(1281,555,o),
(1120,555,cs),
(1012,555,o),
(928,499,o),
(894,399,c),
(908,399,l),
(878,503,o),
(802,555,o),
(691,555,cs),
(502,555,o),
(430,406,o),
(430,267,cs),
(430,213,o),
(441,161,o),
(458,120,c),
(465,141,l),
(395,77,o),
(350,58,o),
(314,58,cs),
(252,58,o),
(246,114,o),
(246,144,cs),
(246,220,o),
(286,342,o),
(286,424,cs),
(286,514,o),
(238,555,o),
(170,555,cs),
(92,555,o),
(49,500,o),
(49,431,cs),
(49,374,o),
(78,327,o),
(93,303,c),
(68,303,l),
(177,358,l),
(158,314,l),
(136,355,o),
(118,393,o),
(118,430,cs),
(118,464,o),
(133,485,o),
(162,485,cs),
(195,485,o),
(205,456,o),
(205,417,cs),
(205,341,o),
(166,222,o),
(166,138,cs),
(166,39,o),
(219,-10,o),
(306,-10,cs)
);
},
{
closed = 1;
nodes = (
(594,52,o),
(558,75,o),
(534,126,c),
(533,118,l),
(558,140,o),
(590,160,o),
(623,160,cs),
(656,160,o),
(681,141,o),
(681,103,cs),
(681,70,o),
(662,52,o),
(630,52,cs)
);
}
);
width = 1403;
}
);
metricRight = "tedung-bali";
}
{
glyphname = dieresiscomb.case;
layers = (
{
anchors = (
{
name = _top;
pos = (201,555);
},
{
name = top;
pos = (201,737);
}
);
layerId = m002;
shapes = (
{
closed = 1;
nodes = (
(175,625,l),
(175,700,l),
(85,700,l),
(85,625,l)
);
},
{
closed = 1;
nodes = (
(317,625,l),
(317,700,l),
(227,700,l),
(227,625,l)
);
}
);
width = 402;
}
);
metricLeft = dotaccentcomb;
metricRight = "=|";
}
{
glyphname = eight.numr;
kernLeft = eight.numr;
kernRight = eight.numr;
layers = (
{
background = {
shapes = (
{
pos = (-23,0);
ref = zero;
}
);
};
layerId = m002;
shapes = (
{
closed = 1;
nodes = (
(102,577,o),
(80,592,o),
(80,619,cs),
(80,646,o),
(104,660,o),
(132,660,cs),
(160,660,o),
(183,646,o),
(183,619,cs),
(183,593,o),
(162,577,o),
(132,577,cs)
);
},
{
closed = 1;
nodes = (
(195,381,o),
(247,416,o),
(247,476,cs),
(247,514,o),
(225,542,o),
(192,555,c),
(192,556,l),
(219,570,o),
(234,593,o),
(234,621,cs),
(234,666,o),
(195,705,o),
(132,705,cs),
(69,705,o),
(29,666,o),
(29,622,cs),
(29,594,o),
(45,568,o),
(71,556,c),
(71,555,l),
(41,542,o),
(17,515,o),
(17,474,cs),
(17,417,o),
(67,381,o),
(131,381,cs)
);
},
{
closed = 1;
nodes = (
(100,426,o),
(70,443,o),
(70,478,cs),
(70,513,o),
(100,530,o),
(132,530,cs),
(164,530,o),
(193,513,o),
(193,479,cs),
(193,444,o),
(164,426,o),
(132,426,cs)
);
}
);
userData = {
RMXScaler = {
height = 45;
verticalShift = 385;
weight = -27;
width = 47;
};
};
width = 264;
},
{
associatedMasterId = m002;
background = {
shapes = (
{
closed = 1;
nodes = (
(357,-10,o),
(446,59,o),
(446,158,cs),
(446,272,o),
(373,306,o),
(272,392,cs),
(210,445,o),
(135,488,o),
(135,559,cs),
(135,601,o),
(173,649,o),
(240,649,cs),
(310,649,o),
(349,606,o),
(349,548,cs),
(349,487,o),
(307,427,o),
(257,377,c),
(294,345,l),
(378,426,o),
(430,480,o),
(430,555,cs),
(430,636,o),
(364,710,o),
(240,710,cs),
(115,710,o),
(52,632,o),
(52,562,cs),
(52,468,o),
(123,415,o),
(227,324,cs),
(300,260,o),
(361,225,o),
(361,155,cs),
(361,98,o),
(316,64,o),
(240,64,cs),
(166,64,o),
(111,105,o),
(111,173,cs),
(111,237,o),
(140,286,o),
(223,360,c),
(185,387,l),
(76,304,o),
(24,255,o),
(24,156,cs),
(24,66,o),
(110,-10,o),
(235,-10,cs)
);
}
);
};
layerId = "2226893A-8639-427E-A108-8AC0B2450A98";
name = "16 Jun 23 16.30";
shapes = (
{
closed = 1;
nodes = (
(357,-10,o),
(456,59,o),
(456,171,cs),
(456,288,o),
(346,331,o),
(267,388,cs),
(202,435,o),
(124,470,o),
(124,553,cs),
(124,608,o),
(173,649,o),
(240,649,cs),
(307,649,o),
(356,608,o),
(356,550,cs),
(356,473,o),
(295,430,o),
(233,385,c),
(286,342,l),
(362,398,o),
(438,446,o),
(438,546,cs),
(438,639,o),
(355,710,o),
(240,710,cs),
(125,710,o),
(42,639,o),
(42,547,cs),
(42,440,o),
(136,399,o),
(216,339,cs),
(291,283,o),
(374,242,o),
(374,166,cs),
(374,103,o),
(323,64,o),
(240,64,cs),
(164,64,o),
(107,103,o),
(107,169,cs),
(107,241,o),
(173,293,o),
(246,347,c),
(191,389,l),
(114,336,o),
(24,282,o),
(24,173,cs),
(24,59,o),
(123,-10,o),
(240,-10,cs)
);
}
);
width = 485;
}
);
userData = {
RMXScaler = {
source = eight;
};
};
}
{
glyphname = endash.case;
kernLeft = periodcentered;
kernRight = periodcentered;
layers = (
{
layerId = m002;
shapes = (
{
closed = 1;
nodes = (
(449,308,l),
(449,390,l),
(67,390,l),
(67,308,l)
);
}
);
userData = {
RMXScaler = {
verticalShift = 71;
};
};
width = 516;
}
);
userData = {
RMXScaler = {
source = endash;
};
};
}
{
glyphname = guillemetleft.case;
kernLeft = guillemetleft;
kernRight = guillemetleft;
layers = (
{
anchors = (
{
name = guilsinglleft;
pos = (443,71);
}
);
layerId = m002;
shapes = (
{
closed = 1;
nodes = (
(127,373,l),
(131,342,l),
(407,606,l),
(412,593,l),
(274,593,l),
(306,603,l),
(39,344,l),
(38,360,l),
(302,99,l),
(280,109,l),
(415,109,l),
(406,97,l)
);
},
{
closed = 1;
nodes = (
(313,373,l),
(317,342,l),
(593,606,l),
(598,593,l),
(460,593,l),
(492,603,l),
(225,344,l),
(224,360,l),
(488,99,l),
(466,109,l),
(601,109,l),
(592,97,l)
);
}
);
userData = {
RMXScaler = {
verticalShift = 71;
};
};
width = 585;
}
);
metricLeft = guilsinglleft.case;
metricRight = guilsinglleft.case;
userData = {
RMXScaler = {
source = guillemetleft;
};
};
}
{
glyphname = guillemetright.case;
kernLeft = guillemetright;
kernRight = guillemetright;
layers = (
{
anchors = (
{
name = guilsinglright;
pos = (142,71);
}
);
layerId = m002;
shapes = (
{
closed = 1;
nodes = (
(170,109,l),
(305,109,l),
(283,99,l),
(547,360,l),
(546,344,l),
(279,603,l),
(311,593,l),
(173,593,l),
(178,606,l),
(454,342,l),
(458,373,l),
(179,97,l)
);
},
{
closed = 1;
nodes = (
(-16,109,l),
(119,109,l),
(97,99,l),
(361,360,l),
(360,344,l),
(93,603,l),
(125,593,l),
(-13,593,l),
(-8,606,l),
(268,342,l),
(272,373,l),
(-7,97,l)
);
}
);
userData = {
RMXScaler = {
verticalShift = 71;
};
};
width = 585;
}
);
metricLeft = "=|guilsinglleft.case";
metricRight = "=|guilsinglleft.case";
userData = {
RMXScaler = {
source = guillemetright;
};
};
}
{
glyphname = hyphen.case;
kernLeft = periodcentered;
kernRight = periodcentered;
layers = (
{
layerId = m002;
shapes = (
{
closed = 1;
nodes = (
(287,307,l),
(287,390,l),
(67,390,l),
(67,307,l)
);
}
);
userData = {
RMXScaler = {
verticalShift = 71;
};
};
width = 354;
}
);
userData = {
RMXScaler = {
source = hyphen;
};
};
}
{
glyphname = "kafSasak-bali.below";
layers = (
{
anchors = (
{
name = _bottom;
pos = (-92,0);
},
{
name = bottom;
pos = (-92,-679);
},
{
name = top;
pos = (-467,650);
}
);
layerId = m002;
name = Regular;
shapes = (
{
closed = 1;
nodes = (
(-742,-689,o),
(-710,-560,o),
(-705,-459,c),
(-716,-466,l),
(-670,-449,o),
(-616,-447,o),
(-567,-451,c),
(-561,-391,l),
(-644,-391,o),
(-697,-401,o),
(-720,-407,c),
(-760,-415,l),
(-868,-448,o),
(-936,-528,o),
(-936,-600,cs),
(-936,-656,o),
(-898,-689,o),
(-849,-689,cs)
);
},
{
closed = 1;
nodes = (
(-860,-628,o),
(-869,-613,o),
(-869,-594,cs),
(-869,-556,o),
(-831,-503,o),
(-759,-479,c),
(-771,-462,l),
(-773,-540,o),
(-802,-628,o),
(-841,-628,cs)
);
},
{
alignment = -1;
pos = (-1007,-679);
ref = _na_tenas;
},
{
pos = (-937,-679);
ref = _na_batis;
},
{
alignment = -1;
pos = (-937,-679);
ref = _na_bangkiang;
},
{
pos = (-999,-679);
ref = _suwet_ka;
},
{
closed = 1;
nodes = (
(-92,-679,l),
(-92,-388,l),
(-168,-388,l),
(-168,-679,l)
);
}
);
width = 0;
},
{
anchors = (
{
name = _bottom;
pos = (939,0);
},
{
name = bottom;
pos = (939,-679);
}
);
associatedMasterId = m002;
layerId = m003;
name = Bold;
shapes = (
{
closed = 1;
nodes = (
(289,-689,o),
(321,-560,o),
(326,-459,c),
(315,-466,l),
(361,-449,o),
(415,-447,o),
(464,-451,c),
(470,-391,l),
(387,-391,o),
(334,-401,o),
(311,-407,c),
(271,-415,l),
(163,-448,o),
(95,-528,o),
(95,-600,cs),
(95,-656,o),
(133,-689,o),
(182,-689,cs)
);
},
{
closed = 1;
nodes = (
(171,-628,o),
(162,-613,o),
(162,-594,cs),
(162,-556,o),
(200,-503,o),
(272,-479,c),
(260,-462,l),
(258,-540,o),
(229,-628,o),
(190,-628,cs)
);
},
{
alignment = -1;
pos = (24,-679);
ref = _na_tenas;
},
{
pos = (94,-679);
ref = _na_batis;
},
{
alignment = -1;
pos = (94,-679);
ref = _na_bangkiang;
},
{
pos = (32,-679);
ref = _suwet_ka;
},
{
closed = 1;
nodes = (
(939,-679,l),
(939,-388,l),
(863,-388,l),
(863,-679,l)
);
}
);
width = 989;
}
);
}
{
glyphname = "la-bali.below";
layers = (
{
anchors = (
{
name = _bottom;
pos = (-80,0);
},
{
name = bottom;
pos = (-80,-679);
},
{
name = top;
pos = (-467,650);
}
);
background = {
anchors = (
{
name = _bottom;
pos = (-80,0);
},
{
name = bottom;
pos = (-80,-679);
}
);
shapes = (
{
alignment = -1;
pos = (-1169,-679);
ref = _la_tenas;
},
{
closed = 1;
nodes = (
(-836,-689,o),
(-787,-641,o),
(-787,-569,cs),
(-787,-500,o),
(-810,-443,o),
(-810,-337,cs),
(-810,-240,o),
(-760,-200,o),
(-687,-200,c),
(-677,-197,l),
(-676,-126,l),
(-686,-124,l),
(-798,-124,o),
(-882,-200,o),
(-882,-332,cs),
(-882,-447,o),
(-860,-496,o),
(-860,-571,cs),
(-860,-606,o),
(-882,-624,o),
(-907,-624,c),
(-906,-689,l)
);
},
{
ref = _calaca_gantungan;
},
{
pos = (-789,-679);
ref = _daMudra;
}
);
};
layerId = m002;
name = Regular;
shapes = (
{
closed = 1;
nodes = (
(-690,-689,o),
(-642,-643,o),
(-642,-565,cs),
(-642,-512,o),
(-665,-423,o),
(-665,-352,cs),
(-665,-241,o),
(-610,-200,o),
(-535,-200,cs),
(-459,-200,o),
(-411,-243,o),
(-411,-338,cs),
(-411,-366,o),
(-415,-441,o),
(-415,-476,cs),
(-415,-606,o),
(-358,-689,o),
(-223,-689,cs),
(-58,-689,o),
(15,-565,o),
(15,-418,cs),
(15,-321,o),
(-17,-217,o),
(-77,-128,c),
(-54,-136,l),
(-141,-182,l),
(-143,-153,l),
(-87,-242,o),
(-59,-337,o),
(-59,-421,cs),
(-59,-531,o),
(-107,-619,o),
(-219,-619,cs),
(-302,-619,o),
(-342,-571,o),
(-342,-471,cs),
(-342,-439,o),
(-338,-359,o),
(-338,-330,cs),
(-338,-208,o),
(-406,-124,o),
(-533,-124,cs),
(-645,-124,o),
(-737,-190,o),
(-737,-348,cs),
(-737,-424,o),
(-715,-514,o),
(-715,-562,cs),
(-715,-605,o),
(-733,-624,o),
(-761,-624,cs),
(-790,-624,o),
(-821,-604,o),
(-821,-536,cs),
(-821,-459,o),
(-781,-337,o),
(-781,-255,cs),
(-781,-165,o),
(-829,-124,o),
(-898,-124,cs),
(-976,-124,o),
(-1018,-178,o),
(-1018,-247,cs),
(-1018,-305,o),
(-989,-352,o),
(-974,-376,c),
(-999,-376,l),
(-890,-321,l),
(-909,-365,l),
(-931,-324,o),
(-949,-286,o),
(-949,-249,cs),
(-949,-215,o),
(-934,-194,o),
(-905,-194,cs),
(-872,-194,o),
(-862,-223,o),
(-862,-261,cs),
(-862,-337,o),
(-901,-458,o),
(-901,-541,cs),
(-901,-640,o),
(-846,-689,o),
(-767,-689,cs)
);
}
);
width = 0;
},
{
anchors = (
{
name = _bottom;
pos = (955,0);
},
{
name = bottom;
pos = (1007,-689);
}
);
associatedMasterId = m002;
layerId = "22D7A865-C8EF-48AB-9989-6300FBBDF51E";
name = "31 May 23 16.51";
shapes = (
{
closed = 1;
nodes = (
(955,-689,o),
(1020,-568,o),
(1020,-423,cs),
(1020,-319,o),
(986,-202,o),
(925,-110,c),
(943,-122,l),
(865,-154,l),
(868,-120,l),
(920,-208,o),
(949,-318,o),
(949,-413,cs),
(949,-527,o),
(906,-618,o),
(810,-618,cs),
(742,-618,o),
(707,-573,o),
(707,-504,cs),
(707,-453,o),
(727,-375,o),
(727,-308,cs),
(727,-196,o),
(653,-124,o),
(534,-124,c),
(533,-200,l),
(611,-200,o),
(649,-250,o),
(649,-310,cs),
(649,-395,o),
(627,-441,o),
(627,-508,cs),
(627,-629,o),
(700,-689,o),
(807,-689,cs)
);
},
{
pos = (58,-679);
ref = _la_tenas;
},
{
pos = (58,-679);
ref = _la_baong;
}
);
width = 1120;
},
{
anchors = (
{
name = _bottom;
pos = (1026,0);
},
{
name = bottom;
pos = (824,-679);
}
);
associatedMasterId = m002;
layerId = "C215CD42-2F63-4D0C-BD2F-554986C04958";
name = "1 Jun 23 10.35";
shapes = (
{
closed = 1;
nodes = (
(934,-689,o),
(1026,-616,o),
(1026,-393,cs),
(1026,-124,l),
(950,-124,l),
(950,-382,ls),
(950,-567,o),
(901,-620,o),
(825,-620,cs),
(782,-620,o),
(726,-593,o),
(726,-501,cs),
(726,-456,o),
(734,-388,o),
(734,-331,cs),
(734,-193,o),
(654,-124,o),
(534,-124,c),
(533,-200,l),
(621,-200,o),
(659,-250,o),
(659,-350,cs),
(659,-395,o),
(654,-451,o),
(654,-507,cs),
(654,-641,o),
(745,-689,o),
(824,-689,cs)
);
},
{
pos = (58,-679);
ref = _la_tenas;
},
{
pos = (58,-679);
ref = _la_baong;
}
);
width = 1120;
},
{
anchors = (
{
name = _bottom;
pos = (998,0);
},
{
name = bottom;
pos = (1032,-679);
}
);
associatedMasterId = m002;
layerId = "66034491-0167-4E43-A932-9846EA7A12C5";
name = "1 Jun 23 10.46";
shapes = (
{
closed = 1;
nodes = (
(998,-689,o),
(1072,-575,o),
(1072,-419,cs),
(1072,-326,o),
(1049,-221,o),
(1005,-120,c),
(1024,-125,l),
(943,-148,l),
(949,-131,l),
(987,-244,o),
(1004,-339,o),
(1004,-414,cs),
(1004,-541,o),
(954,-620,o),
(836,-620,cs),
(762,-620,o),
(724,-579,o),
(724,-495,cs),
(724,-459,o),
(734,-388,o),
(734,-331,cs),
(734,-193,o),
(654,-124,o),
(534,-124,c),
(533,-200,l),
(621,-200,o),
(659,-250,o),
(659,-350,cs),
(659,-395,o),
(651,-449,o),
(651,-508,cs),
(651,-624,o),
(728,-689,o),
(835,-689,cs)
);
},
{
pos = (58,-679);
ref = _la_tenas;
},
{
pos = (58,-679);
ref = _la_baong;
}
);
width = 1120;
},
{
anchors = (
{
name = _bottom;
pos = (998,0);
},
{
name = bottom;
pos = (1032,-679);
}
);
associatedMasterId = m002;
layerId = "5F7353D6-E6B9-4D29-ADAD-99CE626442F1";
name = "6 Jun 23 11.51";
shapes = (
{
closed = 1;
nodes = (
(391,-689,o),
(440,-641,o),
(440,-569,cs),
(440,-500,o),
(411,-440,o),
(411,-342,cs),
(411,-245,o),
(460,-200,o),
(546,-200,cs),
(640,-200,o),
(666,-253,o),
(666,-332,cs),
(666,-395,o),
(650,-466,o),
(650,-524,cs),
(650,-632,o),
(724,-689,o),
(840,-689,cs),
(1006,-689,o),
(1051,-570,o),
(1051,-446,cs),
(1051,-332,o),
(1024,-219,o),
(977,-100,c),
(1009,-127,l),
(912,-158,l),
(920,-131,l),
(957,-247,o),
(977,-336,o),
(977,-423,cs),
(977,-545,o),
(952,-619,o),
(842,-619,cs),
(775,-619,o),
(725,-591,o),
(725,-510,cs),
(725,-474,o),
(740,-388,o),
(740,-303,cs),
(740,-210,o),
(682,-124,o),
(545,-124,cs),
(416,-124,o),
(341,-205,o),
(341,-347,cs),
(341,-444,o),
(367,-496,o),
(367,-571,cs),
(367,-606,o),
(345,-624,o),
(320,-624,c),
(321,-689,l)
);
},
{
pos = (58,-679);
ref = _la_tenas;
}
);
width = 1120;
},
{
anchors = (
{
name = _bottom;
pos = (998,0);
},
{
name = bottom;
pos = (884,-679);
}
);
associatedMasterId = m002;
layerId = "A39F2852-F4EE-434A-826E-C5C26F3E05B1";
name = "6 Jun 23 12.04";
shapes = (
{
closed = 1;
nodes = (
(391,-689,o),
(440,-641,o),
(440,-569,cs),
(440,-500,o),
(411,-440,o),
(411,-342,cs),
(411,-252,o),
(448,-200,o),
(526,-200,cs),
(780,-200,o),
(516,-692,o),
(833,-692,cs),
(1057,-692,o),
(1028,-307,o),
(977,-100,c),
(1009,-127,l),
(912,-158,l),
(920,-131,l),
(941,-275,o),
(985,-624,o),
(836,-624,cs),
(606,-624,o),
(847,-124,o),
(522,-124,cs),
(402,-124,o),
(341,-212,o),
(341,-347,cs),
(341,-444,o),
(367,-496,o),
(367,-571,cs),
(367,-606,o),
(345,-624,o),
(320,-624,c),
(321,-689,l)
);
},
{
pos = (58,-679);
ref = _la_tenas;
}
);
width = 1120;
},
{
anchors = (
{
name = _bottom;
pos = (955,0);
},
{
name = bottom;
pos = (1007,-689);
}
);
associatedMasterId = m002;
layerId = "304B935F-03D9-49C2-9295-1A98FAA53815";
name = Regular;
shapes = (
{
closed = 1;
nodes = (
(955,-689,o),
(1020,-568,o),
(1020,-423,cs),
(1020,-319,o),
(986,-202,o),
(925,-110,c),
(943,-122,l),
(865,-154,l),
(868,-120,l),
(920,-208,o),
(949,-318,o),
(949,-413,cs),
(949,-527,o),
(906,-618,o),
(810,-618,cs),
(742,-618,o),
(707,-573,o),
(707,-504,cs),
(707,-453,o),
(727,-375,o),
(727,-308,cs),
(727,-196,o),
(653,-124,o),
(534,-124,c),
(533,-200,l),
(611,-200,o),
(649,-250,o),
(649,-310,cs),
(649,-395,o),
(627,-441,o),
(627,-508,cs),
(627,-629,o),
(700,-689,o),
(807,-689,cs)
);
},
{
pos = (58,-679);
ref = _la_tenas;
},
{
pos = (58,-679);
ref = _la_baong;
}
);
width = 1120;
},
{
anchors = (
{
name = _bottom;
pos = (1026,0);
},
{
name = bottom;
pos = (824,-679);
}
);
associatedMasterId = m002;
layerId = "70A7BF0A-E8C6-4304-BF78-DE4BCFEE39C8";
name = Regular;
shapes = (
{
closed = 1;
nodes = (
(934,-689,o),
(1026,-616,o),
(1026,-393,cs),
(1026,-124,l),
(950,-124,l),
(950,-382,ls),
(950,-567,o),
(901,-620,o),
(825,-620,cs),
(782,-620,o),
(726,-593,o),
(726,-501,cs),
(726,-456,o),
(734,-388,o),
(734,-331,cs),
(734,-193,o),
(654,-124,o),
(534,-124,c),
(533,-200,l),
(621,-200,o),
(659,-250,o),
(659,-350,cs),
(659,-395,o),
(654,-451,o),
(654,-507,cs),
(654,-641,o),
(745,-689,o),
(824,-689,cs)
);
},
{
pos = (58,-679);
ref = _la_tenas;
},
{
pos = (58,-679);
ref = _la_baong;
}
);
width = 1120;
},
{
anchors = (
{
name = _bottom;
pos = (998,0);
},
{
name = bottom;
pos = (1032,-679);
}
);
associatedMasterId = m002;
layerId = "39438E7B-DD9C-4CBA-B5AA-EC896092C1BA";
name = Regular;
shapes = (
{
closed = 1;
nodes = (
(998,-689,o),
(1072,-575,o),
(1072,-419,cs),
(1072,-326,o),
(1049,-221,o),
(1005,-120,c),
(1024,-125,l),
(943,-148,l),
(949,-131,l),
(987,-244,o),
(1004,-339,o),
(1004,-414,cs),
(1004,-541,o),
(954,-620,o),
(836,-620,cs),
(762,-620,o),
(724,-579,o),
(724,-495,cs),
(724,-459,o),
(734,-388,o),
(734,-331,cs),
(734,-193,o),
(654,-124,o),
(534,-124,c),
(533,-200,l),
(621,-200,o),
(659,-250,o),
(659,-350,cs),
(659,-395,o),
(651,-449,o),
(651,-508,cs),
(651,-624,o),
(728,-689,o),
(835,-689,cs)
);
},
{
pos = (58,-679);
ref = _la_tenas;
},
{
pos = (58,-679);
ref = _la_baong;
}
);
width = 1120;
},
{
anchors = (
{
name = _bottom;
pos = (998,0);
},
{
name = bottom;
pos = (1032,-679);
}
);
associatedMasterId = m002;
layerId = "234AFD43-A520-4DCB-A940-4249BE6C3C6D";
name = Regular;
shapes = (
{
closed = 1;
nodes = (
(391,-689,o),
(440,-641,o),
(440,-569,cs),
(440,-500,o),
(411,-440,o),
(411,-342,cs),
(411,-245,o),
(460,-200,o),
(546,-200,cs),
(640,-200,o),
(666,-253,o),
(666,-332,cs),
(666,-395,o),
(650,-466,o),
(650,-524,cs),
(650,-632,o),
(724,-689,o),
(840,-689,cs),
(1006,-689,o),
(1051,-570,o),
(1051,-446,cs),
(1051,-332,o),
(1024,-219,o),
(977,-100,c),
(1009,-127,l),
(912,-158,l),
(920,-131,l),
(957,-247,o),
(977,-336,o),
(977,-423,cs),
(977,-545,o),
(952,-619,o),
(842,-619,cs),
(775,-619,o),
(725,-591,o),
(725,-510,cs),
(725,-474,o),
(740,-388,o),
(740,-303,cs),
(740,-210,o),
(682,-124,o),
(545,-124,cs),
(416,-124,o),
(341,-205,o),
(341,-347,cs),
(341,-444,o),
(367,-496,o),
(367,-571,cs),
(367,-606,o),
(345,-624,o),
(320,-624,c),
(321,-689,l)
);
},
{
pos = (58,-679);
ref = _la_tenas;
}
);
width = 1120;
},
{
anchors = (
{
name = _bottom;
pos = (998,0);
},
{
name = bottom;
pos = (884,-679);
}
);
associatedMasterId = m002;
layerId = "6DD42FA6-C389-406C-9A1C-9516B9F81C49";
name = Regular;
shapes = (
{
closed = 1;
nodes = (
(391,-689,o),
(440,-641,o),
(440,-569,cs),
(440,-500,o),
(411,-440,o),
(411,-342,cs),
(411,-252,o),
(448,-200,o),
(526,-200,cs),
(780,-200,o),
(516,-692,o),
(833,-692,cs),
(1057,-692,o),
(1028,-307,o),
(977,-100,c),
(1009,-127,l),
(912,-158,l),
(920,-131,l),
(941,-275,o),
(985,-624,o),
(836,-624,cs),
(606,-624,o),
(847,-124,o),
(522,-124,cs),
(402,-124,o),
(341,-212,o),
(341,-347,cs),
(341,-444,o),
(367,-496,o),
(367,-571,cs),
(367,-606,o),
(345,-624,o),
(320,-624,c),
(321,-689,l)
);
},
{
pos = (58,-679);
ref = _la_tenas;
}
);
width = 1120;
},
{
anchors = (
{
name = _bottom;
pos = (1018,0);
},
{
name = bottom;
pos = (884,-679);
}
);
associatedMasterId = m002;
layerId = m003;
name = Bold;
shapes = (
{
closed = 1;
nodes = (
(969,-689,o),
(1018,-583,o),
(1018,-429,cs),
(1018,-134,l),
(942,-134,l),
(942,-424,ls),
(942,-561,o),
(905,-615,o),
(827,-615,cs),
(760,-615,o),
(714,-577,o),
(714,-502,cs),
(714,-456,o),
(722,-388,o),
(722,-331,cs),
(722,-193,o),
(642,-124,o),
(522,-124,c),
(521,-200,l),
(609,-200,o),
(647,-250,o),
(647,-350,cs),
(647,-395,o),
(639,-451,o),
(639,-498,cs),
(639,-641,o),
(723,-689,o),
(824,-689,cs)
);
},
{
pos = (46,-679);
ref = _la_tenas;
},
{
pos = (46,-679);
ref = _la_baong;
}
);
width = 1120;
},
{
anchors = (
{
name = _bottom;
pos = (955,0);
},
{
name = bottom;
pos = (1007,-689);
}
);
associatedMasterId = m002;
layerId = "63DE78D1-65B1-4D23-93FB-B8CC1FB37DED";
name = Bold;
shapes = (
{
closed = 1;
nodes = (
(955,-689,o),
(1020,-568,o),
(1020,-423,cs),
(1020,-319,o),
(986,-202,o),
(925,-110,c),
(943,-122,l),
(865,-154,l),
(868,-120,l),
(920,-208,o),
(949,-318,o),
(949,-413,cs),
(949,-527,o),
(906,-618,o),
(810,-618,cs),
(742,-618,o),
(707,-573,o),
(707,-504,cs),
(707,-453,o),
(727,-375,o),
(727,-308,cs),
(727,-196,o),
(653,-124,o),
(534,-124,c),
(533,-200,l),
(611,-200,o),
(649,-250,o),
(649,-310,cs),
(649,-395,o),
(627,-441,o),
(627,-508,cs),
(627,-629,o),
(700,-689,o),
(807,-689,cs)
);
},
{
pos = (58,-679);
ref = _la_tenas;
},
{
pos = (58,-679);
ref = _la_baong;
}
);
width = 1120;
},
{
anchors = (
{
name = _bottom;
pos = (1026,0);
},
{
name = bottom;
pos = (824,-679);
}
);
associatedMasterId = m002;
layerId = "0BA6AC11-FDBA-4295-B301-138685D42EC5";
name = Bold;
shapes = (
{
closed = 1;
nodes = (
(934,-689,o),
(1026,-616,o),
(1026,-393,cs),
(1026,-124,l),
(950,-124,l),
(950,-382,ls),
(950,-567,o),
(901,-620,o),
(825,-620,cs),
(782,-620,o),
(726,-593,o),
(726,-501,cs),
(726,-456,o),
(734,-388,o),
(734,-331,cs),
(734,-193,o),
(654,-124,o),
(534,-124,c),
(533,-200,l),
(621,-200,o),
(659,-250,o),
(659,-350,cs),
(659,-395,o),
(654,-451,o),
(654,-507,cs),
(654,-641,o),
(745,-689,o),
(824,-689,cs)
);
},
{
pos = (58,-679);
ref = _la_tenas;
},
{
pos = (58,-679);
ref = _la_baong;
}
);
width = 1120;
},
{
anchors = (
{
name = _bottom;
pos = (998,0);
},
{
name = bottom;
pos = (1032,-679);
}
);
associatedMasterId = m002;
layerId = "9AE91CBD-6353-4973-B1DE-50650B10F75A";
name = Bold;
shapes = (
{
closed = 1;
nodes = (
(998,-689,o),
(1072,-575,o),
(1072,-419,cs),
(1072,-326,o),
(1049,-221,o),
(1005,-120,c),
(1024,-125,l),
(943,-148,l),
(949,-131,l),
(987,-244,o),
(1004,-339,o),
(1004,-414,cs),
(1004,-541,o),
(954,-620,o),
(836,-620,cs),
(762,-620,o),
(724,-579,o),
(724,-495,cs),
(724,-459,o),
(734,-388,o),
(734,-331,cs),
(734,-193,o),
(654,-124,o),
(534,-124,c),
(533,-200,l),
(621,-200,o),
(659,-250,o),
(659,-350,cs),
(659,-395,o),
(651,-449,o),
(651,-508,cs),
(651,-624,o),
(728,-689,o),
(835,-689,cs)
);
},
{
pos = (58,-679);
ref = _la_tenas;
},
{
pos = (58,-679);
ref = _la_baong;
}
);
width = 1120;
},
{
anchors = (
{
name = _bottom;
pos = (998,0);
},
{
name = bottom;
pos = (1032,-679);
}
);
associatedMasterId = m002;
layerId = "58DE1649-92D8-4E46-A695-FDDCB0E21136";
name = Bold;
shapes = (
{
closed = 1;
nodes = (
(391,-689,o),
(440,-641,o),
(440,-569,cs),
(440,-500,o),
(411,-440,o),
(411,-342,cs),
(411,-245,o),
(460,-200,o),
(546,-200,cs),
(640,-200,o),
(666,-253,o),
(666,-332,cs),
(666,-395,o),
(650,-466,o),
(650,-524,cs),
(650,-632,o),
(724,-689,o),
(840,-689,cs),
(1006,-689,o),
(1051,-570,o),
(1051,-446,cs),
(1051,-332,o),
(1024,-219,o),
(977,-100,c),
(1009,-127,l),
(912,-158,l),
(920,-131,l),
(957,-247,o),
(977,-336,o),
(977,-423,cs),
(977,-545,o),
(952,-619,o),
(842,-619,cs),
(775,-619,o),
(725,-591,o),
(725,-510,cs),
(725,-474,o),
(740,-388,o),
(740,-303,cs),
(740,-210,o),
(682,-124,o),
(545,-124,cs),
(416,-124,o),
(341,-205,o),
(341,-347,cs),
(341,-444,o),
(367,-496,o),
(367,-571,cs),
(367,-606,o),
(345,-624,o),
(320,-624,c),
(321,-689,l)
);
},
{
pos = (58,-679);
ref = _la_tenas;
}
);
width = 1120;
},
{
anchors = (
{
name = _bottom;
pos = (998,0);
},
{
name = bottom;
pos = (884,-679);
}
);
associatedMasterId = m002;
layerId = "66FFCAA1-968E-4C66-9468-ED3B90EB3235";
name = Bold;
shapes = (
{
closed = 1;
nodes = (
(391,-689,o),
(440,-641,o),
(440,-569,cs),
(440,-500,o),
(411,-440,o),
(411,-342,cs),
(411,-252,o),
(448,-200,o),
(526,-200,cs),
(780,-200,o),
(516,-692,o),
(833,-692,cs),
(1057,-692,o),
(1028,-307,o),
(977,-100,c),
(1009,-127,l),
(912,-158,l),
(920,-131,l),
(941,-275,o),
(985,-624,o),
(836,-624,cs),
(606,-624,o),
(847,-124,o),
(522,-124,cs),
(402,-124,o),
(341,-212,o),
(341,-347,cs),
(341,-444,o),
(367,-496,o),
(367,-571,cs),
(367,-606,o),
(345,-624,o),
(320,-624,c),
(321,-689,l)
);
},
{
pos = (58,-679);
ref = _la_tenas;
}
);
width = 1120;
}
);
}
{
category = Letter;
glyphname = "nya_baKembang-bali.below";
layers = (
{
anchors = (
{
name = _bottom;
pos = (1050,0);
},
{
name = bottom;
pos = (1050,-679);
},
{
name = top;
pos = (764,650);
}
);
layerId = m002;
shapes = (
{
ref = "nya-bali";
},
{
closed = 1;
nodes = (
(499,-689,o),
(557,-644,o),
(602,-602,c),
(592,-602,l),
(626,-663,o),
(682,-689,o),
(738,-689,cs),
(810,-689,o),
(858,-643,o),
(858,-572,cs),
(858,-496,o),
(803,-455,o),
(740,-455,cs),
(700,-455,o),
(664,-472,o),
(623,-506,c),
(631,-508,l),
(624,-483,o),
(618,-448,o),
(618,-409,cs),
(618,-313,o),
(656,-200,o),
(806,-200,cs),
(889,-200,o),
(974,-236,o),
(974,-388,cs),
(974,-679,l),
(1050,-679,l),
(1050,-388,ls),
(1050,-188,o),
(944,-124,o),
(813,-124,cs),
(611,-124,o),
(543,-274,o),
(543,-411,cs),
(543,-466,o),
(554,-518,o),
(571,-559,c),
(578,-538,l),
(508,-602,o),
(463,-621,o),
(427,-621,cs),
(346,-621,o),
(279,-555,o),
(279,-443,cs),
(279,-312,o),
(363,-204,o),
(501,-165,c),
(491,-179,l),
(466,-97,l),
(487,-103,l),
(328,-140,o),
(203,-274,o),
(203,-446,cs),
(203,-587,o),
(286,-689,o),
(417,-689,cs)
);
},
{
closed = 1;
nodes = (
(707,-627,o),
(671,-604,o),
(647,-553,c),
(646,-561,l),
(671,-539,o),
(703,-519,o),
(736,-519,cs),
(769,-519,o),
(794,-538,o),
(794,-576,cs),
(794,-609,o),
(775,-627,o),
(743,-627,cs)
);
}
);
width = 1693;
}
);
subCategory = Spacing;
}
{
category = Letter;
glyphname = "nya_ca-bali.below";
layers = (
{
anchors = (
{
name = _bottom;
pos = (1388,0);
},
{
name = bottom;
pos = (1175,-679);
},
{
name = top;
pos = (764,650);
}
);
layerId = m002;
shapes = (
{
closed = 1;
nodes = (
(384,-689,o),
(464,-599,o),
(464,-437,cs),
(464,-134,l),
(400,-134,l),
(400,-435,ls),
(400,-558,o),
(340,-621,o),
(228,-618,c),
(228,-689,l)
);
},
{
closed = 1;
nodes = (
(916,-689,o),
(1021,-620,o),
(1021,-458,cs),
(1021,-291,o),
(910,-232,o),
(794,-234,c),
(791,-248,l),
(834,-210,o),
(884,-192,o),
(933,-192,cs),
(1036,-192,o),
(1099,-270,o),
(1099,-418,cs),
(1099,-679,l),
(1175,-679,l),
(1175,-397,ls),
(1175,-223,o),
(1085,-124,o),
(949,-124,cs),
(859,-124,o),
(773,-167,o),
(709,-242,c),
(724,-220,l),
(752,-298,l),
(734,-284,l),
(827,-283,o),
(951,-306,o),
(951,-456,cs),
(951,-572,o),
(877,-619,o),
(785,-619,cs),
(672,-619,o),
(601,-548,o),
(601,-425,cs),
(601,-134,l),
(531,-134,l),
(531,-420,ls),
(531,-602,o),
(647,-689,o),
(790,-689,cs)
);
},
{
ref = "nya-bali";
}
);
width = 1693;
}
);
subCategory = Spacing;
}
{
category = Letter;
glyphname = "nya_kafSasak-bali.below";
layers = (
{
anchors = (
{
name = _bottom;
pos = (1126,0);
},
{
name = bottom;
pos = (1126,-679);
},
{
name = top;
pos = (764,650);
}
);
layerId = m002;
shapes = (
{
ref = "nya-bali";
},
{
closed = 1;
nodes = (
(476,-689,o),
(508,-560,o),
(513,-459,c),
(502,-466,l),
(548,-449,o),
(602,-447,o),
(651,-451,c),
(657,-391,l),
(574,-391,o),
(521,-401,o),
(498,-407,c),
(458,-415,l),
(350,-448,o),
(282,-528,o),
(282,-600,cs),
(282,-656,o),
(320,-689,o),
(369,-689,cs)
);
},
{
closed = 1;
nodes = (
(358,-628,o),
(349,-613,o),
(349,-594,cs),
(349,-556,o),
(387,-503,o),
(459,-479,c),
(447,-462,l),
(445,-540,o),
(416,-628,o),
(377,-628,cs)
);
},
{
alignment = -1;
pos = (211,-679);
ref = _na_tenas;
},
{
alignment = -1;
pos = (281,-679);
ref = _na_batis;
},
{
alignment = -1;
pos = (281,-679);
ref = _na_bangkiang;
},
{
alignment = -1;
pos = (219,-679);
ref = _suwet_ka;
},
{
closed = 1;
nodes = (
(1126,-679,l),
(1126,-388,l),
(1050,-388,l),
(1050,-679,l)
);
}
);
width = 1693;
}
);
subCategory = Spacing;
}
{
category = Letter;
glyphname = "nya_ra-bali.below";
layers = (
{
anchors = (
{
name = bottom;
pos = (1133,-457);
},
{
name = cecekbawah;
pos = (603,-453);
},
{
name = top;
pos = (764,650);
}
);
layerId = m002;
shapes = (
{
closed = 1;
nodes = (
(679,-770,ls),
(1036,-770,o),
(1229,-591,o),
(1229,-264,cs),
(1229,19,l),
(1210,-10,l),
(1301,-10,ls),
(1501,-10,o),
(1616,106,o),
(1616,285,cs),
(1616,435,o),
(1536,555,o),
(1372,555,cs),
(1220,555,o),
(1119,453,o),
(1119,291,cs),
(1119,235,ls),
(1119,128,o),
(1056,65,o),
(940,56,c),
(937,36,l),
(1016,101,o),
(1059,223,o),
(1059,328,cs),
(1059,448,o),
(1003,555,o),
(869,555,cs),
(785,555,o),
(729,514,o),
(697,451,c),
(691,451,l),
(664,522,o),
(603,555,o),
(528,555,cs),
(387,555,o),
(317,436,o),
(317,304,cs),
(317,213,o),
(349,117,o),
(415,47,c),
(443,60,l),
(390,62,ls),
(302,65,o),
(252,96,o),
(252,186,cs),
(252,260,o),
(286,372,o),
(286,436,cs),
(286,513,o),
(238,555,o),
(171,555,cs),
(95,555,o),
(49,501,o),
(49,431,cs),
(49,375,o),
(78,327,o),
(93,303,c),
(68,303,l),
(161,350,l),
(153,324,l),
(136,355,o),
(118,393,o),
(118,430,cs),
(118,464,o),
(133,485,o),
(163,485,cs),
(197,485,o),
(207,459,o),
(207,418,cs),
(207,344,o),
(174,247,o),
(174,174,cs),
(174,70,o),
(240,-10,o),
(397,-10,cs),
(461,-10,ls),
(490,-10,o),
(503,2,o),
(503,20,cs),
(503,29,o),
(500,40,o),
(484,56,cs),
(420,119,o),
(387,212,o),
(387,295,cs),
(387,394,o),
(435,479,o),
(531,479,cs),
(591,479,o),
(649,446,o),
(670,332,c),
(655,345,l),
(730,345,l),
(711,336,l),
(730,427,o),
(781,479,o),
(856,479,cs),
(947,479,o),
(987,403,o),
(987,304,cs),
(987,212,o),
(952,121,o),
(890,59,cs),
(870,39,o),
(868,26,o),
(868,19,cs),
(868,-7,o),
(894,-10,o),
(922,-10,cs),
(1080,-10,o),
(1187,85,o),
(1187,227,cs),
(1187,291,ls),
(1187,415,o),
(1256,480,o),
(1359,480,cs),
(1482,480,o),
(1536,387,o),
(1536,281,cs),
(1536,141,o),
(1442,55,o),
(1287,55,cs),
(1204,55,l),
(1165,13,l),
(1162,-257,ls),
(1159,-527,o),
(1009,-690,o),
(691,-690,cs),
(670,-690,ls),
(328,-690,o),
(179,-554,o),
(179,-301,cs),
(179,-244,o),
(187,-181,o),
(201,-112,c),
(206,-133,l),
(126,-119,l),
(138,-103,l),
(118,-178,o),
(108,-250,o),
(108,-316,cs),
(108,-589,o),
(287,-770,o),
(658,-770,cs)
);
}
);
width = 1693;
}
);
subCategory = Spacing;
}
{
category = Letter;
glyphname = "pa-bali.post";
layers = (
{
anchors = (
{
name = bottom;
pos = (563,0);
},
{
name = top;
pos = (204,650);
}
);
layerId = m002;
name = Regular;
shapes = (
{
closed = 1;
nodes = (
(321,-10,o),
(404,99,o),
(404,260,cs),
(404,502,l),
(397,482,l),
(465,484,o),
(487,447,o),
(487,372,cs),
(487,0,l),
(563,0,l),
(563,376,ls),
(563,498,o),
(518,550,o),
(395,550,cs),
(385,550,l),
(336,507,l),
(336,266,ls),
(336,139,o),
(287,59,o),
(159,59,cs),
(107,59,o),
(73,72,o),
(28,112,c),
(51,116,l),
(-7,48,l),
(-7,59,l),
(30,15,o),
(88,-10,o),
(163,-10,cs)
);
}
);
width = 643;
},
{
anchors = (
{
name = bottom;
pos = (563,0);
},
{
name = top;
pos = (134,650);
}
);
associatedMasterId = m002;
layerId = m003;
name = Bold;
shapes = (
{
ref = _sa_sapa_tenas;
},
{
alignment = -1;
pos = (-581,0);
ref = _ha_geluungan_ha;
}
);
width = 623;
}
);
metricLeft = "pa-bali.post";
metricRight = "ha-bali";
}
{
glyphname = psuperior;
layers = (
{
anchors = (
{
name = bottom;
pos = (205,357);
},
{
name = top;
pos = (200,700);
}
);
background = {
shapes = (
{
pos = (23,0);
ref = b;
}
);
};
guides = (
{
pos = (1042,869);
}
);
layerId = m002;
shapes = (
{
closed = 1;
nodes = (
(105,228,l),
(105,416,l),
(99,420,l),
(97,443,l),
(97,605,l),
(108,627,l),
(108,640,l),
(91,700,l),
(50,700,l),
(50,228,l)
);
},
{
closed = 1;
nodes = (
(281,351,o),
(349,411,o),
(349,529,cs),
(349,638,o),
(289,707,o),
(208,707,cs),
(168,707,o),
(133,690,o),
(106,653,c),
(86,653,l),
(83,405,l),
(106,405,l),
(124,375,o),
(160,351,o),
(206,351,cs)
);
},
{
closed = 1;
nodes = (
(142,399,o),
(102,445,o),
(102,526,c),
(102,531,l),
(102,623,o),
(150,657,o),
(197,657,cs),
(257,657,o),
(293,603,o),
(293,530,cs),
(293,453,o),
(252,399,o),
(195,399,cs)
);
}
);
userData = {
RMXScaler = {
height = 63;
verticalShift = 357;
weight = -27;
width = 62;
};
};
width = 378;
}
);
userData = {
RMXScaler = {
source = p;
};
};
}
{
category = Letter;
glyphname = "ra-bali.below3";
layers = (
{
anchors = (
{
name = _bottom;
pos = (-92,-669);
},
{
name = bottom;
pos = (14,-794);
},
{
name = cecekbawah;
pos = (-708,-788);
},
{
name = top;
pos = (-900,650);
}
);
background = {
shapes = (
{
closed = 1;
nodes = (
(-88,-1105,o),
(161,-974,o),
(161,-508,cs),
(161,545,l),
(89,545,l),
(89,-482,ls),
(89,-922,o),
(-128,-1028,o),
(-475,-1028,cs),
(-880,-1028,o),
(-1068,-839,o),
(-1068,-546,cs),
(-1068,-421,o),
(-1034,-276,o),
(-956,-112,c),
(-958,-144,l),
(-1048,-110,l),
(-1026,-103,l),
(-1103,-257,o),
(-1144,-413,o),
(-1144,-561,cs),
(-1144,-858,o),
(-960,-1105,o),
(-487,-1105,cs)
);
},
{
closed = 1;
nodes = (
(-88,-1105,o),
(161,-974,o),
(161,-508,cs),
(161,545,l),
(89,545,l),
(89,-482,ls),
(89,-922,o),
(-128,-1028,o),
(-485,-1028,cs),
(-911,-1028,o),
(-1101,-840,o),
(-1101,-557,cs),
(-1101,-492,o),
(-1096,-430,o),
(-1080,-366,c),
(-1039,-418,l),
(-1204,-398,l),
(-1146,-368,l),
(-1165,-433,o),
(-1174,-498,o),
(-1174,-570,cs),
(-1174,-858,o),
(-991,-1105,o),
(-497,-1105,cs)
);
}
);
};
layerId = m002;
name = Regular;
shapes = (
{
closed = 1;
nodes = (
(-471,-1105,ls),
(-97,-1105,o),
(103,-917,o),
(103,-549,cs),
(103,545,l),
(31,545,l),
(31,-538,ls),
(31,-825,o),
(-97,-1030,o),
(-468,-1030,cs),
(-652,-1030,ls),
(-1145,-1030,o),
(-1293,-817,o),
(-1293,-533,cs),
(-1293,-405,o),
(-1263,-258,o),
(-1221,-112,c),
(-1216,-133,l),
(-1296,-114,l),
(-1284,-103,l),
(-1332,-241,o),
(-1370,-400,o),
(-1370,-545,cs),
(-1370,-844,o),
(-1212,-1105,o),
(-659,-1105,cs)
);
}
);
width = 183;
},
{
anchors = (
{
name = _bottom;
pos = (804,-679);
}
);
associatedMasterId = m002;
layerId = "465A1B33-B479-474C-B230-E2125B83A327";
name = "6 Jun 23 10.53";
shapes = (
{
closed = 1;
nodes = (
(710,-1267,o),
(804,-1038,o),
(804,-825,cs),
(804,-679,l),
(728,-679,l),
(726,-827,ls),
(723,-1016,o),
(641,-1193,o),
(367,-1193,cs),
(131,-1193,o),
(11,-1076,o),
(10,-911,cs),
(10,-851,o),
(21,-806,o),
(49,-748,c),
(51,-792,l),
(-30,-757,l),
(0,-743,l),
(-37,-799,o),
(-55,-862,o),
(-55,-931,cs),
(-55,-1121,o),
(80,-1267,o),
(365,-1267,cs)
);
}
);
width = 854;
},
{
anchors = (
{
name = _bottom;
pos = (804,-679);
}
);
associatedMasterId = m002;
layerId = "AFC5E8FB-06CC-43CB-9BB2-12AF6AF15E5D";
name = "8 Jun 23 17.44";
shapes = (
{
closed = 1;
nodes = (
(660,-1176,o),
(804,-988,o),
(804,-718,cs),
(804,-669,l),
(728,-669,l),
(727,-719,ls),
(722,-965,o),
(580,-1099,o),
(319,-1099,cs),
(-20,-1099,o),
(-109,-949,o),
(-109,-781,cs),
(-109,-732,o),
(-101,-683,o),
(-88,-639,c),
(-74,-677,l),
(-173,-656,l),
(-146,-634,l),
(-166,-686,o),
(-177,-743,o),
(-177,-800,cs),
(-177,-987,o),
(-59,-1176,o),
(318,-1176,cs)
);
}
);
width = 864;
},
{
anchors = (
{
name = _bottom;
pos = (804,-679);
},
{
name = bottom;
pos = (823,-793);
}
);
associatedMasterId = m002;
background = {
shapes = (
{
closed = 1;
nodes = (
(709,-1105,o),
(804,-927,o),
(804,-728,cs),
(804,-669,l),
(728,-669,l),
(727,-729,ls),
(724,-904,o),
(629,-1028,o),
(358,-1028,cs),
(148,-1028,o),
(-5,-940,o),
(-5,-763,cs),
(-5,-741,o),
(-3,-718,o),
(1,-693,c),
(7,-705,l),
(-69,-695,l),
(-61,-685,l),
(-68,-720,o),
(-72,-752,o),
(-72,-783,cs),
(-72,-992,o),
(120,-1105,o),
(357,-1105,cs)
);
}
);
};
layerId = "FB393FEF-7F59-4960-AA08-591B6C65B90B";
name = "12 Jun 23 17.20";
shapes = (
{
closed = 1;
nodes = (
(545,-1105,o),
(804,-995,o),
(804,-669,c),
(728,-669,l),
(723,-921,o),
(539,-1028,o),
(278,-1028,cs),
(-134,-1028,o),
(-284,-839,o),
(-284,-566,cs),
(-284,-431,o),
(-247,-275,o),
(-187,-112,c),
(-182,-133,l),
(-262,-110,l),
(-250,-103,l),
(-317,-257,o),
(-360,-421,o),
(-360,-570,cs),
(-360,-866,o),
(-193,-1105,o),
(277,-1105,cs)
);
}
);
width = 864;
},
{
anchors = (
{
name = _bottom;
pos = (804,-679);
}
);
associatedMasterId = m002;
layerId = "F5EAE8E3-57BD-42C1-ABA8-60386DB6BE62";
name = Regular;
shapes = (
{
closed = 1;
nodes = (
(710,-1267,o),
(804,-1038,o),
(804,-825,cs),
(804,-679,l),
(728,-679,l),
(726,-827,ls),
(723,-1016,o),
(641,-1193,o),
(367,-1193,cs),
(131,-1193,o),
(11,-1076,o),
(10,-911,cs),
(10,-851,o),
(21,-806,o),
(49,-748,c),
(51,-792,l),
(-30,-757,l),
(0,-743,l),
(-37,-799,o),
(-55,-862,o),
(-55,-931,cs),
(-55,-1121,o),
(80,-1267,o),
(365,-1267,cs)
);
}
);
width = 854;
},
{
anchors = (
{
name = _bottom;
pos = (804,-679);
}
);
associatedMasterId = m002;
layerId = "576EDC41-4844-4C32-BFB2-9CF159F37EF3";
name = Regular;
shapes = (
{
closed = 1;
nodes = (
(660,-1176,o),
(804,-988,o),
(804,-718,cs),
(804,-669,l),
(728,-669,l),
(727,-719,ls),
(722,-965,o),
(580,-1099,o),
(319,-1099,cs),
(-20,-1099,o),
(-109,-949,o),
(-109,-781,cs),
(-109,-732,o),
(-101,-683,o),
(-88,-639,c),
(-74,-677,l),
(-173,-656,l),
(-146,-634,l),
(-166,-686,o),
(-177,-743,o),
(-177,-800,cs),
(-177,-987,o),
(-59,-1176,o),
(318,-1176,cs)
);
}
);
width = 864;
},
{
anchors = (
{
name = _bottom;
pos = (804,-679);
},
{
name = bottom;
pos = (823,-793);
}
);
associatedMasterId = m002;
background = {
shapes = (
{
closed = 1;
nodes = (
(709,-1105,o),
(804,-927,o),
(804,-728,cs),
(804,-669,l),
(728,-669,l),
(727,-729,ls),
(724,-904,o),
(629,-1028,o),
(358,-1028,cs),
(148,-1028,o),
(-5,-940,o),
(-5,-763,cs),
(-5,-741,o),
(-3,-718,o),
(1,-693,c),
(7,-705,l),
(-69,-695,l),
(-61,-685,l),
(-68,-720,o),
(-72,-752,o),
(-72,-783,cs),
(-72,-992,o),
(120,-1105,o),
(357,-1105,cs)
);
}
);
};
layerId = "D2DB8D67-9C58-4E59-A6EE-AF36E4E7BD0A";
name = Regular;
shapes = (
{
closed = 1;
nodes = (
(545,-1105,o),
(804,-995,o),
(804,-669,c),
(728,-669,l),
(723,-921,o),
(539,-1028,o),
(278,-1028,cs),
(-134,-1028,o),
(-284,-839,o),
(-284,-566,cs),
(-284,-431,o),
(-247,-275,o),
(-187,-112,c),
(-182,-133,l),
(-262,-110,l),
(-250,-103,l),
(-317,-257,o),
(-360,-421,o),
(-360,-570,cs),
(-360,-866,o),
(-193,-1105,o),
(277,-1105,cs)
);
}
);
width = 864;
},
{
anchors = (
{
name = _bottom;
pos = (-86,-679);
},
{
name = bottom;
pos = (33,-804);
}
);
associatedMasterId = m002;
background = {
shapes = (
{
closed = 1;
nodes = (
(-190,-1105,o),
(-95,-927,o),
(-95,-728,cs),
(-95,-669,l),
(-171,-669,l),
(-172,-729,ls),
(-175,-904,o),
(-270,-1028,o),
(-541,-1028,cs),
(-751,-1028,o),
(-904,-940,o),
(-904,-763,cs),
(-904,-741,o),
(-902,-718,o),
(-898,-693,c),
(-892,-705,l),
(-968,-695,l),
(-960,-685,l),
(-967,-720,o),
(-971,-752,o),
(-971,-783,cs),
(-971,-992,o),
(-779,-1105,o),
(-542,-1105,cs)
);
}
);
};
layerId = m003;
name = Bold;
shapes = (
{
closed = 1;
nodes = (
(-114,-1105,o),
(135,-974,o),
(135,-508,cs),
(135,545,l),
(63,545,l),
(63,-482,ls),
(63,-922,o),
(-154,-1028,o),
(-501,-1028,cs),
(-914,-1028,o),
(-1104,-839,o),
(-1104,-546,cs),
(-1104,-421,o),
(-1075,-276,o),
(-997,-112,c),
(-992,-144,l),
(-1082,-110,l),
(-1060,-103,l),
(-1137,-257,o),
(-1178,-413,o),
(-1178,-561,cs),
(-1178,-858,o),
(-975,-1105,o),
(-513,-1105,cs)
);
}
);
width = 195;
},
{
anchors = (
{
name = _bottom;
pos = (804,-679);
}
);
associatedMasterId = m002;
layerId = "9AA71D9B-E0AD-4C31-9B37-5FFE5640AA17";
name = Bold;
shapes = (
{
closed = 1;
nodes = (
(710,-1267,o),
(804,-1038,o),
(804,-825,cs),
(804,-679,l),
(728,-679,l),
(726,-827,ls),
(723,-1016,o),
(641,-1193,o),
(367,-1193,cs),
(131,-1193,o),
(11,-1076,o),
(10,-911,cs),
(10,-851,o),
(21,-806,o),
(49,-748,c),
(51,-792,l),
(-30,-757,l),
(0,-743,l),
(-37,-799,o),
(-55,-862,o),
(-55,-931,cs),
(-55,-1121,o),
(80,-1267,o),
(365,-1267,cs)
);
}
);
width = 854;
},
{
anchors = (
{
name = _bottom;
pos = (804,-679);
}
);
associatedMasterId = m002;
layerId = "60A4743F-EFD6-4898-8AF6-0133062DDEBD";
name = Bold;
shapes = (
{
closed = 1;
nodes = (
(660,-1176,o),
(804,-988,o),
(804,-718,cs),
(804,-669,l),
(728,-669,l),
(727,-719,ls),
(722,-965,o),
(580,-1099,o),
(319,-1099,cs),
(-20,-1099,o),
(-109,-949,o),
(-109,-781,cs),
(-109,-732,o),
(-101,-683,o),
(-88,-639,c),
(-74,-677,l),
(-173,-656,l),
(-146,-634,l),
(-166,-686,o),
(-177,-743,o),
(-177,-800,cs),
(-177,-987,o),
(-59,-1176,o),
(318,-1176,cs)
);
}
);
width = 864;
},
{
anchors = (
{
name = _bottom;
pos = (804,-679);
},
{
name = bottom;
pos = (823,-793);
}
);
associatedMasterId = m002;
background = {
shapes = (
{
closed = 1;
nodes = (
(709,-1105,o),
(804,-927,o),
(804,-728,cs),
(804,-669,l),
(728,-669,l),
(727,-729,ls),
(724,-904,o),
(629,-1028,o),
(358,-1028,cs),
(148,-1028,o),
(-5,-940,o),
(-5,-763,cs),
(-5,-741,o),
(-3,-718,o),
(1,-693,c),
(7,-705,l),
(-69,-695,l),
(-61,-685,l),
(-68,-720,o),
(-72,-752,o),
(-72,-783,cs),
(-72,-992,o),
(120,-1105,o),
(357,-1105,cs)
);
}
);
};
layerId = "6F913C61-18E7-43C2-B668-623ACA933BB5";
name = Bold;
shapes = (
{
closed = 1;
nodes = (
(545,-1105,o),
(804,-995,o),
(804,-669,c),
(728,-669,l),
(723,-921,o),
(539,-1028,o),
(278,-1028,cs),
(-134,-1028,o),
(-284,-839,o),
(-284,-566,cs),
(-284,-431,o),
(-247,-275,o),
(-187,-112,c),
(-182,-133,l),
(-262,-110,l),
(-250,-103,l),
(-317,-257,o),
(-360,-421,o),
(-360,-570,cs),
(-360,-866,o),
(-193,-1105,o),
(277,-1105,cs)
);
}
);
width = 864;
},
{
anchors = (
{
name = _bottom;
pos = (-92,-669);
},
{
name = bottom;
pos = (-167,-794);
},
{
name = cecekbawah;
pos = (-708,-788);
},
{
name = top;
pos = (-900,650);
}
);
associatedMasterId = m002;
background = {
shapes = (
{
closed = 1;
nodes = (
(-88,-1105,o),
(161,-974,o),
(161,-508,cs),
(161,545,l),
(89,545,l),
(89,-482,ls),
(89,-922,o),
(-128,-1028,o),
(-475,-1028,cs),
(-880,-1028,o),
(-1068,-839,o),
(-1068,-546,cs),
(-1068,-421,o),
(-1034,-276,o),
(-956,-112,c),
(-958,-144,l),
(-1048,-110,l),
(-1026,-103,l),
(-1103,-257,o),
(-1144,-413,o),
(-1144,-561,cs),
(-1144,-858,o),
(-960,-1105,o),
(-487,-1105,cs)
);
},
{
closed = 1;
nodes = (
(-88,-1105,o),
(161,-974,o),
(161,-508,cs),
(161,545,l),
(89,545,l),
(89,-482,ls),
(89,-922,o),
(-128,-1028,o),
(-485,-1028,cs),
(-911,-1028,o),
(-1101,-840,o),
(-1101,-557,cs),
(-1101,-492,o),
(-1096,-430,o),
(-1080,-366,c),
(-1039,-418,l),
(-1204,-398,l),
(-1146,-368,l),
(-1165,-433,o),
(-1174,-498,o),
(-1174,-570,cs),
(-1174,-858,o),
(-991,-1105,o),
(-497,-1105,cs)
);
}
);
};
layerId = "483A16F4-77F8-40B4-93F8-EDBBCFB0E027";
name = "13 Aug 23 16.45";
shapes = (
{
closed = 1;
nodes = (
(-261,-1105,o),
(-92,-927,o),
(-92,-669,c),
(-92,-659,l),
(-168,-659,l),
(-168,-669,l),
(-168,-850,o),
(-262,-1030,o),
(-684,-1030,cs),
(-1144,-1030,o),
(-1293,-817,o),
(-1293,-535,cs),
(-1293,-404,o),
(-1263,-258,o),
(-1221,-112,c),
(-1216,-133,l),
(-1296,-114,l),
(-1284,-103,l),
(-1332,-241,o),
(-1370,-399,o),
(-1370,-547,cs),
(-1370,-844,o),
(-1209,-1105,o),
(-690,-1105,cs)
);
}
);
width = 0;
}
);
metricRight = "ha-bali";
subCategory = Spacing;
}
{
category = Mark;
glyphname = "raRepaMark-bali.belowCenik2";
layers = (
{
anchors = (
{
name = _bottom;
pos = (1108,-679);
},
{
name = bottom;
pos = (1191,-804);
},
{
name = cecekbawah;
pos = (718,-810);
}
);
layerId = m002;
shapes = (
{
closed = 1;
nodes = (
(709,-1105,ls),
(1093,-1105,o),
(1265,-947,o),
(1265,-629,cs),
(1265,-80,l),
(1198,-80,l),
(1198,-619,ls),
(1198,-874,o),
(1093,-1036,o),
(712,-1036,cs),
(708,-1036,ls),
(350,-1036,o),
(186,-844,o),
(186,-541,cs),
(186,-471,o),
(197,-387,o),
(214,-309,c),
(230,-354,l),
(111,-331,l),
(170,-282,l),
(130,-370,o),
(120,-469,o),
(120,-554,cs),
(120,-864,o),
(282,-1105,o),
(691,-1105,cs)
);
},
{
pos = (65,-1072);
ref = _cecek_bawah;
}
);
width = 1643;
}
);
script = balinese;
subCategory = Nonspacing;
}
{
category = Mark;
glyphname = "raRepaMark-bali.belowCenik4";
layers = (
{
anchors = (
{
name = _bottom;
pos = (1108,-679);
},
{
name = bottom;
pos = (1191,-804);
},
{
name = cecekbawah;
pos = (554,-810);
}
);
layerId = m002;
shapes = (
{
closed = 1;
nodes = (
(709,-1105,ls),
(1093,-1105,o),
(1265,-947,o),
(1265,-629,cs),
(1265,-80,l),
(1198,-80,l),
(1198,-619,ls),
(1198,-874,o),
(1093,-1036,o),
(712,-1036,cs),
(428,-1036,ls),
(70,-1036,o),
(-94,-844,o),
(-94,-541,cs),
(-94,-471,o),
(-83,-387,o),
(-66,-309,c),
(-50,-354,l),
(-169,-331,l),
(-110,-282,l),
(-150,-370,o),
(-160,-469,o),
(-160,-554,cs),
(-160,-864,o),
(2,-1105,o),
(411,-1105,cs)
);
},
{
pos = (-99,-1072);
ref = _cecek_bawah;
}
);
width = 1643;
}
);
script = balinese;
subCategory = Nonspacing;
}
{
glyphname = "ra_ya-bali.post";
layers = (
{
anchors = (
{
name = _bottom;
pos = (-109,0);
},
{
name = bottom;
pos = (267,-759);
},
{
name = top;
pos = (-471,650);
}
);
background = {
shapes = (
{
pos = (-1247,0);
ref = "raRepaMark-bali.001";
}
);
};
layerId = m002;
name = Regular;
shapes = (
{
closed = 1;
nodes = (
(-15,-769,o),
(108,-630,o),
(108,-310,cs),
(108,502,l),
(101,482,l),
(169,484,o),
(191,447,o),
(191,372,cs),
(191,-759,l),
(267,-759,l),
(267,376,ls),
(267,498,o),
(222,550,o),
(99,550,cs),
(89,550,l),
(40,507,l),
(39,-300,ls),
(39,-587,o),
(-59,-697,o),
(-226,-697,cs),
(-329,-697,o),
(-385,-655,o),
(-385,-568,cs),
(-385,-429,o),
(-241,-319,o),
(-101,-147,c),
(-107,-166,l),
(-161,-119,l),
(-145,-116,l),
(-340,-307,o),
(-553,-486,o),
(-820,-486,cs),
(-1045,-486,o),
(-1113,-359,o),
(-1113,-242,cs),
(-1113,-200,o),
(-1104,-159,o),
(-1090,-125,c),
(-1083,-135,l),
(-1175,-110,l),
(-1155,-101,l),
(-1177,-154,o),
(-1188,-212,o),
(-1188,-262,cs),
(-1188,-422,o),
(-1077,-562,o),
(-829,-562,cs),
(-593,-562,o),
(-432,-436,o),
(-334,-373,c),
(-329,-359,l),
(-399,-397,o),
(-456,-491,o),
(-456,-587,cs),
(-456,-704,o),
(-372,-769,o),
(-227,-769,cs)
);
}
);
width = 347;
},
{
anchors = (
{
name = _bottom;
pos = (339,-286);
},
{
name = bottom;
pos = (267,-759);
}
);
associatedMasterId = m002;
background = {
shapes = (
{
pos = (-1247,0);
ref = "raRepaMark-bali.001";
}
);
};
layerId = "E79166A0-7B5E-4D67-AEC1-E38151E2A223";
name = "7 Jun 23 11.29";
shapes = (
{
closed = 1;
nodes = (
(-15,-769,o),
(108,-637,o),
(108,-310,cs),
(108,291,l),
(40,291,l),
(39,-300,ls),
(39,-587,o),
(-56,-690,o),
(-233,-690,cs),
(-324,-690,o),
(-406,-648,o),
(-406,-553,cs),
(-406,-482,o),
(-364,-432,o),
(-294,-377,c),
(-296,-396,l),
(-346,-325,l),
(-316,-331,l),
(-371,-355,o),
(-433,-399,o),
(-491,-450,cs),
(-583,-530,o),
(-691,-576,o),
(-812,-576,cs),
(-1126,-576,o),
(-1150,-270,o),
(-1084,-97,c),
(-1049,-145,l),
(-1196,-101,l),
(-1141,-74,l),
(-1266,-341,o),
(-1152,-652,o),
(-812,-652,cs),
(-682,-652,o),
(-555,-598,o),
(-463,-515,c),
(-474,-498,l),
(-480,-523,o),
(-482,-545,o),
(-482,-566,cs),
(-482,-706,o),
(-368,-769,o),
(-239,-769,cs)
);
},
{
closed = 1;
nodes = (
(267,-759,l),
(267,0,l),
(260,10,l),
(196,10,l),
(191,0,l),
(191,-759,l)
);
},
{
pos = (-877,0);
ref = _ha_geluungan_ha;
}
);
width = 327;
},
{
anchors = (
{
name = _bottom;
pos = (339,-286);
},
{
name = bottom;
pos = (267,-759);
}
);
associatedMasterId = m002;
background = {
shapes = (
{
pos = (-1247,0);
ref = "raRepaMark-bali.001";
}
);
};
layerId = "D12EB152-4CDE-4678-BDC6-B4D3A215B684";
name = Regular;
shapes = (
{
closed = 1;
nodes = (
(-15,-769,o),
(108,-637,o),
(108,-310,cs),
(108,291,l),
(40,291,l),
(39,-300,ls),
(39,-587,o),
(-56,-690,o),
(-233,-690,cs),
(-324,-690,o),
(-406,-648,o),
(-406,-553,cs),
(-406,-482,o),
(-364,-432,o),
(-294,-377,c),
(-296,-396,l),
(-346,-325,l),
(-316,-331,l),
(-371,-355,o),
(-433,-399,o),
(-491,-450,cs),
(-583,-530,o),
(-691,-576,o),
(-812,-576,cs),
(-1126,-576,o),
(-1150,-270,o),
(-1084,-97,c),
(-1049,-145,l),
(-1196,-101,l),
(-1141,-74,l),
(-1266,-341,o),
(-1152,-652,o),
(-812,-652,cs),
(-682,-652,o),
(-555,-598,o),
(-463,-515,c),
(-474,-498,l),
(-480,-523,o),
(-482,-545,o),
(-482,-566,cs),
(-482,-706,o),
(-368,-769,o),
(-239,-769,cs)
);
},
{
closed = 1;
nodes = (
(267,-759,l),
(267,0,l),
(260,10,l),
(196,10,l),
(191,0,l),
(191,-759,l)
);
},
{
pos = (-877,0);
ref = _ha_geluungan_ha;
}
);
width = 327;
},
{
anchors = (
{
name = _bottom;
pos = (-109,0);
},
{
name = bottom;
pos = (267,-759);
}
);
associatedMasterId = m002;
background = {
shapes = (
{
pos = (-1247,0);
ref = "raRepaMark-bali.001";
}
);
};
layerId = m003;
name = Bold;
shapes = (
{
closed = 1;
nodes = (
(267,-759,l),
(267,0,l),
(260,10,l),
(196,10,l),
(191,0,l),
(191,-759,l)
);
},
{
pos = (-877,0);
ref = _ha_geluungan_ha;
},
{
ref = _ra_ya_post_depan;
}
);
width = 327;
},
{
anchors = (
{
name = _bottom;
pos = (339,-286);
},
{
name = bottom;
pos = (267,-759);
}
);
associatedMasterId = m002;
background = {
shapes = (
{
pos = (-1247,0);
ref = "raRepaMark-bali.001";
}
);
};
layerId = "52905945-CEE1-479C-9871-78B9FA86A8A0";
name = Bold;
shapes = (
{
closed = 1;
nodes = (
(-15,-769,o),
(108,-637,o),
(108,-310,cs),
(108,291,l),
(40,291,l),
(39,-300,ls),
(39,-587,o),
(-56,-690,o),
(-233,-690,cs),
(-324,-690,o),
(-406,-648,o),
(-406,-553,cs),
(-406,-482,o),
(-364,-432,o),
(-294,-377,c),
(-296,-396,l),
(-346,-325,l),
(-316,-331,l),
(-371,-355,o),
(-433,-399,o),
(-491,-450,cs),
(-583,-530,o),
(-691,-576,o),
(-812,-576,cs),
(-1126,-576,o),
(-1150,-270,o),
(-1084,-97,c),
(-1049,-145,l),
(-1196,-101,l),
(-1141,-74,l),
(-1266,-341,o),
(-1152,-652,o),
(-812,-652,cs),
(-682,-652,o),
(-555,-598,o),
(-463,-515,c),
(-474,-498,l),
(-480,-523,o),
(-482,-545,o),
(-482,-566,cs),
(-482,-706,o),
(-368,-769,o),
(-239,-769,cs)
);
},
{
closed = 1;
nodes = (
(267,-759,l),
(267,0,l),
(260,10,l),
(196,10,l),
(191,0,l),
(191,-759,l)
);
},
{
pos = (-877,0);
ref = _ha_geluungan_ha;
}
);
width = 327;
}
);
metricRight = "ha-bali";
}
{
category = Letter;
glyphname = "rerekan-bali.01";
layers = (
{
anchors = (
{
name = _top;
pos = (-579,630);
},
{
name = top;
pos = (-40,630);
}
);
layerId = m002;
name = Regular;
shapes = (
{
closed = 1;
nodes = (
(-679,643,o),
(-655,667,o),
(-655,697,cs),
(-655,727,o),
(-679,751,o),
(-709,751,cs),
(-739,751,o),
(-763,727,o),
(-763,697,cs),
(-763,667,o),
(-739,643,o),
(-709,643,cs)
);
},
{
closed = 1;
nodes = (
(-409,643,o),
(-385,667,o),
(-385,697,cs),
(-385,727,o),
(-409,751,o),
(-439,751,cs),
(-469,751,o),
(-493,727,o),
(-493,697,cs),
(-493,667,o),
(-469,643,o),
(-439,643,cs)
);
},
{
closed = 1;
nodes = (
(-549,883,o),
(-525,907,o),
(-525,937,cs),
(-525,967,o),
(-549,991,o),
(-579,991,cs),
(-609,991,o),
(-633,967,o),
(-633,937,cs),
(-633,907,o),
(-609,883,o),
(-579,883,cs)
);
}
);
width = 0;
},
{
anchors = (
{
name = _top;
pos = (284,630);
},
{
name = top;
pos = (823,630);
}
);
associatedMasterId = m002;
layerId = m003;
name = Bold;
shapes = (
{
closed = 1;
nodes = (
(184,643,o),
(208,667,o),
(208,697,cs),
(208,727,o),
(184,751,o),
(154,751,cs),
(124,751,o),
(100,727,o),
(100,697,cs),
(100,667,o),
(124,643,o),
(154,643,cs)
);
},
{
closed = 1;
nodes = (
(454,643,o),
(478,667,o),
(478,697,cs),
(478,727,o),
(454,751,o),
(424,751,cs),
(394,751,o),
(370,727,o),
(370,697,cs),
(370,667,o),
(394,643,o),
(424,643,cs)
);
},
{
closed = 1;
nodes = (
(314,883,o),
(338,907,o),
(338,937,cs),
(338,967,o),
(314,991,o),
(284,991,cs),
(254,991,o),
(230,967,o),
(230,937,cs),
(230,907,o),
(254,883,o),
(284,883,cs)
);
}
);
width = 578;
}
);
metricLeft = "ulu-bali.01";
}
{
glyphname = rsuperior;
layers = (
{
anchors = (
{
name = bottom;
pos = (77,357);
},
{
name = top;
pos = (124,700);
}
);
background = {
shapes = (
{
pos = (-1,0);
ref = n;
}
);
};
layerId = m002;
shapes = (
{
closed = 1;
nodes = (
(105,357,l),
(105,565,ls),
(105,611,o),
(127,654,o),
(171,654,cs),
(185,654,o),
(200,649,o),
(213,630,c),
(204,628,l),
(237,698,l),
(238,683,l),
(220,702,o),
(199,707,o),
(181,707,cs),
(151,707,o),
(125,693,o),
(105,660,c),
(103,660,l),
(90,700,l),
(50,700,l),
(50,357,l)
);
}
);
userData = {
RMXScaler = {
height = 63;
verticalShift = 357;
weight = -27;
width = 62;
};
};
width = 236;
}
);
userData = {
RMXScaler = {
source = r;
};
};
}
{
glyphname = semicolon.case;
kernLeft = colon;
kernRight = colon;
layers = (
{
anchors = (
{
name = colon;
pos = (72,994);
}
);
background = {
shapes = (
{
ref = period;
}
);
};
layerId = m002;
shapes = (
{
closed = 1;
nodes = (
(58,-26,l),
(129,-22,o),
(170,24,o),
(170,98,cs),
(170,194,l),
(72,194,l),
(72,103,l),
(111,103,ls),
(116,103,o),
(120,100,o),
(120,94,cs),
(120,40,o),
(93,15,o),
(50,7,c),
(54,11,l),
(62,-30,l)
);
},
{
closed = 1;
nodes = (
(170,503,l),
(170,594,l),
(72,594,l),
(72,503,l)
);
}
);
userData = {
RMXScaler = {
verticalShift = 103;
};
};
width = 242;
}
);
userData = {
RMXScaler = {
source = semicolon;
};
};
}
{
category = Letter;
glyphname = "taLatik-bali.below_sukuIlut-bali.below";
layers = (
{
anchors = (
{
name = _bottom;
pos = (-83,0);
},
{
name = bottom;
pos = (-167,-547);
},
{
name = top;
pos = (-467,650);
}
);
layerId = m002;
shapes = (
{
closed = 1;
nodes = (
(-298,-1140,l),
(-161,-1078,o),
(-105,-1003,o),
(-105,-946,cs),
(-105,-873,o),
(-192,-834,o),
(-192,-794,cs),
(-192,-767,o),
(-161,-740,o),
(-161,-635,cs),
(-161,-593,o),
(-161,-551,o),
(-161,-509,c),
(-228,-570,l),
(-227,-594,o),
(-227,-617,o),
(-227,-639,cs),
(-227,-714,o),
(-264,-749,o),
(-265,-798,cs),
(-267,-869,o),
(-178,-903,o),
(-179,-947,cs),
(-180,-983,o),
(-214,-1032,o),
(-331,-1104,c),
(-318,-1081,l),
(-279,-1142,l)
);
},
{
ref = "taLatik-bali.below";
}
);
width = 0;
}
);
subCategory = Spacing;
}
{
glyphname = "taMurdaMahaprana-bali.below";
layers = (
{
anchors = (
{
name = _bottom;
pos = (-83,0);
},
{
name = bottom;
pos = (-167,-547);
},
{
name = top;
pos = (-467,650);
}
);
layerId = m002;
name = Regular;
shapes = (
{
closed = 1;
nodes = (
(-258,-689,o),
(-83,-531,o),
(-83,-346,cs),
(-83,-248,o),
(-132,-211,o),
(-188,-211,cs),
(-260,-211,o),
(-312,-272,o),
(-312,-358,cs),
(-312,-436,o),
(-269,-507,o),
(-205,-535,c),
(-169,-483,l),
(-215,-464,o),
(-242,-410,o),
(-242,-357,cs),
(-242,-311,o),
(-222,-283,o),
(-191,-283,cs),
(-164,-283,o),
(-151,-305,o),
(-151,-348,cs),
(-151,-491,o),
(-297,-615,o),
(-503,-615,cs),
(-752,-615,o),
(-910,-433,o),
(-875,-124,c),
(-871,-144,l),
(-965,-134,l),
(-950,-119,l),
(-1002,-469,o),
(-798,-689,o),
(-506,-689,cs)
);
}
);
width = 0;
},
{
anchors = (
{
name = _bottom;
pos = (923,0);
},
{
name = bottom;
pos = (839,-547);
}
);
associatedMasterId = m002;
layerId = m003;
name = Bold;
shapes = (
{
closed = 1;
nodes = (
(747,-689,o),
(923,-534,o),
(923,-337,cs),
(923,-253,o),
(874,-211,o),
(820,-211,cs),
(745,-211,o),
(694,-273,o),
(694,-358,cs),
(694,-436,o),
(737,-507,o),
(801,-535,c),
(837,-483,l),
(791,-464,o),
(764,-411,o),
(764,-354,cs),
(764,-312,o),
(784,-283,o),
(814,-283,cs),
(840,-283,o),
(855,-305,o),
(855,-339,cs),
(855,-494,o),
(709,-615,o),
(505,-615,cs),
(253,-615,o),
(94,-433,o),
(119,-124,c),
(135,-134,l),
(41,-134,l),
(59,-119,l),
(4,-472,o),
(208,-689,o),
(504,-689,cs)
);
}
);
width = 973;
}
);
}
{
category = Letter;
glyphname = "taMurdaMahaprana-bali.below_sukuIlut-bali.below";
layers = (
{
anchors = (
{
name = _bottom;
pos = (-83,0);
},
{
name = bottom;
pos = (-167,-547);
},
{
name = top;
pos = (-467,650);
}
);
layerId = m002;
shapes = (
{
closed = 1;
nodes = (
(-199,-1140,l),
(-62,-1078,o),
(-6,-1003,o),
(-6,-946,cs),
(-6,-873,o),
(-93,-834,o),
(-93,-794,cs),
(-93,-779,o),
(-80,-739,o),
(-80,-695,cs),
(-80,-616,o),
(-102,-549,o),
(-161,-495,c),
(-213,-542,l),
(-172,-574,o),
(-147,-640,o),
(-147,-691,cs),
(-147,-747,o),
(-166,-776,o),
(-166,-798,cs),
(-168,-869,o),
(-79,-903,o),
(-80,-947,cs),
(-81,-983,o),
(-115,-1032,o),
(-232,-1104,c),
(-219,-1081,l),
(-180,-1142,l)
);
},
{
ref = "taMurdaMahaprana-bali.below";
}
);
width = 0;
}
);
subCategory = Spacing;
}
{
glyphname = two.dnom;
kernLeft = two.dnom;
kernRight = two.dnom;
layers = (
{
guides = (
{
angle = 270;
pos = (54,68);
}
);
layerId = m002;
shapes = (
{
closed = 1;
nodes = (
(237,0,l),
(237,47,l),
(66,47,l),
(80,30,l),
(77,38,o),
(76,48,o),
(76,52,cs),
(76,120,o),
(237,114,o),
(237,228,cs),
(237,286,o),
(196,320,o),
(131,320,cs),
(62,320,o),
(16,278,o),
(23,211,c),
(15,221,l),
(88,219,l),
(78,215,l),
(74,252,o),
(96,272,o),
(132,272,cs),
(166,272,o),
(183,252,o),
(183,227,cs),
(183,147,o),
(18,159,o),
(18,37,cs),
(18,30,o),
(19,12,o),
(21,0,c)
);
}
);
userData = {
RMXScaler = {
height = 45;
weight = -27;
width = 47;
};
};
width = 255;
},
{
associatedMasterId = m002;
layerId = "217662F6-B780-46B5-B0FD-3AB740827F8C";
name = "16 Jun 23 11.18";
shapes = (
{
closed = 1;
nodes = (
(440,0,l),
(440,70,l),
(85,70,l),
(127,41,l),
(376,359,ls),
(433,432,o),
(455,485,o),
(455,536,cs),
(455,640,o),
(369,710,o),
(258,710,cs),
(185,710,o),
(107,679,o),
(50,623,c),
(53,674,l),
(117,539,l),
(80,555,l),
(134,604,o),
(196,632,o),
(254,632,cs),
(329,632,o),
(375,598,o),
(375,539,cs),
(375,502,o),
(357,462,o),
(318,412,cs),
(49,69,l),
(49,0,l)
);
}
);
width = 493;
}
);
userData = {
RMXScaler = {
source = two;
};
};
}
{
glyphname = usuperior;
layers = (
{
anchors = (
{
name = bottom;
pos = (184,357);
},
{
name = ogonek;
pos = (313,357);
},
{
name = top;
pos = (184,700);
},
{
name = topright;
pos = (358,700);
}
);
layerId = m002;
shapes = (
{
closed = 1;
nodes = (
(202,351,o),
(234,373,o),
(257,405,c),
(265,405,l),
(263,486,l),
(258,486,l),
(252,446,o),
(221,399,o),
(168,399,cs),
(127,399,o),
(102,427,o),
(102,489,cs),
(102,700,l),
(47,700,l),
(47,483,ls),
(47,404,o),
(87,351,o),
(155,351,cs)
);
},
{
closed = 1;
nodes = (
(313,357,l),
(313,700,l),
(258,700,l),
(258,407,l),
(272,357,l)
);
}
);
userData = {
RMXScaler = {
height = 63;
verticalShift = 357;
weight = -27;
width = 62;
};
};
width = 366;
}
);
userData = {
RMXScaler = {
source = u;
};
};
}
{
glyphname = "ya_tedung-bali";
layers = (
{
anchors = (
{
name = bottom;
pos = (1070,0);
},
{
name = ha_geluungan_ha;
pos = (842,291);
},
{
name = top;
pos = (698,650);
}
);
layerId = m002;
shapes = (
{
closed = 1;
nodes = (
(439,-10,o),
(513,109,o),
(537,351,c),
(542,351,l),
(549,141,o),
(613,-10,o),
(751,-10,cs),
(838,-10,o),
(911,50,o),
(911,231,cs),
(911,291,ls),
(911,419,o),
(981,480,o),
(1079,480,cs),
(1206,480,o),
(1265,377,o),
(1265,260,cs),
(1265,139,o),
(1202,52,o),
(1090,52,cs),
(1054,52,o),
(1019,61,o),
(989,80,c),
(1004,83,l),
(967,17,l),
(960,30,l),
(998,3,o),
(1044,-10,o),
(1098,-10,cs),
(1258,-10,o),
(1344,106,o),
(1344,263,cs),
(1344,430,o),
(1246,555,o),
(1085,555,cs),
(943,555,o),
(843,459,o),
(843,291,cs),
(843,258,ls),
(843,107,o),
(805,66,o),
(749,66,cs),
(585,66,o),
(596,430,o),
(577,568,c),
(593,545,l),
(496,545,l),
(516,560,l),
(474,242,o),
(433,67,o),
(324,67,cs),
(272,67,o),
(255,107,o),
(255,167,cs),
(255,249,o),
(286,376,o),
(286,437,cs),
(286,513,o),
(238,555,o),
(169,555,cs),
(91,555,o),
(49,501,o),
(49,432,cs),
(49,374,o),
(78,327,o),
(93,303,c),
(68,303,l),
(165,352,l),
(158,314,l),
(136,355,o),
(118,393,o),
(118,430,cs),
(118,464,o),
(133,485,o),
(163,485,cs),
(195,485,o),
(205,459,o),
(205,425,cs),
(205,364,o),
(173,252,o),
(173,162,cs),
(173,43,o),
(230,-10,o),
(313,-10,cs)
);
}
);
width = 1368;
}
);
metricRight = "tedung-bali";
}
{
glyphname = zero.zero;
layers = (
{
layerId = m002;
shapes = (
{
alignment = 1;
ref = zero;
},
{
pos = (-63,0);
ref = _zeroslash;
}
);
width = 627;
},
{
anchors = (
{
name = tail_Q;
pos = (276,43);
}
);
associatedMasterId = m002;
layerId = "64A053DD-3644-499C-AD33-82D3A668326C";
name = "16 Jun 23 11.03";
shapes = (
{
closed = 1;
nodes = (
(397,-10,o),
(477,120,o),
(477,348,cs),
(477,575,o),
(396,710,o),
(265,710,cs),
(130,710,o),
(50,569,o),
(50,348,cs),
(50,126,o),
(130,-10,o),
(265,-10,cs)
);
},
{
closed = 1;
nodes = (
(176,65,o),
(131,160,o),
(131,348,cs),
(131,535,o),
(175,635,o),
(265,635,cs),
(351,635,o),
(397,539,o),
(397,348,cs),
(397,156,o),
(351,65,o),
(265,65,cs)
);
}
);
width = 527;
}
);
metricRight = "=|";
}
{
glyphname = zsuperior;
layers = (
{
anchors = (
{
name = bottom;
pos = (147,357);
},
{
name = center;
pos = (147,529);
},
{
name = top;
pos = (161,700);
}
);
background = {
shapes = (
{
pos = (10,0);
ref = x;
}
);
};
layerId = m002;
shapes = (
{
closed = 1;
nodes = (
(272,357,l),
(272,406,l),
(74,406,l),
(80,395,l),
(272,654,l),
(272,700,l),
(35,700,l),
(35,652,l),
(224,652,l),
(219,663,l),
(26,404,l),
(26,357,l)
);
}
);
userData = {
RMXScaler = {
height = 63;
verticalShift = 357;
weight = -27;
width = 62;
};
};
width = 298;
}
);
userData = {
RMXScaler = {
source = z;
};
};
}
